<svg width="24" height="24" viewBox="0 0 24 24" fill="none" xmlns="http://www.w3.org/2000/svg">
<path d="M20 4H4C3.20435 4 2.44129 4.31607 1.87868 4.87868C1.31607 5.44129 1 6.20435 1 7V17C1 17.7956 1.31607 18.5587 1.87868 19.1213C2.44129 19.6839 3.20435 20 4 20H20C20.7956 20 21.5587 19.6839 22.1213 19.1213C22.6839 18.5587 23 17.7956 23 17V7C23 6.20435 22.6839 5.44129 22.1213 4.87868C21.5587 4.31607 20.7956 4 20 4ZM21 16.75L16.1 12.35L21 8.92V16.75ZM3 8.92L7.9 12.35L3 16.75V8.92ZM9.58 13.53L11.43 14.82C11.5974 14.9361 11.7963 14.9984 12 14.9984C12.2037 14.9984 12.4026 14.9361 12.57 14.82L14.42 13.53L19.42 18H4.6L9.58 13.53ZM4 6H20C20.1857 6.00149 20.3674 6.05467 20.5245 6.15358C20.6817 6.25249 20.8083 6.39322 20.89 6.56L12 12.78L3.11 6.56C3.19171 6.39322 3.31826 6.25249 3.47545 6.15358C3.63265 6.05467 3.81428 6.00149 4 6Z" fill="#08246C"/>
</svg>
