<svg width="24" height="24" viewBox="0 0 24 24" fill="none" xmlns="http://www.w3.org/2000/svg">
<g clip-path="url(#clip0_14_459)">
<path d="M0 0V22.2857H14.1785V20.5714H1.77231V1.71429H10.6338V6.85714H15.9508V8.57143H17.7231V5.65714L17.4572 5.4L12.1403 0.257143L11.8745 0H0ZM12.4062 2.91429L14.7102 5.14286H12.4062V2.91429ZM3.54462 8.57143V10.2857H14.1785V8.57143H3.54462ZM18.6092 10.2857V12C17.1028 12.2571 15.9508 13.4571 15.9508 15C15.9508 16.7143 17.28 18 19.0523 18H19.9385C20.6474 18 21.2677 18.6 21.2677 19.2857C21.2677 19.9714 20.6474 20.5714 19.9385 20.5714H16.8369V22.2857H18.6092V24H20.3815V22.2857C21.888 22.0286 23.04 20.8286 23.04 19.2857C23.04 17.5714 21.7108 16.2857 19.9385 16.2857H19.0523C18.3434 16.2857 17.7231 15.6857 17.7231 15C17.7231 14.3143 18.3434 13.7143 19.0523 13.7143H22.1538V12H20.3815V10.2857H18.6092ZM3.54462 12.8571V14.5714H9.74769V12.8571H3.54462ZM11.52 12.8571V14.5714H14.1785V12.8571H11.52ZM3.54462 16.2857V18H9.74769V16.2857H3.54462ZM11.52 16.2857V18H14.1785V16.2857H11.52Z" fill="#00140E"/>
</g>
<defs>
<clipPath id="clip0_14_459">
<rect width="24" height="24" fill="white"/>
</clipPath>
</defs>
</svg>
