<svg width="24" height="24" viewBox="0 0 24 24" fill="none" xmlns="http://www.w3.org/2000/svg">
<path d="M9 1.503C8.20435 1.503 7.44129 1.81907 6.87868 2.38167C6.31607 2.94428 6 3.70735 6 4.503V7.8105C6.49032 7.6717 6.99248 7.5788 7.5 7.533V4.503C7.5 4.10517 7.65804 3.72364 7.93934 3.44234C8.22064 3.16103 8.60218 3.003 9 3.003H13.5V6.753C13.5 7.34973 13.7371 7.92203 14.159 8.34399C14.581 8.76594 15.1533 9.003 15.75 9.003H19.5V19.497C19.5 19.8948 19.342 20.2764 19.0607 20.5577C18.7794 20.839 18.3978 20.997 18 20.997H14.616C14.1465 21.567 13.6035 22.071 12.999 22.497H18C18.7956 22.497 19.5587 22.1809 20.1213 21.6183C20.6839 21.0557 21 20.2926 21 19.497V8.127C20.9995 7.53046 20.7621 6.95855 20.34 6.53699L15.963 2.1615C15.5414 1.73942 14.9695 1.50202 14.373 1.5015H9V1.503ZM15 6.753V3.318L19.1865 7.503H15.75C15.5511 7.503 15.3603 7.42398 15.2197 7.28333C15.079 7.14267 15 6.95191 15 6.753ZM15 15.75C15 13.9598 14.2888 12.2429 13.023 10.977C11.7571 9.71115 10.0402 9 8.25 9C6.45979 9 4.7429 9.71115 3.47703 10.977C2.21116 12.2429 1.5 13.9598 1.5 15.75C1.5 17.5402 2.21116 19.2571 3.47703 20.523C4.7429 21.7888 6.45979 22.5 8.25 22.5C10.0402 22.5 11.7571 21.7888 13.023 20.523C14.2888 19.2571 15 17.5402 15 15.75ZM8.25 18.57C8.49864 18.57 8.7371 18.6688 8.91291 18.8446C9.08873 19.0204 9.1875 19.2589 9.1875 19.5075C9.1875 19.7561 9.08873 19.9946 8.91291 20.1704C8.7371 20.3462 8.49864 20.445 8.25 20.445C8.00136 20.445 7.7629 20.3462 7.58709 20.1704C7.41127 19.9946 7.3125 19.7561 7.3125 19.5075C7.3125 19.2589 7.41127 19.0204 7.58709 18.8446C7.7629 18.6688 8.00136 18.57 8.25 18.57ZM8.25 11.2545C9.7965 11.2545 11.0295 12.5235 11.0295 14.1795C11.0295 15.0585 10.7085 15.5415 9.939 16.158L9.5235 16.479C9.1545 16.77 9.03 16.929 9.0045 17.151L8.988 17.385C8.95461 17.5694 8.85338 17.7347 8.70425 17.8482C8.55511 17.9617 8.36889 18.0152 8.18223 17.9983C7.99558 17.9814 7.82203 17.8952 7.69576 17.7567C7.56949 17.6182 7.49965 17.4374 7.5 17.25C7.5 16.395 7.815 15.924 8.574 15.318L8.991 14.9955C9.423 14.6505 9.531 14.4825 9.531 14.1795C9.531 13.3425 8.958 12.7545 8.25 12.7545C7.509 12.7545 6.9615 13.3035 6.9705 14.172C6.97249 14.3709 6.89538 14.5625 6.75613 14.7045C6.61689 14.8466 6.42691 14.9275 6.228 14.9295C6.02909 14.9315 5.83753 14.8544 5.69547 14.7151C5.55341 14.5759 5.47249 14.3859 5.4705 14.187C5.454 12.48 6.678 11.2545 8.25 11.2545Z" fill="#00140E"/>
</svg>
