<svg width="38" height="38" viewBox="0 0 38 38" fill="none" xmlns="http://www.w3.org/2000/svg">
<g clip-path="url(#clip0_880_41726)">
<path d="M0.810911 18.7726C0.81002 21.9654 1.65077 25.0828 3.24944 27.8306L0.65802 37.219L10.3409 34.6998C13.019 36.1465 16.0197 36.9045 19.069 36.9047H19.077C29.1433 36.9047 37.3375 28.7769 37.3418 18.7869C37.3438 13.946 35.4455 9.394 31.9967 5.96928C28.5485 2.54486 23.9626 0.657971 19.0763 0.655762C9.00882 0.655762 0.815215 8.78305 0.811059 18.7726" fill="url(#paint0_linear_880_41726)"/>
<path d="M0.158828 18.7667C0.157789 22.0743 1.02867 25.3033 2.68434 28.1495L0 37.8744L10.0301 35.2649C12.7937 36.76 15.9052 37.5483 19.0714 37.5494H19.0796C29.507 37.5494 37.9955 29.1294 38 18.7817C38.0018 13.7669 36.0353 9.05122 32.4633 5.50381C28.8908 1.95685 24.1408 0.00206202 19.0796 0C8.65034 0 0.163133 8.41892 0.158977 18.7667H0.158828ZM6.13195 27.6593L5.75745 27.0694C4.18312 24.5856 3.35216 21.7152 3.35335 18.7679C3.35677 10.1671 10.4111 3.16961 19.0855 3.16961C23.2863 3.17138 27.2341 4.79625 30.2035 7.74434C33.1727 10.6927 34.8065 14.612 34.8055 18.7805C34.8016 27.3814 27.7471 34.3797 19.0796 34.3797H19.0733C16.2511 34.3782 13.4832 33.6262 11.0693 32.205L10.4948 31.867L4.54278 33.4154L6.13195 27.6591V27.6593Z" fill="url(#paint1_linear_880_41726)"/>
<path d="M14.3507 10.921C13.9965 10.14 13.6238 10.1242 13.287 10.1105C13.0112 10.0987 12.6959 10.0996 12.3809 10.0996C12.0656 10.0996 11.5533 10.2173 11.1204 10.6864C10.6869 11.156 9.46558 12.2907 9.46558 14.5985C9.46558 16.9065 11.1597 19.1369 11.3959 19.4501C11.6323 19.7628 14.6664 24.6504 19.4716 26.5306C23.4652 28.0932 24.2779 27.7824 25.1446 27.7041C26.0115 27.626 27.9417 26.5697 28.3355 25.4743C28.7296 24.3791 28.7296 23.4403 28.6115 23.2441C28.4933 23.0486 28.1781 22.9313 27.7053 22.6968C27.2324 22.4621 24.9081 21.3273 24.4748 21.1707C24.0414 21.0143 23.7263 20.9363 23.411 21.406C23.0957 21.8749 22.1904 22.9313 21.9144 23.2441C21.6388 23.5577 21.3628 23.5967 20.8902 23.3621C20.4171 23.1267 18.8946 22.632 17.0883 21.0341C15.6829 19.7907 14.7341 18.2552 14.4583 17.7855C14.1825 17.3165 14.4287 17.0623 14.6658 16.8286C14.8782 16.6184 15.1387 16.2808 15.3753 16.007C15.611 15.7331 15.6897 15.5376 15.8473 15.2248C16.0051 14.9116 15.9262 14.6377 15.8082 14.4031C15.6897 14.1684 14.771 11.8487 14.3507 10.9212" fill="white"/>
</g>
<defs>
<linearGradient id="paint0_linear_880_41726" x1="18.9999" y1="37.219" x2="18.9999" y2="0.655762" gradientUnits="userSpaceOnUse">
<stop stop-color="#1FAF38"/>
<stop offset="1" stop-color="#60D669"/>
</linearGradient>
<linearGradient id="paint1_linear_880_41726" x1="19" y1="37.8744" x2="19" y2="0" gradientUnits="userSpaceOnUse">
<stop stop-color="#F9F9F9"/>
<stop offset="1" stop-color="white"/>
</linearGradient>
<clipPath id="clip0_880_41726">
<rect width="38" height="38" fill="white"/>
</clipPath>
</defs>
</svg>
