<svg width="36" height="36" viewBox="0 0 36 36" fill="none" xmlns="http://www.w3.org/2000/svg">
<path d="M25.875 25.875V29.25H9.5625C8.21984 29.25 6.93217 28.7166 5.98277 27.7672C5.03337 26.8178 4.5 25.5302 4.5 24.1875C4.5 22.8448 5.03337 21.5572 5.98277 20.6078C6.93217 19.6584 8.21984 19.125 9.5625 19.125H10.125V16.875H9.5625C7.6231 16.875 5.76314 17.6454 4.39178 19.0168C3.02042 20.3881 2.25 22.2481 2.25 24.1875C2.25 26.1269 3.02042 27.9869 4.39178 29.3582C5.76314 30.7296 7.6231 31.5 9.5625 31.5H25.875V34.875H34.875V25.875H25.875ZM32.625 32.625H28.125V28.125H32.625V32.625Z" fill="#CE2832"/>
<path d="M23.625 24.75H21.375V21.375H14.625V24.75H12.375V21.375C12.3756 20.7784 12.6128 20.2065 13.0347 19.7847C13.4565 19.3628 14.0284 19.1256 14.625 19.125H21.375C21.9716 19.1256 22.5435 19.3628 22.9653 19.7847C23.3872 20.2065 23.6244 20.7784 23.625 21.375V24.75ZM18 18C17.3325 18 16.68 17.8021 16.125 17.4312C15.5699 17.0604 15.1374 16.5333 14.8819 15.9166C14.6265 15.2999 14.5596 14.6213 14.6898 13.9666C14.8201 13.3119 15.1415 12.7105 15.6135 12.2385C16.0855 11.7665 16.6869 11.4451 17.3416 11.3149C17.9963 11.1846 18.6749 11.2515 19.2916 11.5069C19.9083 11.7624 20.4354 12.1949 20.8062 12.75C21.1771 13.305 21.375 13.9575 21.375 14.625C21.3741 15.5198 21.0182 16.3778 20.3855 17.0105C19.7528 17.6432 18.8948 17.9991 18 18ZM18 13.5C17.7775 13.5 17.56 13.566 17.375 13.6896C17.19 13.8132 17.0458 13.9889 16.9606 14.1945C16.8755 14.4 16.8532 14.6262 16.8966 14.8445C16.94 15.0627 17.0472 15.2632 17.2045 15.4205C17.3618 15.5778 17.5623 15.685 17.7805 15.7284C17.9988 15.7718 18.225 15.7495 18.4305 15.6644C18.6361 15.5792 18.8118 15.435 18.9354 15.25C19.059 15.065 19.125 14.8475 19.125 14.625C19.1247 14.3267 19.0061 14.0407 18.7952 13.8298C18.5843 13.6189 18.2983 13.5003 18 13.5Z" fill="#CE2832"/>
<path d="M26.4375 4.5H10.125V1.125H1.125V10.125H10.125V6.75H26.4375C27.7802 6.75 29.0678 7.28337 30.0172 8.23277C30.9666 9.18217 31.5 10.4698 31.5 11.8125C31.5 13.1552 30.9666 14.4428 30.0172 15.3922C29.0678 16.3416 27.7802 16.875 26.4375 16.875H25.875V19.125H26.4375C28.3769 19.125 30.2369 18.3546 31.6082 16.9832C32.9796 15.6119 33.75 13.7519 33.75 11.8125C33.75 9.8731 32.9796 8.01314 31.6082 6.64178C30.2369 5.27042 28.3769 4.5 26.4375 4.5ZM7.875 7.875H3.375V3.375H7.875V7.875Z" fill="#CE2832"/>
</svg>
