<svg width="28" height="31" viewBox="0 0 28 31" fill="none" xmlns="http://www.w3.org/2000/svg">
<path d="M6.49999 19.2699V2.49994C6.49999 2.10212 6.34196 1.72058 6.06065 1.43928C5.77935 1.15798 5.39782 0.999941 4.99999 0.999941C4.60217 0.999941 4.22064 1.15798 3.93933 1.43928C3.65803 1.72058 3.49999 2.10212 3.49999 2.49994V19.2699C2.63126 19.5852 1.88068 20.1604 1.35026 20.9172C0.819828 21.674 0.535278 22.5758 0.535278 23.4999C0.535278 24.4241 0.819828 25.3259 1.35026 26.0827C1.88068 26.8395 2.63126 27.4146 3.49999 27.7299V29.4999C3.49999 29.8978 3.65803 30.2793 3.93933 30.5606C4.22064 30.8419 4.60217 30.9999 4.99999 30.9999C5.39782 30.9999 5.77935 30.8419 6.06065 30.5606C6.34196 30.2793 6.49999 29.8978 6.49999 29.4999V27.7299C7.36872 27.4146 8.1193 26.8395 8.64973 26.0827C9.18016 25.3259 9.46471 24.4241 9.46471 23.4999C9.46471 22.5758 9.18016 21.674 8.64973 20.9172C8.1193 20.1604 7.36872 19.5852 6.49999 19.2699ZM4.99999 24.9999C4.70332 24.9999 4.41331 24.912 4.16664 24.7471C3.91996 24.5823 3.72771 24.3481 3.61417 24.074C3.50064 23.7999 3.47094 23.4983 3.52882 23.2073C3.58669 22.9163 3.72955 22.6491 3.93933 22.4393C4.14911 22.2295 4.41639 22.0866 4.70736 22.0288C4.99833 21.9709 5.29993 22.0006 5.57402 22.1141C5.84811 22.2277 6.08238 22.4199 6.2472 22.6666C6.41202 22.9133 6.49999 23.2033 6.49999 23.4999C6.49999 23.8978 6.34196 24.2793 6.06065 24.5606C5.77935 24.8419 5.39782 24.9999 4.99999 24.9999ZM27.5 17.4999C27.4974 16.5715 27.2077 15.6666 26.6706 14.9093C26.1335 14.152 25.3753 13.5794 24.5 13.2699V2.49994C24.5 2.10212 24.342 1.72058 24.0607 1.43928C23.7794 1.15798 23.3978 0.999941 23 0.999941C22.6022 0.999941 22.2206 1.15798 21.9393 1.43928C21.658 1.72058 21.5 2.10212 21.5 2.49994V13.2699C20.6313 13.5852 19.8807 14.1604 19.3503 14.9172C18.8198 15.674 18.5353 16.5758 18.5353 17.4999C18.5353 18.4241 18.8198 19.3259 19.3503 20.0827C19.8807 20.8395 20.6313 21.4146 21.5 21.7299V29.4999C21.5 29.8978 21.658 30.2793 21.9393 30.5606C22.2206 30.8419 22.6022 30.9999 23 30.9999C23.3978 30.9999 23.7794 30.8419 24.0607 30.5606C24.342 30.2793 24.5 29.8978 24.5 29.4999V21.7299C25.3753 21.4205 26.1335 20.8478 26.6706 20.0905C27.2077 19.3332 27.4974 18.4284 27.5 17.4999ZM23 18.9999C22.7033 18.9999 22.4133 18.912 22.1666 18.7471C21.92 18.5823 21.7277 18.3481 21.6142 18.074C21.5006 17.7999 21.4709 17.4983 21.5288 17.2073C21.5867 16.9163 21.7296 16.6491 21.9393 16.4393C22.1491 16.2295 22.4164 16.0866 22.7074 16.0288C22.9983 15.9709 23.2999 16.0006 23.574 16.1141C23.8481 16.2277 24.0824 16.4199 24.2472 16.6666C24.412 16.9133 24.5 17.2033 24.5 17.4999C24.5 17.8978 24.342 18.2793 24.0607 18.5606C23.7794 18.8419 23.3978 18.9999 23 18.9999ZM18.5 5.49994C18.5023 4.67441 18.2775 3.86416 17.8502 3.15784C17.4228 2.45153 16.8094 1.87638 16.0771 1.49534C15.3447 1.1143 14.5217 0.942053 13.698 0.997449C12.8744 1.05285 12.0818 1.33375 11.4071 1.80942C10.7324 2.28509 10.2015 2.9372 9.87261 3.69438C9.5437 4.45155 9.42941 5.28462 9.54225 6.1024C9.65509 6.92018 9.99071 7.69116 10.5124 8.33097C11.0341 8.97078 11.7217 9.45476 12.5 9.72994V29.4999C12.5 29.8978 12.658 30.2793 12.9393 30.5606C13.2206 30.8419 13.6022 30.9999 14 30.9999C14.3978 30.9999 14.7793 30.8419 15.0607 30.5606C15.342 30.2793 15.5 29.8978 15.5 29.4999V9.72994C16.3753 9.42047 17.1335 8.84783 17.6706 8.09054C18.2077 7.33324 18.4974 6.42836 18.5 5.49994ZM14 6.99994C13.7033 6.99994 13.4133 6.91197 13.1666 6.74715C12.92 6.58232 12.7277 6.34805 12.6142 6.07397C12.5006 5.79988 12.4709 5.49828 12.5288 5.20731C12.5867 4.91633 12.7296 4.64906 12.9393 4.43928C13.1491 4.2295 13.4164 4.08664 13.7074 4.02876C13.9983 3.97088 14.2999 4.00059 14.574 4.11412C14.8481 4.22765 15.0824 4.41991 15.2472 4.66659C15.412 4.91326 15.5 5.20327 15.5 5.49994C15.5 5.89777 15.342 6.2793 15.0607 6.5606C14.7793 6.84191 14.3978 6.99994 14 6.99994Z" fill="#CE2832"/>
</svg>
