<svg width="36" height="36" viewBox="0 0 36 36" fill="none" xmlns="http://www.w3.org/2000/svg">
<path d="M18 2.25L4.5 6.75V20.25C4.5 27.7066 10.5434 33.75 18 33.75C25.4566 33.75 31.5 27.7066 31.5 20.25V6.75L18 2.25ZM28.9688 20.25C28.9688 26.3074 24.0574 31.2188 18 31.2188C11.9426 31.2188 7.03125 26.3074 7.03125 20.25V8.64844L18 4.78125L28.9688 8.64844V20.25Z" fill="#CE2832"/>
<path d="M13.3031 16.7027C13.1858 16.5849 13.0464 16.4914 12.8928 16.4276C12.7393 16.3638 12.5747 16.3309 12.4084 16.3309C12.2421 16.3309 12.0775 16.3638 11.9239 16.4276C11.7704 16.4914 11.631 16.5849 11.5137 16.7027C11.3958 16.82 11.3023 16.9595 11.2385 17.113C11.1747 17.2666 11.1419 17.4312 11.1419 17.5975C11.1419 17.7637 11.1747 17.9284 11.2385 18.0819C11.3023 18.2355 11.3958 18.3749 11.5137 18.4922L16.0629 23.0414L16.1367 23.1152C16.2477 23.2264 16.3795 23.3146 16.5246 23.3748C16.6696 23.4349 16.8252 23.4659 16.9822 23.4659C17.1393 23.4659 17.2948 23.4349 17.4399 23.3748C17.585 23.3146 17.7168 23.2264 17.8277 23.1152L25.6852 15.2578C25.7963 15.1469 25.8845 15.0151 25.9447 14.87C26.0049 14.7249 26.0358 14.5694 26.0358 14.4123C26.0358 14.2552 26.0049 14.0997 25.9447 13.9546C25.8845 13.8095 25.7963 13.6778 25.6852 13.5668L25.5867 13.4684C25.4758 13.3572 25.344 13.269 25.1989 13.2088C25.0538 13.1486 24.8983 13.1177 24.7412 13.1177C24.5841 13.1177 24.4286 13.1486 24.2835 13.2088C24.1385 13.269 24.0067 13.3572 23.8957 13.4684L16.9805 20.3801L13.3031 16.7027Z" fill="#CE2832"/>
</svg>
