<svg width="13" height="15" viewBox="0 0 13 15" fill="none" xmlns="http://www.w3.org/2000/svg">
<path d="M3.8002 0.600006C3.55193 0.599876 3.30974 0.676748 3.107 0.820029C2.90426 0.963309 2.75095 1.16594 2.6682 1.40001H1.4002C1.08194 1.40001 0.776711 1.52643 0.551667 1.75148C0.326623 1.97652 0.200195 2.28175 0.200195 2.60001V12.2C0.200195 12.5183 0.326623 12.8235 0.551667 13.0485C0.776711 13.2736 1.08194 13.4 1.4002 13.4H4.4698C4.34942 13.147 4.26797 12.8773 4.2282 12.6H1.4002C1.29411 12.6 1.19237 12.5579 1.11735 12.4828C1.04234 12.4078 1.0002 12.3061 1.0002 12.2V2.60001C1.0002 2.49392 1.04234 2.39218 1.11735 2.31716C1.19237 2.24215 1.29411 2.20001 1.4002 2.20001H2.6682C2.75095 2.43407 2.90426 2.6367 3.107 2.77998C3.30974 2.92326 3.55193 3.00014 3.8002 3.00001H6.2002C6.44846 3.00014 6.69065 2.92326 6.89339 2.77998C7.09613 2.6367 7.24944 2.43407 7.3322 2.20001H8.6002C8.70628 2.20001 8.80802 2.24215 8.88304 2.31716C8.95805 2.39218 9.0002 2.49392 9.0002 2.60001V7.00001H9.8002V2.60001C9.8002 2.28175 9.67377 1.97652 9.44872 1.75148C9.22368 1.52643 8.91846 1.40001 8.6002 1.40001H7.3322C7.24944 1.16594 7.09613 0.963309 6.89339 0.820029C6.69065 0.676748 6.44846 0.599876 6.2002 0.600006H3.8002ZM3.4002 1.80001C3.4002 1.69392 3.44234 1.59218 3.51735 1.51716C3.59237 1.44215 3.69411 1.40001 3.8002 1.40001H6.2002C6.30628 1.40001 6.40802 1.44215 6.48304 1.51716C6.55805 1.59218 6.6002 1.69392 6.6002 1.80001C6.6002 1.90609 6.55805 2.00783 6.48304 2.08285C6.40802 2.15786 6.30628 2.20001 6.2002 2.20001H3.8002C3.69411 2.20001 3.59237 2.15786 3.51735 2.08285C3.44234 2.00783 3.4002 1.90609 3.4002 1.80001ZM6.6002 7.80001C6.17585 7.80001 5.76888 7.96858 5.46882 8.26864C5.16877 8.56869 5.0002 8.97566 5.0002 9.40001V12.6C5.0002 13.0244 5.16877 13.4313 5.46882 13.7314C5.76888 14.0314 6.17585 14.2 6.6002 14.2H10.6002C11.0245 14.2 11.4315 14.0314 11.7316 13.7314C12.0316 13.4313 12.2002 13.0244 12.2002 12.6V9.40001C12.2002 8.97566 12.0316 8.56869 11.7316 8.26864C11.4315 7.96858 11.0245 7.80001 10.6002 7.80001H6.6002ZM6.6002 12.2C6.6002 12.0939 6.64234 11.9922 6.71735 11.9172C6.79237 11.8421 6.89411 11.8 7.0002 11.8H10.2002C10.3063 11.8 10.408 11.8421 10.483 11.9172C10.5581 11.9922 10.6002 12.0939 10.6002 12.2C10.6002 12.3061 10.5581 12.4078 10.483 12.4828C10.408 12.5579 10.3063 12.6 10.2002 12.6H7.0002C6.89411 12.6 6.79237 12.5579 6.71735 12.4828C6.64234 12.4078 6.6002 12.3061 6.6002 12.2ZM6.6002 9.80001C6.6002 9.69392 6.64234 9.59218 6.71735 9.51716C6.79237 9.44215 6.89411 9.40001 7.0002 9.40001H10.2002C10.3063 9.40001 10.408 9.44215 10.483 9.51716C10.5581 9.59218 10.6002 9.69392 10.6002 9.80001C10.6002 9.90609 10.5581 10.0078 10.483 10.0828C10.408 10.1579 10.3063 10.2 10.2002 10.2H7.0002C6.89411 10.2 6.79237 10.1579 6.71735 10.0828C6.64234 10.0078 6.6002 9.90609 6.6002 9.80001Z" fill="#08246C"/>
</svg>
