<svg width="25" height="26" viewBox="0 0 25 26" fill="none" xmlns="http://www.w3.org/2000/svg">
<mask id="mask0_36_191" style="mask-type:alpha" maskUnits="userSpaceOnUse" x="2" y="2" width="21" height="22">
<path fill-rule="evenodd" clip-rule="evenodd" d="M20.3125 13C20.3125 13.3684 20.2813 13.715 20.2396 14.0617L22.4375 15.8492C22.6354 16.0117 22.6875 16.3042 22.5625 16.5425L20.4792 20.2909C20.3542 20.5292 20.0833 20.6267 19.8438 20.5292L17.25 19.4459C16.7083 19.8684 16.125 20.2367 15.4896 20.5075L15.0938 23.3784C15.0625 23.6384 14.8438 23.8334 14.5833 23.8334H10.4167C10.1563 23.8334 9.93752 23.6384 9.90627 23.3784L9.51043 20.5075C8.87502 20.2367 8.29168 19.8792 7.75002 19.4459L5.15627 20.5292C4.9271 20.6159 4.64585 20.5292 4.52085 20.2909L2.43752 16.5425C2.31252 16.3042 2.3646 16.0117 2.56252 15.8492L4.76043 14.0617C4.71877 13.715 4.68752 13.3575 4.68752 13C4.68752 12.6425 4.71877 12.285 4.76043 11.9384L2.56252 10.1509C2.3646 9.98835 2.3021 9.69585 2.43752 9.45752L4.52085 5.70919C4.64585 5.47085 4.91668 5.37335 5.15627 5.47085L7.75002 6.55419C8.29168 6.13169 8.87502 5.76335 9.51043 5.49252L9.90627 2.62169C9.93752 2.36169 10.1563 2.16669 10.4167 2.16669H14.5833C14.8438 2.16669 15.0625 2.36169 15.0938 2.62169L15.4896 5.49252C16.125 5.76335 16.7083 6.12085 17.25 6.55419L19.8438 5.47085C20.0729 5.38419 20.3542 5.47085 20.4792 5.70919L22.5625 9.45752C22.6875 9.69585 22.6354 9.98835 22.4375 10.1509L20.2396 11.9384C20.2813 12.285 20.3125 12.6317 20.3125 13ZM8.85418 13C8.85418 15.0909 10.4896 16.7917 12.5 16.7917C14.5104 16.7917 16.1459 15.0909 16.1459 13C16.1459 10.9092 14.5104 9.20835 12.5 9.20835C10.4896 9.20835 8.85418 10.9092 8.85418 13Z" fill="white"/>
</mask>
<g mask="url(#mask0_36_191)">
<path fill-rule="evenodd" clip-rule="evenodd" d="M0 0H25V26H0V0Z" fill="black"/>
</g>
</svg>
