<svg width="27" height="28" viewBox="0 0 27 28" fill="none" xmlns="http://www.w3.org/2000/svg">
<path d="M4.5 4.66669H22.5V18.6667H7.875L4.5 21V4.66669Z" fill="black"/>
<path d="M6.75 6.99998C6.75 6.35565 7.27233 5.83331 7.91667 5.83331H19.0833C19.7277 5.83331 20.25 6.35565 20.25 6.99998C20.25 7.64431 19.7277 8.16665 19.0833 8.16665H7.91667C7.27233 8.16665 6.75 7.64431 6.75 6.99998ZM6.75 11.6666C6.75 11.0223 7.27233 10.5 7.91667 10.5H15.0333C15.6777 10.5 16.2 11.0223 16.2 11.6666C16.2 12.311 15.6777 12.8333 15.0333 12.8333H7.91667C7.27233 12.8333 6.75 12.311 6.75 11.6666Z" fill="white"/>
<path d="M20.25 16.3333C20.25 16.9777 19.7277 17.5 19.0833 17.5L7.91667 17.5C7.27233 17.5 6.75 16.9777 6.75 16.3333C6.75 15.689 7.27233 15.1667 7.91667 15.1667L19.0833 15.1667C19.7277 15.1667 20.25 15.689 20.25 16.3333Z" fill="white"/>
<path d="M22.5 2.33331H4.5C3.25912 2.33331 2.25 3.37981 2.25 4.66665V25.6666L8.24963 21H22.5C23.7409 21 24.75 19.9535 24.75 18.6666V4.66665C24.75 3.37981 23.7409 2.33331 22.5 2.33331ZM22.5 18.6666H7.50037L4.5 21V4.66665H22.5V18.6666Z" fill="black"/>
</svg>
