<svg width="21" height="22" viewBox="0 0 21 22" fill="none" xmlns="http://www.w3.org/2000/svg">
<path d="M20.16 0H0.84C0.375375 0 0 0.39325 0 0.88V21.12C0 21.6067 0.375375 22 0.84 22H20.16C20.6246 22 21 21.6067 21 21.12V0.88C21 0.39325 20.6246 0 20.16 0ZM8.61525 17.9575H7.28175C7.224 17.9575 7.16362 17.9272 7.12687 17.8777L6.195 16.6815L5.26312 17.8777C5.24495 17.9027 5.2215 17.9229 5.19463 17.9367C5.16776 17.9505 5.13819 17.9576 5.10825 17.9575H3.77475C3.6015 17.9575 3.507 17.7403 3.6225 17.5973L5.26838 15.4852L3.66187 13.4255C3.549 13.2825 3.6435 13.0652 3.81675 13.0652H5.15287C5.21062 13.0652 5.271 13.0955 5.30775 13.145L6.20025 14.289L7.09275 13.145C7.13213 13.0927 7.18725 13.0652 7.24762 13.0652H8.58112C8.75437 13.0652 8.84887 13.2825 8.736 13.4255L7.12687 15.4825L8.77275 17.5945C8.883 17.7402 8.7885 17.9575 8.61525 17.9575ZM8.82 7.4525C8.82 7.513 8.78325 7.5625 8.736 7.5625H6.93V9.45175C6.93 9.504 6.88275 9.5425 6.825 9.5425H5.565C5.50725 9.5425 5.46 9.504 5.46 9.4545V7.5625H3.654C3.60675 7.5625 3.57 7.513 3.57 7.4525V6.1325C3.57 6.072 3.60675 6.0225 3.654 6.0225H5.46V4.1305C5.46 4.081 5.50725 4.0425 5.565 4.0425H6.825C6.88275 4.0425 6.93 4.081 6.93 4.1305V6.0225H8.73338C8.78325 6.0225 8.82 6.072 8.82 6.1325V7.4525ZM17.43 17.6C17.43 17.6605 17.3932 17.71 17.346 17.71H12.264C12.2167 17.71 12.18 17.6605 12.18 17.6V16.28C12.18 16.2195 12.2167 16.17 12.264 16.17H17.3434C17.3932 16.17 17.43 16.2195 17.43 16.28V17.6ZM17.43 14.74C17.43 14.8005 17.3932 14.85 17.346 14.85H12.264C12.2167 14.85 12.18 14.8005 12.18 14.74V13.42C12.18 13.3595 12.2167 13.31 12.264 13.31H17.3434C17.3932 13.31 17.43 13.3595 17.43 13.42V14.74ZM17.43 7.4525C17.43 7.513 17.3932 7.5625 17.346 7.5625H12.264C12.2167 7.5625 12.18 7.513 12.18 7.4525V6.1325C12.18 6.072 12.2167 6.0225 12.264 6.0225H17.3434C17.3932 6.0225 17.43 6.072 17.43 6.1325V7.4525Z" fill="black"/>
</svg>
