<svg width="32" height="32" viewBox="0 0 32 32" fill="none" xmlns="http://www.w3.org/2000/svg">
<g clip-path="url(#clip0_1980_50533)">
<path d="M16.2865 10.4225C13.3112 10.4225 10.9114 12.7848 10.9114 15.7136C10.9114 18.6424 13.3112 21.0047 16.2865 21.0047C19.2617 21.0047 21.6616 18.6424 21.6616 15.7136C21.6616 12.7848 19.2617 10.4225 16.2865 10.4225ZM16.2865 19.1535C14.3638 19.1535 12.792 17.6109 12.792 15.7136C12.792 13.8164 14.3591 12.2737 16.2865 12.2737C18.2139 12.2737 19.781 13.8164 19.781 15.7136C19.781 17.6109 18.2092 19.1535 16.2865 19.1535ZM23.1352 10.2061C23.1352 10.8922 22.5738 11.4402 21.8815 11.4402C21.1844 11.4402 20.6277 10.8876 20.6277 10.2061C20.6277 9.52453 21.1891 8.97193 21.8815 8.97193C22.5738 8.97193 23.1352 9.52453 23.1352 10.2061ZM26.6952 11.4586C26.6157 9.80543 26.2321 8.34105 25.0017 7.13455C23.7761 5.92804 22.2885 5.55044 20.609 5.46755C18.8781 5.37084 13.6902 5.37084 11.9593 5.46755C10.2845 5.54583 8.79691 5.92344 7.56658 7.12994C6.33625 8.33645 5.95732 9.80083 5.87312 11.454C5.77488 13.1578 5.77488 18.2648 5.87312 19.9686C5.95265 21.6218 6.33625 23.0862 7.56658 24.2927C8.79691 25.4992 10.2799 25.8768 11.9593 25.9597C13.6902 26.0564 18.8781 26.0564 20.609 25.9597C22.2885 25.8814 23.7761 25.5038 25.0017 24.2927C26.2274 23.0862 26.611 21.6218 26.6952 19.9686C26.7934 18.2648 26.7934 13.1625 26.6952 11.4586ZM24.4591 21.7968C24.0942 22.6994 23.3878 23.3947 22.4662 23.7585C21.0862 24.2973 17.8115 24.1729 16.2865 24.1729C14.7614 24.1729 11.4821 24.2927 10.1068 23.7585C9.18987 23.3993 8.48348 22.704 8.11391 21.7968C7.56658 20.4383 7.69289 17.2148 7.69289 15.7136C7.69289 14.2124 7.57126 10.9843 8.11391 9.63044C8.4788 8.72787 9.18519 8.03252 10.1068 7.66872C11.4868 7.12994 14.7614 7.25428 16.2865 7.25428C17.8115 7.25428 21.0909 7.13455 22.4662 7.66872C23.3831 8.02791 24.0895 8.72326 24.4591 9.63044C25.0064 10.9889 24.8801 14.2124 24.8801 15.7136C24.8801 17.2148 25.0064 20.4429 24.4591 21.7968Z" fill="white"/>
</g>
<defs>
<clipPath id="clip0_1980_50533">
<rect width="20.9577" height="23.5775" fill="white" transform="translate(5.80298 3.92969)"/>
</clipPath>
</defs>
</svg>
