<svg width="32" height="32" viewBox="0 0 32 32" fill="none" xmlns="http://www.w3.org/2000/svg">
<g clip-path="url(#clip0_1980_50537)">
<path d="M10.4768 24.8872V11.6308H5.9836V24.8872H10.4768ZM8.23079 9.81973C9.79765 9.81973 10.7729 8.80179 10.7729 7.52971C10.7438 6.22894 9.79771 5.23926 8.26052 5.23926C6.72358 5.23926 5.71851 6.22896 5.71851 7.52971C5.71851 8.80185 6.69356 9.81973 8.20146 9.81973H8.23065H8.23079ZM12.9638 24.8872H17.457V17.4841C17.457 17.0879 17.4862 16.6922 17.6049 16.4089C17.9297 15.6173 18.669 14.7975 19.9102 14.7975C21.5361 14.7975 22.1866 16.0131 22.1866 17.7952V24.8871H26.6795V17.286C26.6795 13.2141 24.4628 11.3195 21.5065 11.3195C19.0826 11.3195 18.0184 12.6482 17.4271 13.5531H17.4571V11.6305H12.9639C13.0229 12.8744 12.9639 24.8869 12.9639 24.8869L12.9638 24.8872Z" fill="white"/>
</g>
<defs>
<clipPath id="clip0_1980_50537">
<rect width="20.9577" height="19.6479" fill="white" transform="translate(5.71851 5.23926)"/>
</clipPath>
</defs>
</svg>
