<svg width="32" height="32" viewBox="0 0 32 32" fill="none" xmlns="http://www.w3.org/2000/svg">
<g clip-path="url(#clip0_1980_50541)">
<path d="M27.5913 8.78249C26.7084 9.1551 25.772 9.39969 24.813 9.50811C25.8119 8.93779 26.5788 8.03466 26.9399 6.9586C25.9904 7.49539 24.9516 7.87359 23.8683 8.07687C22.9859 7.18129 21.7288 6.62158 20.3375 6.62158C17.666 6.62158 15.5001 8.68492 15.5001 11.2298C15.5001 11.591 15.543 11.9427 15.6254 12.28C11.6052 12.0878 8.041 10.2532 5.65516 7.46513C5.23887 8.14574 5.00033 8.93744 5.00033 9.78186C5.00033 11.3807 5.85437 12.7911 7.15224 13.6176C6.38408 13.5947 5.63282 13.397 4.96119 13.0411C4.96091 13.0604 4.96091 13.0797 4.96091 13.0991C4.96091 15.3319 6.62828 17.1945 8.84106 17.6178C8.12876 17.8024 7.38159 17.8294 6.65665 17.6968C7.27215 19.5276 9.0586 20.8599 11.1752 20.8972C9.51975 22.1331 7.43397 22.8699 5.16777 22.8699C4.77727 22.8699 4.39229 22.848 4.01385 22.8055C6.15452 24.113 8.69711 24.8759 11.4288 24.8759C20.3262 24.8759 25.1916 17.8538 25.1916 11.7642C25.1916 11.5643 25.187 11.3656 25.1776 11.168C26.1246 10.5158 26.9419 9.708 27.5913 8.78249Z" fill="white"/>
</g>
<defs>
<clipPath id="clip0_1980_50541">
<rect width="23.5775" height="18.338" fill="white" transform="translate(4.01385 6.54932)"/>
</clipPath>
</defs>
</svg>
