<svg width="36" height="36" viewBox="0 0 36 36" fill="none" xmlns="http://www.w3.org/2000/svg">
<path d="M28.3563 2.25H19.7128C19.4441 2.24981 19.1863 2.35598 18.9956 2.54532L1.71563 19.8211C1.33736 20.2012 1.125 20.7157 1.125 21.252C1.125 21.7882 1.33736 22.3027 1.71563 22.6828L9.94219 30.9094C10.3224 31.2877 10.837 31.5001 11.3734 31.5001C11.9098 31.5001 12.4244 31.2877 12.8046 30.9094L30.0797 13.6406C30.269 13.45 30.3752 13.1921 30.375 12.9234V4.275C30.3763 4.00925 30.325 3.74586 30.2241 3.5C30.1232 3.25414 29.9747 3.03067 29.787 2.84246C29.5994 2.65424 29.3764 2.505 29.1309 2.40332C28.8853 2.30164 28.6221 2.24954 28.3563 2.25V2.25Z" stroke="#CE2832" stroke-width="2" stroke-linecap="round" stroke-linejoin="round"/>
<path d="M24.75 10.125C24.305 10.125 23.87 9.99304 23.5 9.74581C23.13 9.49857 22.8416 9.14717 22.6713 8.73604C22.501 8.32491 22.4564 7.87251 22.5432 7.43605C22.6301 6.99959 22.8443 6.59868 23.159 6.28401C23.4737 5.96934 23.8746 5.75505 24.311 5.66823C24.7475 5.58142 25.1999 5.62597 25.611 5.79627C26.0222 5.96657 26.3736 6.25496 26.6208 6.62497C26.868 6.99498 27 7.42999 27 7.875C27 8.47174 26.7629 9.04403 26.341 9.46599C25.919 9.88795 25.3467 10.125 24.75 10.125Z" fill="#CE2832"/>
<path d="M16.1719 33.75L34.5938 15.3281C34.6853 15.2357 34.7574 15.1259 34.8057 15.0051C34.8541 14.8843 34.8776 14.7551 34.875 14.625V5.625" stroke="#CE2832" stroke-width="2" stroke-linecap="round" stroke-linejoin="round"/>
</svg>
