<svg width="26" height="26" viewBox="0 0 26 26" fill="none" xmlns="http://www.w3.org/2000/svg">
<path d="M11.8184 1.48791C12.1798 1.28717 12.5865 1.18182 13 1.18182C13.4135 1.18182 13.8201 1.28717 14.1816 1.48791L23.3268 6.56733C23.5164 6.67276 23.6743 6.82696 23.7843 7.01397C23.8943 7.20097 23.9523 7.41397 23.9522 7.63091V17.6522C23.9521 18.0862 23.836 18.5123 23.6158 18.8863C23.3956 19.2604 23.0795 19.5687 22.7 19.7794L14.1816 24.5132C13.8201 24.714 13.4135 24.8193 13 24.8193C12.5865 24.8193 12.1798 24.714 11.8184 24.5132L3.29994 19.7794C2.92069 19.5688 2.60463 19.2606 2.38447 18.8869C2.16431 18.5131 2.04805 18.0872 2.04773 17.6534V7.63091C2.04772 7.41397 2.10571 7.20097 2.21568 7.01397C2.32566 6.82696 2.48363 6.67276 2.67323 6.56733L11.8196 1.48791H11.8184Z" stroke="#00140E" stroke-width="1.5" stroke-linecap="round" stroke-linejoin="round"/>
<path d="M7.52386 3.87308L18.4761 9.95767V14.2169M5.69849 13.3991L9.34924 15.4338" stroke="#00140E" stroke-width="1.5" stroke-linecap="round" stroke-linejoin="round"/>
<path d="M2.04773 6.91536L13 12.9999M13 12.9999L23.9522 6.91536M13 12.9999V24.5607" stroke="#00140E" stroke-width="1.5" stroke-linejoin="round"/>
</svg>
