<svg width="24" height="23" viewBox="0 0 24 23" fill="none" xmlns="http://www.w3.org/2000/svg">
<path d="M6.35294 2.79026e-07C5.91483 -0.000219826 5.48744 0.129785 5.12966 0.372097C4.77188 0.614409 4.50133 0.9571 4.35529 1.35294H2.11765C1.55601 1.35294 1.01738 1.56675 0.620245 1.94734C0.223109 2.32793 0 2.84412 0 3.38235V19.6176C0 20.1559 0.223109 20.6721 0.620245 21.0527C1.01738 21.4332 1.55601 21.6471 2.11765 21.6471H11.6569C10.7578 20.6029 10.1729 19.3434 9.96532 18.0042C9.75774 16.6651 9.93533 15.297 10.4789 14.0474C11.0226 12.7978 11.9116 11.714 13.0503 10.9128C14.1891 10.1115 15.5343 9.6232 16.9412 9.50035V3.38235C16.9412 2.84412 16.7181 2.32793 16.3209 1.94734C15.9238 1.56675 15.3852 1.35294 14.8235 1.35294H12.5859C12.4398 0.9571 12.1693 0.614409 11.8115 0.372097C11.4537 0.129785 11.0263 -0.000219826 10.5882 2.79026e-07H6.35294ZM5.64706 2.02941C5.64706 1.85 5.72143 1.67794 5.85381 1.55108C5.98619 1.42421 6.16573 1.35294 6.35294 1.35294H10.5882C10.7754 1.35294 10.955 1.42421 11.0874 1.55108C11.2197 1.67794 11.2941 1.85 11.2941 2.02941C11.2941 2.20882 11.2197 2.38089 11.0874 2.50775C10.955 2.63461 10.7754 2.70588 10.5882 2.70588H6.35294C6.16573 2.70588 5.98619 2.63461 5.85381 2.50775C5.72143 2.38089 5.64706 2.20882 5.64706 2.02941ZM12.4998 10.626L7.55859 15.3613C7.49302 15.4243 7.41512 15.4743 7.32937 15.5084C7.24361 15.5425 7.15167 15.56 7.05882 15.56C6.96598 15.56 6.87404 15.5425 6.78828 15.5084C6.70252 15.4743 6.62463 15.4243 6.55906 15.3613L4.44141 13.3319C4.37578 13.269 4.32372 13.1943 4.2882 13.1121C4.25268 13.03 4.2344 12.9419 4.2344 12.8529C4.2344 12.764 4.25268 12.6759 4.2882 12.5937C4.32372 12.5116 4.37578 12.4369 4.44141 12.374C4.57396 12.247 4.75373 12.1756 4.94118 12.1756C5.03399 12.1756 5.1259 12.1931 5.21165 12.2272C5.2974 12.2612 5.37531 12.3111 5.44094 12.374L7.05882 13.9258L11.5002 9.66812C11.6328 9.54109 11.8126 9.46973 12 9.46973C12.1874 9.46973 12.3672 9.54109 12.4998 9.66812C12.6323 9.79514 12.7068 9.96742 12.7068 10.1471C12.7068 10.3267 12.6323 10.499 12.4998 10.626ZM24 16.9118C24 18.5265 23.3307 20.075 22.1393 21.2168C20.9479 22.3586 19.332 23 17.6471 23C15.9622 23 14.3463 22.3586 13.1549 21.2168C11.9634 20.075 11.2941 18.5265 11.2941 16.9118C11.2941 15.2971 11.9634 13.7485 13.1549 12.6067C14.3463 11.465 15.9622 10.8235 17.6471 10.8235C19.332 10.8235 20.9479 11.465 22.1393 12.6067C23.3307 13.7485 24 15.2971 24 16.9118ZM18.3529 14.2059C18.3529 14.0265 18.2786 13.8544 18.1462 13.7275C18.0138 13.6007 17.8343 13.5294 17.6471 13.5294C17.4598 13.5294 17.2803 13.6007 17.1479 13.7275C17.0155 13.8544 16.9412 14.0265 16.9412 14.2059V16.2353H14.8235C14.6363 16.2353 14.4568 16.3066 14.3244 16.4334C14.192 16.5603 14.1176 16.7324 14.1176 16.9118C14.1176 17.0912 14.192 17.2632 14.3244 17.3901C14.4568 17.517 14.6363 17.5882 14.8235 17.5882H16.9412V19.6176C16.9412 19.7971 17.0155 19.9691 17.1479 20.096C17.2803 20.2228 17.4598 20.2941 17.6471 20.2941C17.8343 20.2941 18.0138 20.2228 18.1462 20.096C18.2786 19.9691 18.3529 19.7971 18.3529 19.6176V17.5882H20.4706C20.6578 17.5882 20.8373 17.517 20.9697 17.3901C21.1021 17.2632 21.1765 17.0912 21.1765 16.9118C21.1765 16.7324 21.1021 16.5603 20.9697 16.4334C20.8373 16.3066 20.6578 16.2353 20.4706 16.2353H18.3529V14.2059Z" fill="black"/>
</svg>
