<svg width="23" height="25" viewBox="0 0 23 25" fill="none" xmlns="http://www.w3.org/2000/svg">
<path d="M10.5 25C11.9487 25 13.1238 23.7689 13.1238 22.25H7.87623C7.87623 23.7689 9.05132 25 10.5 25ZM19.3344 18.5671C18.5419 17.6751 17.0592 16.3332 17.0592 11.9375C17.0592 8.59883 14.8247 5.92617 11.8117 5.27047V4.375C11.8117 3.61574 11.2243 3 10.5 3C9.77566 3 9.18832 3.61574 9.18832 4.375V5.27047C6.17531 5.92617 3.94078 8.59883 3.94078 11.9375C3.94078 16.3332 2.45806 17.6751 1.66564 18.5671C1.41955 18.8443 1.31045 19.1756 1.3125 19.5C1.31701 20.2047 1.84488 20.875 2.6291 20.875H18.3709C19.1551 20.875 19.6834 20.2047 19.6875 19.5C19.6895 19.1756 19.5804 18.8439 19.3344 18.5671Z" fill="black"/>
<path d="M17.0625 10.625C19.6838 10.625 21.75 8.40913 21.75 5.75C21.75 3.09087 19.6838 0.875 17.0625 0.875C14.4412 0.875 12.375 3.09087 12.375 5.75C12.375 8.40913 14.4412 10.625 17.0625 10.625Z" fill="black" stroke="white" stroke-width="1.5"/>
</svg>
