<svg width="38" height="38" viewBox="0 0 38 38" fill="none" xmlns="http://www.w3.org/2000/svg">
<mask id="mask0_36_196" style="mask-type:alpha" maskUnits="userSpaceOnUse" x="3" y="3" width="32" height="32">
<path fill-rule="evenodd" clip-rule="evenodd" d="M18.9999 3.3949C10.3857 3.3949 3.39453 10.3861 3.39453 19.0002C3.39453 27.6144 10.3857 34.6056 18.9999 34.6056C27.614 34.6056 34.6052 27.6144 34.6052 19.0002C34.6052 10.3861 27.614 3.3949 18.9999 3.3949ZM18.9999 8.0765C21.5904 8.0765 23.6815 10.1676 23.6815 12.7581C23.6815 15.3486 21.5904 17.4397 18.9999 17.4397C16.4094 17.4397 14.3183 15.3486 14.3183 12.7581C14.3183 10.1676 16.4094 8.0765 18.9999 8.0765ZM9.63666 25.2112C11.6498 28.2386 15.0985 30.2361 18.9999 30.2361C22.9012 30.2361 26.35 28.2386 28.3631 25.2112C28.3162 22.1057 22.1053 20.4047 18.9999 20.4047C15.8788 20.4047 9.68348 22.1057 9.63666 25.2112Z" fill="white"/>
</mask>
<g mask="url(#mask0_36_196)">
<path fill-rule="evenodd" clip-rule="evenodd" d="M0.273438 0.273804H37.7262V37.7266H0.273438V0.273804Z" fill="black"/>
</g>
</svg>
