<svg xmlns="http://www.w3.org/2000/svg" viewBox="0 0 863.26 138.16"><defs><style>.cls-1{fill:#e30016;}.cls-1,.cls-3{fill-rule:evenodd;}.cls-2,.cls-6,.cls-8{fill:none;}.cls-2,.cls-6{stroke:#e30016;}.cls-2{stroke-width:0.16px;}.cls-3{fill:#0f1747;}.cls-4{font-size:51.87px;font-family:DejaVuSans-Bold, DejaVu Sans;font-weight:700;letter-spacing:-0.02em;}.cls-4,.cls-7{fill:#002650;}.cls-5{letter-spacing:0em;}.cls-6,.cls-8{stroke-width:1.44px;}.cls-7{font-size:41.63px;font-family:Kalam-Regular, Kalam;}.cls-8{stroke:#002650;}</style></defs><g id="Layer_2" data-name="Layer 2"><g id="Layer_1-2" data-name="Layer 1"><path class="cls-1" d="M98.5,94.6c-6.34,9.74-22.07,18.35-39.43,18a52.5,52.5,0,0,1-22.48-5.75c-5.86-3-13.94-9-15.52-13.45-2.36-1.14-3-3.85-5.1-6.26-3.94,1.63-5,3.33-8.6,6.48C11,103.44,25.86,114.5,36.12,119c42.29,18.53,93.77-17.14,85.26-67.13-1.76-10.34-8.28-25.3-15.15-31.48C100,14.78,96.58,10.29,86.46,5.84,70.81-1,57-1.66,41,3.47c-8.6,2.75-7.2,1.65-13.56,6.16A25.7,25.7,0,0,1,25.27,11l-1.33.8c-4.34,2.62-7,2.58-8.42,4.64-1.2,1.71.38.71-1.85,3.41l-3.06,4.36c-1.69,1.92-2.81,1.94-6,7.81C3,35,4.33,35,2,37.57c0,0-1.4.18-1.89,3.47L2,40.37c2.5-1.59.48-.81,3.21-4,1.68-1.95-.2-.45,2-2C7,36.54,6.3,38.21,6,40.07c-.49,3.11-.44,1,.28,2.63L8,45.13c1-3.35,3.7-7.39,4.34-9.9.36-1.38-.33-.78,1.55-3.28,1.76-2.33,2.37-3.13,4.88-3l-3.27,6C13.86,37.15,9.91,48.35,9.78,54.8,15.19,38.44,17.75,29.62,34,19,75.5-8.13,129.72,38.55,104.79,86.23,103.77,88.18,100.24,94,98.5,94.6Z"/><path class="cls-2" d="M98.5,94.6c-6.34,9.74-22.07,18.35-39.43,18a52.5,52.5,0,0,1-22.48-5.75c-5.86-3-13.94-9-15.52-13.45-2.36-1.14-3-3.85-5.1-6.26-3.94,1.63-5,3.33-8.6,6.48C11,103.44,25.86,114.5,36.12,119c42.29,18.53,93.77-17.14,85.26-67.13-1.76-10.34-8.28-25.3-15.15-31.48C100,14.78,96.58,10.29,86.46,5.84,70.81-1,57-1.66,41,3.47c-8.6,2.75-7.2,1.65-13.56,6.16A25.7,25.7,0,0,1,25.27,11l-1.33.8c-4.34,2.62-7,2.58-8.42,4.64-1.2,1.71.38.71-1.85,3.41l-3.06,4.36c-1.69,1.92-2.81,1.94-6,7.81C3,35,4.33,35,2,37.57c0,0-1.4.18-1.89,3.47L2,40.37c2.5-1.59.48-.81,3.21-4,1.68-1.95-.2-.45,2-2C7,36.54,6.3,38.21,6,40.07c-.49,3.11-.44,1,.28,2.63L8,45.13c1-3.35,3.7-7.39,4.34-9.9.36-1.38-.33-.78,1.55-3.28,1.76-2.33,2.37-3.13,4.88-3l-3.27,6C13.86,37.15,9.91,48.35,9.78,54.8,15.19,38.44,17.75,29.62,34,19,75.5-8.13,129.72,38.55,104.79,86.23,103.77,88.18,100.24,94,98.5,94.6Z"/><path class="cls-3" d="M29.13,88.08c11.38,3.27,22,2.13,26.92-6A253.3,253.3,0,0,0,68.52,57.38c2.92,2.49,13.39,27.79,15.94,32.82l12.36.1c-7.72-15.49-15.56-33.86-23-48.47-2.24-4.4-4.13-11.1-8.2-2.81L57,55.67l-.31-20.13-22.25-.15-.24,9.75,11.31.13c.54,3.91.57,23.31,0,27.07-1.19,8-11.82,10.39-14.16-.34l-10.77,0a19.36,19.36,0,0,0,2.42,9.62C25.42,86,27.28,85.51,29.13,88.08Z"/><text class="cls-4" transform="translate(176.65 58.05)">J<tspan class="cls-5" x="18.37" y="0">AMEX AUCTION HOUSE</tspan></text><line class="cls-6" x1="863.2" y1="104.98" x2="784.55" y2="104.98"/><text class="cls-7" transform="translate(282.7 118.56)">we keep you a step forward</text><line class="cls-8" x1="863.26" y1="107.26" x2="784.6" y2="107.26"/><line class="cls-6" x1="264.69" y1="104.98" x2="177.94" y2="104.98"/><line class="cls-8" x1="264.75" y1="107.26" x2="178" y2="107.26"/></g></g></svg>