<svg width="17" height="12" viewBox="0 0 17 12" fill="none" xmlns="http://www.w3.org/2000/svg">
<g clip-path="url(#clip0_864_43423)">
<path d="M0.0809937 2.18182H16.919C16.6653 0.923182 15.8023 0 14.3437 0H2.65623C1.19768 0 0.334666 0.923182 0.0809937 2.18182" fill="#25333A"/>
<path d="M3.98656e-06 3.00007V4.09098H17V3.00007C17.0004 2.72521 16.9732 2.45104 16.919 2.18188H0.0810196C0.0267695 2.45104 -0.000378546 2.72521 3.98656e-06 3.00007" fill="#F9CB38"/>
<path d="M0 4.09082H17V5.99991H0V4.09082Z" fill="#C32129"/>
<path d="M0 6H17V7.90909H0V6Z" fill="#25333A"/>
<path d="M2.14844e-05 9.00009C-0.000361048 9.27495 0.026787 9.54912 0.0810371 9.81827H16.919C16.9716 9.55782 16.9998 9.284 16.9998 9.00009V7.90918H-0.000244141V9.00009" fill="#F9CB38"/>
<path d="M16.919 9.81812H0.0809937C0.334666 11.0768 1.19768 11.9999 2.65623 11.9999H14.3437C15.8023 11.9999 16.6653 11.0768 16.919 9.81812Z" fill="#C32129"/>
<path d="M10.378 6.00557C10.3777 6.51253 10.1814 6.99864 9.83231 7.35711C9.48317 7.71558 9.00972 7.9171 8.51596 7.91739C8.27144 7.91739 8.02931 7.86794 7.80339 7.77186C7.57748 7.67578 7.37221 7.53496 7.19931 7.35743C7.0264 7.1799 6.88925 6.96914 6.79567 6.73719C6.70209 6.50524 6.65393 6.25663 6.65393 6.00557C6.65393 5.7545 6.70209 5.5059 6.79567 5.27395C6.88925 5.04199 7.0264 4.83124 7.19931 4.65371C7.37221 4.47618 7.57748 4.33536 7.80339 4.23928C8.02931 4.1432 8.27144 4.09375 8.51596 4.09375C8.76052 4.09364 9.0027 4.14302 9.22865 4.23906C9.45461 4.3351 9.65992 4.47592 9.83285 4.65347C10.0058 4.83102 10.1429 5.04182 10.2365 5.27382C10.33 5.50582 10.3781 5.75447 10.378 6.00557" fill="#E6E7E8"/>
<path fill-rule="evenodd" clip-rule="evenodd" d="M8.84796 6.46952C8.95156 6.46625 9.05674 6.46407 9.14998 6.52489C9.16884 6.49789 9.14785 6.47852 9.13564 6.45861C9.09446 6.38389 9.02753 6.33098 8.97148 6.2688C8.88852 6.19543 8.78987 6.1432 8.68354 6.11634C8.62132 6.10153 8.56325 6.07223 8.51381 6.03071C8.38551 5.92216 8.35178 5.71107 8.44262 5.58371C8.45192 5.55807 8.42057 5.56516 8.41659 5.54961C8.4142 5.52043 8.41101 5.49152 8.40889 5.46316C8.3956 5.2908 8.40729 5.1288 8.54728 5.0028C8.60731 4.94961 8.63706 4.87216 8.64449 4.7898C8.64715 4.76552 8.64821 4.74452 8.67743 4.74207C8.67903 4.73198 8.67345 4.72461 8.66654 4.71834C8.65026 4.70497 8.63732 4.6878 8.62882 4.66825C8.62032 4.6487 8.61649 4.62735 8.61767 4.60598C8.61597 4.60151 8.61296 4.5977 8.60906 4.59506C8.60515 4.59242 8.60055 4.59109 8.59589 4.59125C8.58712 4.59125 8.57676 4.59425 8.56985 4.59016C8.50849 4.56125 8.45006 4.52607 8.37967 4.52225C8.3547 4.52116 8.35523 4.49552 8.35337 4.47507C8.34779 4.43061 8.36426 4.38725 8.36054 4.34225C8.3583 4.33555 8.35457 4.32948 8.34965 4.32452C8.34009 4.32043 8.33053 4.32207 8.3207 4.32807C8.31587 4.33274 8.31238 4.33869 8.3106 4.34525C8.30396 4.37361 8.30317 4.4028 8.29998 4.43061C8.2952 4.49607 8.28803 4.55852 8.21631 4.58498C8.2001 4.59834 8.20382 4.62289 8.19107 4.63707C8.17331 4.6566 8.16058 4.68037 8.15404 4.70623C8.1475 4.7321 8.14735 4.75923 8.15362 4.78516C8.16318 4.82307 8.14645 4.82989 8.11962 4.83834C8.04949 4.86289 7.97379 4.87652 7.91748 4.93216C7.92943 4.94771 7.94617 4.95152 7.96503 4.94961C7.98495 4.94743 8.00115 4.9338 8.01948 4.92861C8.03807 4.92725 8.05534 4.92643 8.07473 4.92098C8.05481 4.92861 8.03542 4.92561 8.01815 4.93107C8.00726 4.93734 7.99053 4.93789 7.99318 4.95725C8.0147 4.97443 8.0386 4.96816 8.06198 4.96325C8.08881 4.95998 8.11457 4.95834 8.14007 4.95452C8.16185 4.95207 8.15176 4.96625 8.15229 4.97443C8.15096 4.97443 8.1499 4.97607 8.14884 4.97961C8.14724 4.98343 8.14778 4.98643 8.15176 4.9908C8.16106 4.9938 8.16929 4.99134 8.17806 4.98971C8.21179 4.98125 8.23437 4.99789 8.24287 5.02925C8.25323 5.06334 8.22374 5.07507 8.2001 5.08543C8.18496 5.0928 8.16637 5.09416 8.15229 5.10534C8.15096 5.10534 8.1499 5.10725 8.14937 5.11107C8.14724 5.11489 8.14937 5.11843 8.15229 5.12252C8.16903 5.15252 8.13848 5.16207 8.12626 5.17516C8.03409 5.27852 7.95679 5.39143 7.90792 5.52343C7.83009 5.73371 7.84868 5.93743 8.00593 6.09725C8.09412 6.18725 8.19081 6.27834 8.31034 6.33534C8.43067 6.39371 8.51965 6.47825 8.50717 6.63207C8.50425 6.65424 8.50425 6.67672 8.50717 6.69889C8.5154 6.75807 8.4907 6.76925 8.43704 6.76407C8.29387 6.75098 8.1491 6.73925 8.00567 6.76925C7.83434 6.80471 7.76076 6.95361 7.82796 7.1268C7.84656 7.08425 7.86515 7.04416 7.88454 6.99998C7.89889 7.04361 7.89942 7.08889 7.94165 7.11889C7.9459 7.08534 7.94749 7.0567 7.95148 7.02943C7.95626 7.00107 7.95679 6.9708 7.97671 6.94571L7.98203 6.96589C7.99318 6.99916 7.98734 7.05371 8.0232 7.05671C8.06224 7.06025 8.05906 7.00434 8.07181 6.97407C8.11165 6.87943 8.14618 6.85298 8.23942 6.86252C8.3122 6.87016 8.38365 6.87534 8.45537 6.87398C8.48193 6.87234 8.49415 6.87861 8.49628 6.90834C8.51195 7.04852 8.52656 7.18871 8.53399 7.3308C8.53506 7.36625 8.5239 7.37471 8.49043 7.3728C8.38762 7.36412 8.28418 7.3773 8.18656 7.41152C8.15548 7.42325 8.12068 7.43389 8.11218 7.47971C8.18709 7.48571 8.2604 7.46989 8.33504 7.49471C8.30131 7.54189 8.2604 7.57925 8.25456 7.63625C8.25296 7.6518 8.25031 7.67089 8.26332 7.68043C8.28112 7.69052 8.28989 7.66925 8.29971 7.66025C8.40516 7.56853 8.5337 7.50925 8.67053 7.48925C8.75154 7.47616 8.83203 7.48489 8.91995 7.48352C8.85992 7.39325 8.77359 7.38534 8.68992 7.37498C8.6684 7.37252 8.64582 7.37716 8.64237 7.34443C8.63095 7.20534 8.61156 7.06734 8.61554 6.92852C8.61687 6.8838 8.63812 6.86307 8.67982 6.86416C8.74065 6.86689 8.80228 6.86989 8.86257 6.87507C8.90295 6.87971 8.92367 6.85734 8.93615 6.82325C8.94996 6.78752 8.94279 6.75398 8.92048 6.72234C8.87811 6.66529 8.84542 6.6013 8.82379 6.53307C8.81875 6.5088 8.80546 6.47034 8.84796 6.46952M8.69523 6.79625C8.66335 6.79216 8.60943 6.82216 8.61156 6.75016C8.61262 6.68443 8.61209 6.61816 8.61209 6.5418C8.69098 6.59143 8.74039 6.65334 8.75579 6.74198C8.76349 6.79107 8.7287 6.80061 8.69523 6.79625Z" fill="black"/>
<path fill-rule="evenodd" clip-rule="evenodd" d="M9.269 7.01335L9.26714 7.01525C9.26953 6.97707 9.303 6.96071 9.31814 6.93126C9.3022 6.94516 9.28706 6.96289 9.26554 6.97025C9.24031 6.97762 9.22145 6.97598 9.22915 6.94025C9.22968 6.93371 9.23686 6.9288 9.2334 6.92089C9.22986 6.92263 9.22641 6.92454 9.22304 6.92662L9.20153 6.93726C9.18479 6.94107 9.16886 6.94816 9.15106 6.94707C9.12051 6.9408 9.14389 6.90835 9.12954 6.89526C9.12636 6.8778 9.14043 6.8688 9.15 6.85735C9.14548 6.83389 9.16222 6.83225 9.17736 6.8298C9.20498 6.82162 9.21003 6.79162 9.22729 6.77416C9.23966 6.76216 9.2496 6.74776 9.25653 6.7318C9.26345 6.71584 9.26724 6.69863 9.26767 6.68116L9.26661 6.67735L9.26979 6.6738C9.29768 6.61135 9.26607 6.54862 9.27537 6.48644C9.27325 6.5148 9.27404 6.54316 9.26687 6.57071C9.25837 6.59335 9.23898 6.60807 9.23261 6.6318C9.22278 6.63944 9.21508 6.65444 9.19887 6.64216C9.19618 6.59591 9.1865 6.55037 9.17018 6.50716C9.16461 6.49571 9.16062 6.48371 9.15557 6.47307C9.14682 6.44426 9.13265 6.41748 9.11387 6.39425C9.0694 6.34496 9.02315 6.29738 8.97522 6.25162C8.95397 6.23553 8.93484 6.21807 8.90934 6.20853C8.90415 6.20644 8.89938 6.20339 8.89526 6.19953C8.88437 6.18235 8.86392 6.17335 8.85754 6.15289C8.85882 6.14727 8.86179 6.14221 8.86604 6.13844C8.87937 6.13283 8.89361 6.12987 8.90801 6.12971C8.91279 6.12971 8.92129 6.13189 8.92289 6.12589C8.92528 6.11853 8.91572 6.11471 8.9112 6.10816C8.9091 6.10279 8.90802 6.09705 8.90801 6.09125C8.91731 6.06235 8.94015 6.06398 8.9622 6.06698C8.98504 6.07325 9.00922 6.07871 9.031 6.08607C9.0387 6.08471 9.0549 6.10271 9.05251 6.07625C9.04428 6.05825 9.02967 6.04107 9.04587 6.02062C9.05108 6.01692 9.05702 6.01446 9.06327 6.01342C9.06952 6.01238 9.07592 6.01279 9.082 6.01462C9.11653 6.02716 9.14761 6.04707 9.17948 6.0648C9.18639 6.06371 9.19117 6.07353 9.19887 6.06944C9.19542 6.06862 9.19223 6.06671 9.18745 6.0648C9.18267 6.06289 9.17789 6.05989 9.17311 6.05689C9.16847 6.05314 9.16461 6.04849 9.16173 6.0432C9.15886 6.03791 9.15704 6.03209 9.15637 6.02607C9.15372 5.99689 9.12954 5.98135 9.11387 5.96035C9.10245 5.94344 9.07961 5.92489 9.1144 5.90744C9.12376 5.90503 9.13356 5.90522 9.14282 5.90798C9.19223 5.92598 9.23686 5.95353 9.28573 5.97125C9.3184 5.9658 9.32318 6.00698 9.34895 6.01216C9.37153 6.01598 9.38773 6.03371 9.40739 6.0438C9.42002 6.05521 9.43545 6.06285 9.45201 6.06589L9.45095 6.0648C9.47645 6.10407 9.51497 6.12916 9.53967 6.16762C9.56464 6.20116 9.5827 6.24016 9.6082 6.27262L9.60953 6.27589C9.61006 6.30998 9.62626 6.34162 9.62945 6.37571C9.63476 6.42262 9.64273 6.4698 9.63051 6.51671C9.6329 6.54971 9.61936 6.57916 9.6159 6.61216C9.59174 6.68266 9.5629 6.75136 9.52957 6.8178L9.51922 6.82844C9.50779 6.85407 9.48309 6.87016 9.47539 6.89853C9.47087 6.90262 9.46742 6.90753 9.46317 6.91271C9.43209 6.93835 9.40606 6.9708 9.37365 6.99589L9.37418 6.9948C9.34311 7.01716 9.31203 7.04225 9.27537 7.05507C9.23075 7.04798 9.26554 7.02862 9.269 7.01335" fill="#D80000"/>
<path fill-rule="evenodd" clip-rule="evenodd" d="M8.96618 6.28105C8.87072 6.20735 8.76245 6.15302 8.64716 6.12096C8.45113 6.06369 8.34037 5.87414 8.37729 5.67014C8.38473 5.63223 8.39482 5.59023 8.44104 5.57823C8.46813 5.56241 8.48806 5.57878 8.50851 5.59405L8.53534 5.59569C8.54968 5.61096 8.56801 5.61832 8.58474 5.62869C8.60702 5.63485 8.62776 5.64582 8.64557 5.66087C8.66549 5.65187 8.67851 5.66496 8.69285 5.67559C8.71331 5.69087 8.73615 5.7015 8.75846 5.71132C8.77546 5.7225 8.79352 5.73069 8.81106 5.73914C8.83656 5.75496 8.86524 5.76232 8.89021 5.77732C8.92023 5.79205 8.94891 5.81005 8.98079 5.8185C9.00549 5.8406 9.04879 5.8346 9.0626 5.87387C9.05676 5.88932 9.04612 5.90235 9.03232 5.91096C9.01399 5.91887 8.99513 5.91396 8.97707 5.9085C8.95715 5.90223 8.93723 5.89432 8.91704 5.8875C8.8956 5.87797 8.87265 5.87251 8.8493 5.87141C8.83771 5.86947 8.82671 5.8648 8.81716 5.85778C8.79763 5.84095 8.77556 5.82751 8.75182 5.81796C8.72659 5.80323 8.70002 5.79587 8.67346 5.78387C8.65775 5.77663 8.64149 5.7707 8.62485 5.76614C8.59563 5.75578 8.5688 5.75687 8.54596 5.78305C8.54277 5.78741 8.53879 5.7915 8.5356 5.79614C8.51754 5.83269 8.51409 5.86678 8.55021 5.8946C8.5688 5.90987 8.58926 5.92187 8.60626 5.93905C8.62523 5.9626 8.65199 5.97814 8.68143 5.98269C8.68998 5.98479 8.69827 5.9879 8.70613 5.99196C8.73402 6.02223 8.75474 6.05769 8.79246 6.0765C8.80593 6.08171 8.81784 6.09046 8.82699 6.10187C8.83762 6.11905 8.84373 6.13869 8.85409 6.1556C8.87002 6.17087 8.89154 6.1796 8.90323 6.20005L8.90163 6.1995C8.93404 6.20741 8.95396 6.23714 8.98265 6.25214C8.9861 6.2576 8.98849 6.26305 8.98743 6.26987C8.98238 6.27887 8.9776 6.2865 8.96618 6.28105" fill="#9BA49B"/>
<path fill-rule="evenodd" clip-rule="evenodd" d="M8.60119 4.59752C8.58844 4.61361 8.57834 4.62615 8.55576 4.60652C8.50377 4.562 8.43713 4.53965 8.36956 4.54406C8.33742 4.54652 8.33344 4.53234 8.33636 4.50534C8.34141 4.45052 8.34539 4.3957 8.34964 4.34006C8.39506 4.31443 8.4357 4.33434 8.479 4.34743C8.48965 4.34589 8.50051 4.34678 8.51079 4.35003C8.52107 4.35328 8.53053 4.35882 8.5385 4.36624L8.54036 4.36734C8.56798 4.36624 8.59083 4.3807 8.61314 4.39652C8.62855 4.4077 8.64528 4.41779 8.66281 4.4257C8.66547 4.42815 8.666 4.43006 8.66414 4.43224C8.68592 4.44943 8.69734 4.47043 8.68167 4.49552C8.65962 4.53343 8.64395 4.57679 8.60119 4.59752Z" fill="#FADA04"/>
<path fill-rule="evenodd" clip-rule="evenodd" d="M8.32465 4.34166C8.3212 4.40166 8.31801 4.46111 8.3127 4.52084C8.30792 4.57866 8.24921 4.57048 8.21946 4.5983C8.17723 4.5773 8.17617 4.52357 8.14164 4.49657V4.4952C8.13393 4.47366 8.12836 4.45048 8.11614 4.4303C8.10578 4.4123 8.09993 4.3943 8.12171 4.38011L8.12118 4.38066C8.14456 4.38066 8.15837 4.35693 8.18175 4.35502C8.20273 4.34793 8.22371 4.33784 8.24496 4.3343C8.27232 4.33293 8.30075 4.31793 8.32465 4.34166M8.66386 4.73057C8.61843 4.7022 8.59187 4.66675 8.61259 4.60948C8.61976 4.58711 8.63092 4.56584 8.64393 4.54539C8.69414 4.46711 8.70157 4.46711 8.75682 4.54675L8.75815 4.5503C8.77754 4.57866 8.79321 4.60893 8.80198 4.64302C8.80995 4.66893 8.81181 4.69266 8.77993 4.7033C8.76982 4.70923 8.75945 4.71469 8.74886 4.71966C8.72096 4.72811 8.69254 4.72648 8.66386 4.73057" fill="#D50000"/>
<path fill-rule="evenodd" clip-rule="evenodd" d="M8.15469 4.99379C8.17328 4.98397 8.18072 4.94497 8.21127 4.9657C8.23597 4.98179 8.26758 4.99679 8.26891 5.03143C8.2713 5.06197 8.25005 5.08297 8.2211 5.09497C8.19985 5.10397 8.17727 5.11515 8.15336 5.10506C8.1345 5.10097 8.12839 5.08052 8.11511 5.06797C8.11564 5.06334 8.11564 5.05925 8.11564 5.05488C8.1345 5.03797 8.13291 5.00852 8.15469 4.99379Z" fill="#D30000"/>
<path fill-rule="evenodd" clip-rule="evenodd" d="M8.96619 6.28088C8.97055 6.27634 8.97516 6.27206 8.98 6.26807C9.04401 6.28934 9.07403 6.35125 9.11865 6.39543C9.13751 6.41834 9.14708 6.44807 9.16912 6.46961C9.17178 6.47616 9.17337 6.48325 9.17603 6.49007C9.18161 6.51434 9.19887 6.54379 9.15186 6.53725C9.1504 6.53476 9.14924 6.53211 9.14841 6.52934L9.15 6.5247C9.11414 6.42407 9.03392 6.35725 8.96619 6.28088Z" fill="#868D85"/>
<path fill-rule="evenodd" clip-rule="evenodd" d="M9.20205 6.92369C9.20674 6.92047 9.21153 6.91737 9.21639 6.91442C9.22941 6.91905 9.23764 6.92696 9.24109 6.9406C9.23684 6.9556 9.22781 6.97605 9.2565 6.95914C9.28678 6.9406 9.31547 6.91933 9.34973 6.90405C9.32936 6.94606 9.30142 6.98373 9.26739 7.01505C9.25889 6.98042 9.1978 7.0036 9.20337 6.95342C9.19514 6.94414 9.19514 6.93324 9.20205 6.92369" fill="#231010"/>
<path fill-rule="evenodd" clip-rule="evenodd" d="M9.03387 5.90331C9.03068 5.88559 9.0344 5.87304 9.05592 5.87495C9.06707 5.86731 9.07743 5.86895 9.08859 5.8755C9.09789 5.87713 9.10904 5.87304 9.11303 5.88668C9.1194 5.89595 9.1194 5.90468 9.1117 5.91368C9.0955 5.94886 9.138 5.94886 9.14517 5.97068C9.15154 5.98922 9.18846 5.9974 9.16562 6.02959C9.121 6.00586 9.09018 5.9595 9.03918 5.94204C9.02537 5.93195 9.02909 5.91804 9.03387 5.90331" fill="#1B0A0A"/>
<path fill-rule="evenodd" clip-rule="evenodd" d="M9.25067 6.57543C9.25439 6.5277 9.25784 6.48106 9.26183 6.43579C9.30645 6.47915 9.31176 6.61988 9.26953 6.67279C9.27006 6.66325 9.27006 6.65397 9.27006 6.6447C9.28334 6.62206 9.26634 6.59806 9.27378 6.57516C9.2767 6.56779 9.27351 6.56315 9.27378 6.57161C9.27378 6.5757 9.26926 6.57843 9.26448 6.57979C9.25837 6.58143 9.25439 6.57897 9.25067 6.57543" fill="#1B0202"/>
<path fill-rule="evenodd" clip-rule="evenodd" d="M8.75685 4.54637C8.68991 4.49046 8.69098 4.49046 8.64157 4.56737C8.63307 4.58183 8.62218 4.59546 8.61262 4.6091C8.60849 4.60554 8.60466 4.60162 8.6012 4.59737C8.61979 4.56546 8.63679 4.53274 8.65831 4.50328C8.67663 4.47901 8.67823 4.45801 8.66388 4.43237C8.71302 4.45528 8.74038 4.49646 8.75685 4.54637" fill="#1D0D07"/>
<path fill-rule="evenodd" clip-rule="evenodd" d="M9.15208 6.53742C9.19272 6.53987 9.16722 6.50578 9.17625 6.49023C9.21901 6.53551 9.20042 6.59142 9.20467 6.64351C9.19059 6.64733 9.18236 6.64542 9.18767 6.62714C9.1975 6.5876 9.14544 6.57587 9.15208 6.53742" fill="#100606"/>
<path fill-rule="evenodd" clip-rule="evenodd" d="M9.5293 6.8171C9.54284 6.74564 9.58428 6.68564 9.60739 6.61746C9.6127 6.61119 9.61695 6.61064 9.62173 6.61746C9.59969 6.68837 9.58162 6.76173 9.5293 6.8171Z" fill="#241111"/>
<path fill-rule="evenodd" clip-rule="evenodd" d="M9.62623 6.52301C9.62415 6.46948 9.62274 6.41593 9.62198 6.36237C9.61667 6.34874 9.62252 6.34601 9.63341 6.34846C9.6443 6.40601 9.65891 6.4641 9.63792 6.52301C9.63367 6.52874 9.63022 6.52874 9.62623 6.52301" fill="#0A0303"/>
<path fill-rule="evenodd" clip-rule="evenodd" d="M9.28547 5.97091C9.23128 5.966 9.1848 5.93954 9.13593 5.91854C9.13805 5.90218 9.15266 5.89918 9.16302 5.89209C9.20074 5.92373 9.25068 5.93491 9.28547 5.97091" fill="#220E0D"/>
<path fill-rule="evenodd" clip-rule="evenodd" d="M8.14062 4.49658C8.19083 4.51185 8.18658 4.5694 8.21845 4.59831C8.21128 4.61195 8.20836 4.62995 8.19189 4.63649C8.20438 4.57867 8.14434 4.54895 8.14062 4.49658" fill="#311A1A"/>
<path fill-rule="evenodd" clip-rule="evenodd" d="M9.087 5.87505C9.07584 5.87451 9.06469 5.87451 9.05433 5.87451C9.02909 5.85814 9.00333 5.84233 8.9773 5.82569C8.97013 5.81996 8.97172 5.81505 8.97969 5.80933C9.01661 5.82814 9.06363 5.83005 9.087 5.87505" fill="#2B2C2B"/>
<path fill-rule="evenodd" clip-rule="evenodd" d="M9.60763 6.27213C9.56567 6.25195 9.55823 6.20531 9.53406 6.17041C9.53422 6.16809 9.53516 6.16591 9.5367 6.16422C9.53825 6.16253 9.54032 6.16144 9.54256 6.16113C9.57735 6.19031 9.59515 6.22932 9.60763 6.27213" fill="#352D2D"/>
<path fill-rule="evenodd" clip-rule="evenodd" d="M9.26899 7.01318C9.27085 7.02491 9.24509 7.04564 9.27855 7.04673C9.28891 7.04127 9.29848 7.03964 9.30884 7.04782C9.29635 7.0582 9.282 7.06596 9.26659 7.07064C9.25119 7.07532 9.23503 7.07683 9.21906 7.07509C9.23021 7.04455 9.23526 7.01782 9.26899 7.01318Z" fill="#231515"/>
<path fill-rule="evenodd" clip-rule="evenodd" d="M9.54283 6.16127C9.54079 6.16503 9.53787 6.16822 9.53433 6.17054C9.50937 6.13318 9.45916 6.11682 9.45093 6.06445C9.48919 6.08804 9.52085 6.12139 9.54283 6.16127" fill="#201515"/>
<path fill-rule="evenodd" clip-rule="evenodd" d="M9.13802 6.89998C9.16804 6.90735 9.13085 6.93325 9.15024 6.94389C9.15529 6.94744 9.15635 6.94989 9.15529 6.95398C9.15396 6.95753 9.15343 6.95998 9.1521 6.95998C9.13537 6.97362 9.11704 6.97089 9.09924 6.96871C9.08994 6.94035 9.12022 6.93407 9.12315 6.91525C9.12022 6.90189 9.12527 6.89644 9.13802 6.89998Z" fill="#190A0A"/>
<path fill-rule="evenodd" clip-rule="evenodd" d="M8.98053 5.80915C8.98 5.81515 8.97814 5.8206 8.97814 5.82551C8.9444 5.81488 8.90775 5.80915 8.88782 5.77397L8.88623 5.77451C8.92421 5.76797 8.95025 5.79278 8.98053 5.80915" fill="#313331"/>
<path fill-rule="evenodd" clip-rule="evenodd" d="M9.3739 6.99505C9.39675 6.95905 9.42012 6.92468 9.46342 6.91187C9.44243 6.94896 9.418 6.98387 9.3739 6.99505Z" fill="#211717"/>
<path fill-rule="evenodd" clip-rule="evenodd" d="M8.12068 4.38013C8.10262 4.42295 8.15468 4.45322 8.14061 4.49522C8.11829 4.47913 8.11511 4.45049 8.10076 4.42922C8.0827 4.40249 8.09545 4.38858 8.12068 4.38013Z" fill="#2C1F1F"/>
<path fill-rule="evenodd" clip-rule="evenodd" d="M7.99533 4.94739C8.01445 4.97139 8.04234 4.94903 8.06226 4.96212C8.02083 4.98039 7.97726 4.97303 7.9337 4.97139C7.9268 4.93676 7.95894 4.9523 7.97062 4.94166C7.97912 4.93976 7.98895 4.93812 7.99533 4.94739" fill="#4B4B4B"/>
<path fill-rule="evenodd" clip-rule="evenodd" d="M9.26765 6.68115C9.27907 6.72724 9.26207 6.75888 9.22355 6.78206L9.22302 6.77988C9.2286 6.74279 9.25304 6.71415 9.26765 6.68115" fill="#2A1111"/>
<path fill-rule="evenodd" clip-rule="evenodd" d="M8.48166 4.35084L8.34964 4.33993C8.34849 4.33624 8.34813 4.33233 8.34858 4.32848C8.37673 4.31484 8.40595 4.32002 8.43544 4.32575C8.45562 4.31948 8.46811 4.33475 8.48272 4.3432C8.48272 4.3462 8.48166 4.34839 8.48166 4.35084" fill="#322C05"/>
<path fill-rule="evenodd" clip-rule="evenodd" d="M8.50798 5.59374C8.48461 5.58883 8.46309 5.58311 8.44051 5.57792C8.43334 5.56783 8.41448 5.56783 8.41661 5.54956C8.44423 5.57002 8.49391 5.5422 8.50798 5.59374Z" fill="#232323"/>
<path fill-rule="evenodd" clip-rule="evenodd" d="M8.88624 5.7737L8.88783 5.77316C8.85622 5.77861 8.83178 5.76061 8.80894 5.74207C8.80443 5.73961 8.80257 5.73634 8.80443 5.73334C8.80602 5.73034 8.80788 5.72925 8.80947 5.72925C8.83524 5.74425 8.87083 5.74016 8.88624 5.7737Z" fill="#1B1D1B"/>
<path fill-rule="evenodd" clip-rule="evenodd" d="M9.63154 6.34918L9.62012 6.36309C9.61056 6.33473 9.58771 6.308 9.60817 6.27637C9.6222 6.29804 9.63027 6.32319 9.63154 6.34918" fill="#311F1F"/>
<path fill-rule="evenodd" clip-rule="evenodd" d="M9.31013 7.04787C9.29977 7.04787 9.29021 7.04732 9.27985 7.04678C9.31146 7.02932 9.33855 7.0015 9.3752 6.99414C9.36564 7.02687 9.33775 7.03778 9.31013 7.04787" fill="#2A0808"/>
<path fill-rule="evenodd" clip-rule="evenodd" d="M8.61313 4.40463C8.58842 4.39126 8.56398 4.37899 8.54034 4.36617C8.57939 4.33917 8.60038 4.37681 8.62747 4.39263C8.62588 4.40108 8.61844 4.40244 8.61313 4.40463" fill="#3E3919"/>
<path fill-rule="evenodd" clip-rule="evenodd" d="M8.79749 4.6365C8.77764 4.61145 8.76414 4.58175 8.75818 4.55005C8.79643 4.56669 8.80121 4.60296 8.80838 4.63759C8.80413 4.64387 8.80121 4.64332 8.79749 4.6365Z" fill="#2C2020"/>
<path fill-rule="evenodd" clip-rule="evenodd" d="M8.7975 4.63647C8.80175 4.63702 8.80441 4.63757 8.80839 4.63757C8.81317 4.66566 8.85966 4.71366 8.77997 4.70275C8.80494 4.68611 8.79325 4.65938 8.7975 4.63647" fill="#0F0808"/>
<path fill-rule="evenodd" clip-rule="evenodd" d="M9.13802 6.90019C9.13324 6.90537 9.12872 6.91083 9.12288 6.91573C9.11146 6.90728 9.08968 6.90264 9.09579 6.8841C9.10296 6.86119 9.12633 6.85683 9.14944 6.85846C9.15024 6.87292 9.12926 6.88246 9.13802 6.90019Z" fill="#350D0D"/>
<path fill-rule="evenodd" clip-rule="evenodd" d="M9.62622 6.52295H9.6379C9.64089 6.55533 9.63558 6.58796 9.6225 6.61759H9.60815C9.614 6.5854 9.62011 6.55349 9.62622 6.52295" fill="#080404"/>
<path fill-rule="evenodd" clip-rule="evenodd" d="M7.96877 4.94727C7.95735 4.95491 7.94539 4.96391 7.93317 4.97127C7.91113 4.965 7.92096 4.94564 7.91724 4.93091C7.93397 4.93227 7.9515 4.93282 7.9685 4.93473C7.97355 4.93745 7.97408 4.94018 7.97355 4.94318C7.97169 4.94564 7.9701 4.94727 7.96877 4.94727Z" fill="#D0D0D0"/>
<path fill-rule="evenodd" clip-rule="evenodd" d="M9.18768 6.62745C9.19373 6.63248 9.19941 6.63795 9.20468 6.64382C9.21212 6.63727 9.21902 6.63209 9.22646 6.625C9.23443 6.63155 9.23496 6.63727 9.22912 6.64518C9.22194 6.66755 9.20415 6.68009 9.18529 6.66973C9.1643 6.65936 9.18051 6.64082 9.18768 6.62745Z" fill="#1F0D0D"/>
<path fill-rule="evenodd" clip-rule="evenodd" d="M8.15467 4.99376C8.14219 5.01421 8.14989 5.0483 8.11589 5.05539C8.11483 5.0213 8.13236 4.99703 8.15361 4.97412C8.15438 4.98064 8.15474 4.98719 8.15467 4.99376" fill="#2A1B1B"/>
<path fill-rule="evenodd" clip-rule="evenodd" d="M9.26555 6.57546C9.2698 6.56946 9.27618 6.54819 9.28096 6.57137C9.28574 6.59591 9.28707 6.62237 9.27033 6.645C9.26263 6.63191 9.27538 6.61309 9.25732 6.60409C9.24457 6.58991 9.26024 6.58419 9.26555 6.57546" fill="#9D9D9D"/>
<path fill-rule="evenodd" clip-rule="evenodd" d="M8.23198 4.34353L8.17912 4.36398C8.17301 4.36316 8.16796 4.35934 8.16425 4.3528C8.18352 4.33724 8.20747 4.32905 8.23198 4.32962C8.23676 4.33235 8.23836 4.33535 8.23676 4.33862C8.23543 4.34189 8.23437 4.34353 8.23198 4.34353" fill="#371F1F"/>
<path fill-rule="evenodd" clip-rule="evenodd" d="M9.4751 6.89724C9.46634 6.85797 9.49715 6.84515 9.51893 6.82715C9.51893 6.86015 9.49901 6.88006 9.4751 6.89724Z" fill="#372020"/>
<path fill-rule="evenodd" clip-rule="evenodd" d="M8.43545 4.3258L8.34859 4.32853C8.34036 4.32962 8.33213 4.32962 8.32363 4.33016C8.32256 4.32744 8.3207 4.32525 8.31964 4.32253C8.3207 4.32007 8.32256 4.31816 8.32416 4.31571C8.36161 4.3138 8.39933 4.30944 8.43545 4.3258" fill="#383836"/>
<path fill-rule="evenodd" clip-rule="evenodd" d="M8.6453 5.66056C8.62166 5.65102 8.59775 5.64065 8.57518 5.63111C8.57305 5.61965 8.57518 5.61229 8.58846 5.61965C8.61316 5.62511 8.63839 5.62947 8.6453 5.66056" fill="#1F201F"/>
<path fill-rule="evenodd" clip-rule="evenodd" d="M8.66388 4.73063C8.68991 4.71236 8.71993 4.71427 8.74861 4.71918C8.72869 4.7399 8.70186 4.73527 8.67796 4.74181L8.66388 4.73063" fill="#300707"/>
<path fill-rule="evenodd" clip-rule="evenodd" d="M9.40073 6.04909C9.3832 6.03654 9.36594 6.024 9.34894 6.01227C9.38081 5.99182 9.39409 6.02591 9.41455 6.03654C9.41322 6.04554 9.40578 6.04691 9.40073 6.04909Z" fill="#401717"/>
<path fill-rule="evenodd" clip-rule="evenodd" d="M8.11536 5.06812C8.13979 5.06866 8.14298 5.09102 8.15361 5.10521V5.12184C8.12864 5.11339 8.11536 5.09621 8.11536 5.06812Z" fill="#291E1E"/>
<path fill-rule="evenodd" clip-rule="evenodd" d="M8.58767 5.61943C8.58308 5.62304 8.57865 5.62686 8.57439 5.63088C8.55659 5.62461 8.53561 5.62161 8.53455 5.59515C8.55659 5.59243 8.57333 5.60306 8.58767 5.61943" fill="#3A3C3A"/>
<path fill-rule="evenodd" clip-rule="evenodd" d="M8.75711 5.71243C8.72975 5.71079 8.70744 5.70097 8.69257 5.67506C8.71833 5.67452 8.73772 5.68788 8.75685 5.7037L8.75711 5.71243" fill="#010101"/>
<path fill-rule="evenodd" clip-rule="evenodd" d="M8.23199 4.34356V4.33401C8.24023 4.32828 8.2482 4.32719 8.25537 4.32556C8.27787 4.31961 8.30139 4.31896 8.32417 4.32365L8.32364 4.33019V4.34165C8.29335 4.34192 8.26254 4.34301 8.23199 4.34356" fill="#0A0606"/>
<path fill-rule="evenodd" clip-rule="evenodd" d="M9.16298 5.89196L9.13589 5.91841C9.12761 5.91608 9.11918 5.91435 9.11066 5.91323C9.11145 5.90396 9.11145 5.89523 9.11199 5.88623C9.12925 5.88869 9.14678 5.89032 9.16298 5.89196" fill="#050202"/>
<path fill-rule="evenodd" clip-rule="evenodd" d="M9.22302 6.77979L9.22355 6.78197C9.2177 6.8076 9.20761 6.82915 9.17706 6.82969C9.18552 6.80759 9.20199 6.7897 9.22302 6.77979" fill="#010000"/>
<path fill-rule="evenodd" clip-rule="evenodd" d="M9.26553 6.57544C9.26234 6.58498 9.26021 6.59398 9.25729 6.6038L9.2294 6.64362C9.22871 6.63687 9.22782 6.63014 9.22675 6.62344L9.25092 6.57544H9.26553" fill="#281616"/>
<path fill-rule="evenodd" clip-rule="evenodd" d="M9.40076 6.04917C9.40575 6.04545 9.41037 6.04125 9.41457 6.03662L9.45202 6.06608C9.42918 6.08108 9.41563 6.06035 9.40076 6.04917Z" fill="#361717"/>
<path fill-rule="evenodd" clip-rule="evenodd" d="M8.7571 5.71224L8.75684 5.70651C8.77941 5.70187 8.79216 5.72151 8.80943 5.73024L8.8089 5.74305C8.78898 5.73787 8.76905 5.73296 8.7571 5.71224Z" fill="#0B0B0B"/>
<path fill-rule="evenodd" clip-rule="evenodd" d="M8.16427 4.35278L8.17915 4.36397C8.15869 4.36642 8.14621 4.39806 8.12018 4.38087C8.12532 4.37339 8.13187 4.36705 8.13944 4.36222C8.14702 4.3574 8.15546 4.35419 8.16427 4.35278Z" fill="#090202"/>
<path fill-rule="evenodd" clip-rule="evenodd" d="M9.15213 6.95928C9.15186 6.95355 9.1508 6.9481 9.15027 6.94292C9.16736 6.93632 9.18454 6.92996 9.2018 6.92383L9.20286 6.95355C9.18613 6.95546 9.16939 6.95655 9.15213 6.95928Z" fill="#040202"/>
<path fill-rule="evenodd" clip-rule="evenodd" d="M8.61316 4.40458L8.6275 4.39258C8.64371 4.39912 8.65832 4.40621 8.66283 4.42476C8.63972 4.43567 8.6283 4.41494 8.61316 4.40458" fill="#393519"/>
<path fill-rule="evenodd" clip-rule="evenodd" d="M8.48169 4.35088C8.48237 4.34981 8.48281 4.34859 8.483 4.34732C8.48318 4.34605 8.4831 4.34476 8.48275 4.34352C8.50586 4.33998 8.53189 4.32852 8.53853 4.36643C8.52021 4.36098 8.50108 4.35607 8.48169 4.35088" fill="#0C0B03"/>
<path fill-rule="evenodd" clip-rule="evenodd" d="M8.32466 4.32361C8.30223 4.33009 8.27859 4.33075 8.25586 4.32552C8.27711 4.30998 8.30128 4.31461 8.32466 4.3157C8.32412 4.31831 8.32412 4.32101 8.32466 4.32361" fill="#464545"/>
<path fill-rule="evenodd" clip-rule="evenodd" d="M8.10659 5.9043C7.94855 5.65612 8.156 5.24785 8.34566 5.05176C8.29731 5.26039 8.18017 5.44748 8.29891 5.64439C8.2928 5.66485 8.28084 5.65994 8.27128 5.66048C8.26172 5.66103 8.25348 5.66103 8.24392 5.66103C8.2333 5.68503 8.25534 5.70439 8.24817 5.72867C8.23144 5.73903 8.17008 5.70876 8.20328 5.77421C8.14697 5.75949 8.19292 5.87267 8.12306 5.84185C8.11828 5.86039 8.11297 5.87894 8.10659 5.9043" fill="#9BA59B"/>
<path fill-rule="evenodd" clip-rule="evenodd" d="M8.46889 4.65283C8.54565 4.6992 8.56797 4.74774 8.55256 4.81865C8.5337 4.90401 8.4742 4.96892 8.40886 4.9752C8.38575 4.9782 8.36476 4.97765 8.3544 4.95229C8.34484 4.92801 8.3475 4.90347 8.37007 4.89256C8.46942 4.84565 8.48004 4.7581 8.46889 4.65283" fill="#99A399"/>
<path fill-rule="evenodd" clip-rule="evenodd" d="M8.62723 6.28089C8.57633 6.26779 8.52267 6.27191 8.47423 6.29262C8.44979 6.30407 8.43704 6.29398 8.43199 6.27053C8.41523 6.20554 8.41991 6.13668 8.44527 6.07471C8.50026 6.15434 8.56401 6.21598 8.62723 6.28089Z" fill="#97A097"/>
<path fill-rule="evenodd" clip-rule="evenodd" d="M8.29544 4.83769C8.27446 4.83278 8.26277 4.82024 8.2649 4.79951C8.26782 4.77906 8.28083 4.7676 8.30235 4.77115C8.32041 4.77387 8.32838 4.78751 8.32785 4.80415C8.32732 4.82542 8.31404 4.83551 8.29544 4.83769Z" fill="#F1F1F1"/>
<path fill-rule="evenodd" clip-rule="evenodd" d="M8.11487 4.90533C8.14143 4.8936 8.15976 4.88705 8.17968 4.90314C8.16242 4.92633 8.14435 4.92605 8.11487 4.90533Z" fill="#A4A4A4"/>
<path fill-rule="evenodd" clip-rule="evenodd" d="M8.02189 4.9227C8.04632 4.91615 8.0705 4.91097 8.09493 4.90552C8.07767 4.93634 8.04792 4.93252 8.02295 4.93634C8.0195 4.93334 8.01843 4.93061 8.01843 4.93061C8.0195 4.92352 8.02082 4.9227 8.02189 4.9227Z" fill="#F4F4F4"/>
<path fill-rule="evenodd" clip-rule="evenodd" d="M8.02185 4.92285C8.02185 4.92667 8.02185 4.93158 8.02292 4.93622L7.99529 4.9474H7.96899V4.93458C7.98679 4.93076 8.00406 4.92585 8.02185 4.92285" fill="#F1F1F1"/>
<path fill-rule="evenodd" clip-rule="evenodd" d="M9.03391 5.92769C9.09155 5.94132 9.13379 5.97923 9.16566 6.02887C9.17071 6.0346 9.17416 6.03951 9.17894 6.04578C9.13963 6.07005 9.11811 6.02942 9.0873 6.02042C9.05543 6.00896 9.02196 6.00296 8.99115 5.98496C9.00737 5.99551 9.02079 6.01004 9.03019 6.02723C9.03152 6.0466 9.05436 6.05778 9.04852 6.0796C9.04375 6.08392 9.03783 6.08667 9.03152 6.08751C9.01877 6.08641 9.00682 6.08423 8.99486 6.08314C8.96253 6.06793 8.92703 6.06118 8.89154 6.06351C8.89685 6.0796 8.90747 6.09187 8.91491 6.10496L8.91411 6.10441C8.91996 6.11041 8.91996 6.11669 8.91491 6.12187C8.90674 6.12816 8.89669 6.13134 8.88649 6.13087C8.86338 6.13141 8.83868 6.13523 8.82566 6.10769C8.81132 6.10469 8.81132 6.06814 8.78715 6.09132C8.76191 6.05887 8.72924 6.03378 8.70613 5.99778C8.69763 5.99778 8.68886 5.99723 8.67983 5.99669C8.65593 5.97569 8.62246 5.96805 8.60094 5.94323C8.58713 5.9236 8.55605 5.92605 8.54569 5.90069C8.50054 5.86441 8.50346 5.82405 8.5356 5.78123L8.534 5.78232C8.5518 5.75287 8.58049 5.75396 8.60811 5.75505C8.62963 5.76078 8.65274 5.76241 8.67399 5.77469C8.69736 5.79023 8.72499 5.79596 8.74943 5.81205C8.77386 5.82487 8.80202 5.83005 8.82407 5.84887C8.82619 5.85951 8.83443 5.86278 8.84346 5.86441C8.86577 5.86005 8.88383 5.87641 8.90429 5.87887C8.93032 5.88951 8.95608 5.89796 8.98344 5.90396C9.00124 5.91132 9.0193 5.91432 9.03391 5.92769" fill="#FDFDFD"/>
<path fill-rule="evenodd" clip-rule="evenodd" d="M8.91438 6.10561L8.83044 6.04697C8.90243 6.04261 8.95104 6.05597 8.99885 6.07615C8.98876 6.08733 8.97654 6.08597 8.96432 6.07997C8.94201 6.07861 8.9181 6.07342 8.91438 6.10561" fill="#222020"/>
<path fill-rule="evenodd" clip-rule="evenodd" d="M9.11361 6.40083C9.07032 6.35501 9.0326 6.30374 8.97947 6.26829C8.97786 6.26515 8.97687 6.26172 8.97655 6.25819C8.97416 6.25574 8.97283 6.25274 8.97416 6.25029C8.97529 6.24911 8.97665 6.24818 8.97814 6.24756C9.03977 6.2811 9.08253 6.33456 9.12291 6.38965C9.12928 6.40138 9.12291 6.40247 9.11361 6.40083Z" fill="#190A0A"/>
<path fill-rule="evenodd" clip-rule="evenodd" d="M9.02116 6.03822C8.99858 6.02158 8.9861 5.9924 8.93988 5.97767C9.00841 5.9624 9.04454 5.99703 9.08491 6.01449C9.08837 6.01831 9.08943 6.02158 9.08783 6.02458C9.08624 6.02812 9.08491 6.03031 9.08385 6.03031L9.03843 6.02458C9.0379 6.03712 9.03312 6.04203 9.02116 6.03822" fill="#160B0B"/>
<path fill-rule="evenodd" clip-rule="evenodd" d="M9.08435 6.02998L9.08541 6.01416C9.11862 6.01798 9.14252 6.05152 9.17865 6.04662C9.18316 6.04716 9.18662 6.04825 9.19033 6.05043C9.1991 6.06543 9.1898 6.07198 9.17758 6.07716C9.14677 6.06134 9.11516 6.04607 9.08435 6.02998" fill="#240E0E"/>
<path fill-rule="evenodd" clip-rule="evenodd" d="M9.17706 6.07637C9.18158 6.06764 9.1853 6.05837 9.18981 6.04964C9.22195 6.04801 9.23231 6.07119 9.24533 6.10255C9.21505 6.10119 9.19645 6.0881 9.17706 6.07637" fill="#140202"/>
<path fill-rule="evenodd" clip-rule="evenodd" d="M8.97862 6.24719C8.97995 6.25046 8.97863 6.25482 8.97703 6.25782C8.94868 6.24258 8.923 6.22257 8.90106 6.19864C8.94356 6.18691 8.95817 6.22155 8.97862 6.24719Z" fill="#2F1413"/>
<path fill-rule="evenodd" clip-rule="evenodd" d="M8.82404 6.1084C8.84236 6.12476 8.86547 6.1144 8.88672 6.12067C8.8923 6.14522 8.86547 6.13267 8.86096 6.14467C8.86326 6.14871 8.8653 6.1529 8.86707 6.15722C8.86096 6.16404 8.85432 6.16567 8.84661 6.1594C8.82404 6.14958 8.81155 6.13485 8.82404 6.1084" fill="#0E0D0D"/>
<path fill-rule="evenodd" clip-rule="evenodd" d="M9.11359 6.40083C9.11699 6.39738 9.1201 6.39364 9.12288 6.38965C9.14655 6.41031 9.16274 6.43856 9.16884 6.46983C9.13563 6.46001 9.13165 6.42401 9.11359 6.40083Z" fill="#291110"/>
<path fill-rule="evenodd" clip-rule="evenodd" d="M9.24083 6.94045L9.21613 6.91427C9.23233 6.9069 9.24508 6.89054 9.26633 6.89872C9.26925 6.92136 9.24959 6.92681 9.24083 6.94045Z" fill="#1C0808"/>
<path fill-rule="evenodd" clip-rule="evenodd" d="M8.86125 6.14452C8.8562 6.12134 8.88489 6.13661 8.88702 6.12052C8.89525 6.11997 8.90375 6.11943 8.91278 6.11806C8.91863 6.11506 8.9242 6.11288 8.92713 6.11997C8.93191 6.13252 8.92367 6.13797 8.91358 6.14179C8.89578 6.14234 8.87905 6.14397 8.86125 6.14452" fill="#282525"/>
<path fill-rule="evenodd" clip-rule="evenodd" d="M8.91437 6.14228C8.91782 6.13409 8.9319 6.12537 8.91357 6.11855C8.91437 6.11364 8.91437 6.11009 8.91437 6.11009C8.93828 6.09782 8.95714 6.115 8.95475 6.13355C8.95289 6.15837 8.92872 6.14255 8.91437 6.14228" fill="#0C0505"/>
<path fill-rule="evenodd" clip-rule="evenodd" d="M9.03388 6.08193C9.0373 6.07935 9.04118 6.0775 9.0453 6.07648C9.05433 6.07648 9.06337 6.07566 9.07133 6.08002C9.07665 6.09039 9.09205 6.10566 9.0801 6.11111C9.06788 6.11739 9.05035 6.1062 9.03441 6.10402C9.02671 6.0972 9.02591 6.0893 9.03388 6.08193" fill="#130101"/>
<path fill-rule="evenodd" clip-rule="evenodd" d="M9.07109 6.07905C9.06233 6.08095 9.05197 6.09214 9.04506 6.0755C9.03771 6.06261 9.0301 6.04987 9.02222 6.03732C9.02863 6.03373 9.03446 6.02913 9.03948 6.02368C9.05037 6.04305 9.0602 6.06077 9.07109 6.07905" fill="#361313"/>
<path fill-rule="evenodd" clip-rule="evenodd" d="M9.03392 6.082L9.03446 6.10409C9.01108 6.09645 8.98531 6.09836 8.96539 6.08145C8.97655 6.08009 8.98797 6.07845 8.99992 6.07764C9.01108 6.07845 9.0225 6.08009 9.03392 6.082" fill="#371313"/>
<path fill-rule="evenodd" clip-rule="evenodd" d="M8.84796 6.15941C8.85434 6.15886 8.86177 6.15832 8.86841 6.15723C8.88834 6.1635 8.90507 6.17332 8.90268 6.19923C8.8841 6.18645 8.86586 6.17317 8.84796 6.15941" fill="#201312"/>
<path fill-rule="evenodd" clip-rule="evenodd" d="M8.70557 5.99878C8.73558 6.02742 8.781 6.04214 8.78658 6.09232C8.75683 6.06451 8.70982 6.05142 8.70557 5.99878Z" fill="#1E1F1E"/>
<path fill-rule="evenodd" clip-rule="evenodd" d="M8.53455 5.78185C8.50905 5.82385 8.51649 5.86285 8.54465 5.9013C8.49816 5.89966 8.5072 5.86039 8.50348 5.83285C8.50029 5.81103 8.49551 5.77966 8.53455 5.78185" fill="#0E0E0E"/>
<path fill-rule="evenodd" clip-rule="evenodd" d="M8.61317 5.76563C8.58688 5.76945 8.55739 5.76208 8.53375 5.78281C8.54916 5.71872 8.59086 5.74327 8.62832 5.75336C8.62699 5.76127 8.61849 5.76208 8.61317 5.76563Z" fill="#202020"/>
<path fill-rule="evenodd" clip-rule="evenodd" d="M8.60065 5.94409C8.63119 5.95473 8.6644 5.96127 8.67954 5.99755C8.6474 5.98882 8.61127 5.98582 8.60065 5.94409Z" fill="#363736"/>
<path fill-rule="evenodd" clip-rule="evenodd" d="M8.98 5.91441C8.95051 5.91632 8.92634 5.90214 8.90217 5.88686C8.89978 5.87514 8.9035 5.86941 8.91625 5.87377C8.93776 5.8795 8.95822 5.88686 8.98 5.89314C8.98664 5.89996 8.98797 5.90732 8.98 5.91441" fill="#090909"/>
<path fill-rule="evenodd" clip-rule="evenodd" d="M8.74466 5.82012C8.72102 5.81139 8.69605 5.8043 8.67666 5.78602C8.67294 5.78275 8.67187 5.77921 8.67294 5.77593C8.67533 5.77239 8.67612 5.77075 8.67719 5.77075C8.70747 5.77621 8.7343 5.78793 8.75767 5.80839C8.75581 5.81384 8.75077 5.81793 8.74466 5.82012" fill="#2E302E"/>
<path fill-rule="evenodd" clip-rule="evenodd" d="M8.74463 5.82008C8.74941 5.81571 8.75286 5.8119 8.75764 5.80835C8.78261 5.81735 8.80997 5.82226 8.82405 5.8498C8.79534 5.84794 8.76777 5.83762 8.74463 5.82008" fill="#060606"/>
<path fill-rule="evenodd" clip-rule="evenodd" d="M8.91598 5.87378C8.91147 5.87842 8.90669 5.88333 8.9019 5.88688C8.88067 5.88593 8.86021 5.87842 8.8432 5.86533C8.87056 5.84106 8.89287 5.86151 8.91598 5.87378" fill="#3E3F3E"/>
<path fill-rule="evenodd" clip-rule="evenodd" d="M8.97998 5.91456V5.89355L9.03311 5.90337C9.04798 5.9121 9.0339 5.92028 9.03311 5.92819C9.01532 5.92397 8.99761 5.91942 8.97998 5.91456" fill="#161616"/>
<path fill-rule="evenodd" clip-rule="evenodd" d="M8.67718 5.77086C8.67718 5.77605 8.67718 5.78068 8.67664 5.78614C8.65557 5.77921 8.63441 5.77258 8.61316 5.76623C8.61794 5.76186 8.62352 5.75832 8.62857 5.75395C8.64743 5.75205 8.66257 5.75968 8.67718 5.77086Z" fill="#050505"/>
</g>
<defs>
<clipPath id="clip0_864_43423">
<rect width="17" height="12" fill="white"/>
</clipPath>
</defs>
</svg>
