<svg width="15" height="10" viewBox="0 0 15 10" fill="none" xmlns="http://www.w3.org/2000/svg">
<g clip-path="url(#clip0_864_41740)">
<path d="M0 3.18188H15V6.81825H0V3.18188Z" fill="#EC1C24"/>
<path d="M12.6562 0H2.34375C0.790547 0 0 1.11932 0 2.5V3.18182H15V2.5C15 1.11932 14.2095 0 12.6562 0Z" fill="#25333A"/>
<path d="M0 7.50018C0 8.88086 0.790547 10.0002 2.34375 10.0002H12.6562C14.2095 10.0002 15 8.88086 15 7.50018V6.81836H0V7.50018Z" fill="#128807"/>
<path fill-rule="evenodd" clip-rule="evenodd" d="M9.33165 3.0448H5.75767L5.73329 3.04503C5.71782 3.04594 5.71407 3.04071 5.72063 3.02571C5.73095 3.00208 5.73868 2.9773 5.74923 2.95344C6.01688 2.36548 6.4704 1.98844 7.11704 1.84844C8.04587 1.64662 8.98384 2.1473 9.31852 3.00935C9.32274 3.01889 9.32602 3.02935 9.33142 3.0448M6.27165 1.94162C6.11649 1.79003 5.9536 1.64503 5.82728 1.46753C5.79845 1.42617 5.77126 1.38412 5.75978 1.33458C5.75368 1.30548 5.75485 1.27776 5.78157 1.25798C5.80853 1.23776 5.83618 1.24639 5.86267 1.26071C5.91071 1.28776 5.9447 1.32958 5.97657 1.37276C6.08251 1.51798 6.15938 1.67867 6.23603 1.84003C6.25079 1.87139 6.26485 1.90276 6.28009 1.93412C6.28126 1.94117 6.27868 1.94389 6.27165 1.94162M8.76798 1.93412C8.85821 1.74639 8.94001 1.5548 9.06376 1.38389C9.08767 1.35026 9.11251 1.31639 9.14415 1.28844C9.15383 1.27963 9.16435 1.27171 9.17556 1.2648C9.20251 1.24753 9.23204 1.23594 9.26274 1.25571C9.29345 1.27526 9.29227 1.30617 9.28548 1.3373C9.2747 1.38571 9.24892 1.42708 9.22032 1.46753C9.10829 1.62571 8.96649 1.75889 8.82634 1.89389L8.77548 1.94162C8.76845 1.94389 8.76587 1.94117 8.76798 1.93412M8.08571 1.64162C8.10048 1.42026 8.10915 1.19935 8.17173 0.98503C8.18462 0.940712 8.20009 0.896394 8.23009 0.858894C8.24931 0.835258 8.27228 0.816167 8.30696 0.824121C8.34071 0.832303 8.35009 0.858894 8.35524 0.887758C8.36579 0.93753 8.35477 0.986621 8.34212 1.03458C8.29477 1.21571 8.2111 1.38367 8.12978 1.55139C8.11524 1.58162 8.10001 1.61162 8.08571 1.64162M6.61173 1.76389C6.47017 1.57708 6.32298 1.39458 6.22946 1.17912C6.2118 1.14267 6.2029 1.1028 6.20345 1.06253C6.20462 1.03639 6.21282 1.01367 6.2386 1.00094C6.26509 0.987303 6.28853 0.996848 6.31009 1.0123C6.35532 1.04503 6.38228 1.09139 6.40524 1.13912C6.46524 1.26162 6.50884 1.3898 6.54493 1.52026L6.61173 1.76389M5.48931 2.95071C5.40493 2.93639 5.32079 2.92253 5.23665 2.90798C5.10173 2.88618 4.96893 2.85349 4.83962 2.81026C4.79732 2.79632 4.75712 2.77698 4.72009 2.75276C4.70654 2.74344 4.69446 2.73227 4.68423 2.71958C4.65399 2.6773 4.6697 2.63503 4.72126 2.6223C4.76931 2.61071 4.81618 2.62139 4.86188 2.63548C5.00696 2.68071 5.14103 2.74776 5.27251 2.82071C5.3461 2.86185 5.41853 2.90276 5.49142 2.94389L5.48931 2.95071M9.55735 2.95026C9.76056 2.8298 9.96118 2.70435 10.1897 2.63321C10.2256 2.62091 10.2635 2.61528 10.3015 2.61662C10.3317 2.61821 10.3599 2.62662 10.3727 2.65639C10.3854 2.68776 10.369 2.71298 10.3463 2.73458C10.3074 2.7698 10.2602 2.79094 10.2108 2.80867C10.0313 2.87298 9.84376 2.90389 9.65556 2.93435C9.62291 2.94015 9.59017 2.94545 9.55735 2.95026M7.33829 1.57435C7.27149 1.35571 7.19954 1.13935 7.18642 0.910939C7.18279 0.873258 7.18604 0.835252 7.19602 0.798667C7.20517 0.767303 7.2204 0.738212 7.25884 0.735712C7.29563 0.732303 7.31438 0.757985 7.33009 0.785712C7.34954 0.82253 7.35868 0.862303 7.36337 0.903212C7.38306 1.07798 7.37017 1.25026 7.35353 1.42412L7.33829 1.57435M9.39845 2.61935C9.57517 2.46776 9.74907 2.3123 9.95907 2.20253C9.99376 2.18458 10.0299 2.17071 10.0692 2.16548C10.1004 2.16117 10.1306 2.16367 10.1494 2.19208C10.1686 2.22139 10.1555 2.24844 10.1374 2.27298C10.1067 2.31389 10.0645 2.34208 10.0202 2.36685C9.8454 2.46685 9.65392 2.53003 9.46407 2.59639C9.44274 2.60412 9.42048 2.61185 9.39845 2.61935M9.04923 2.18003C9.18024 2.00139 9.29954 1.81844 9.45938 1.66503C9.48681 1.63935 9.51423 1.61503 9.54704 1.59503C9.56343 1.58432 9.58158 1.5764 9.60071 1.57162C9.65931 1.55844 9.6961 1.59458 9.6804 1.65026C9.66446 1.70412 9.62813 1.74548 9.58899 1.78435C9.497 1.87233 9.3975 1.95261 9.29157 2.02435C9.22267 2.07208 9.15235 2.11889 9.08274 2.16548C9.07407 2.17139 9.06728 2.18048 9.04923 2.18003M5.98735 2.18253C5.85728 2.09208 5.72228 2.00867 5.59876 1.90912C5.5308 1.85647 5.46796 1.79789 5.41103 1.73412C5.39107 1.71211 5.37586 1.68646 5.36626 1.65867C5.35759 1.63253 5.35618 1.60708 5.37798 1.58571C5.39837 1.56503 5.42462 1.56753 5.45017 1.57458C5.50478 1.59071 5.5472 1.62662 5.58657 1.66503C5.69649 1.77094 5.78931 1.88912 5.87626 2.01162C5.91563 2.06685 5.95524 2.12185 5.99462 2.17639C5.99181 2.17844 5.9904 2.18048 5.98735 2.18253M6.96751 1.63958C6.85665 1.4223 6.73806 1.21003 6.69024 0.970939C6.68282 0.939078 6.68338 0.905955 6.69188 0.874348C6.70876 0.819348 6.75962 0.805712 6.80204 0.846394C6.83579 0.878439 6.85407 0.918894 6.86743 0.961848C6.9136 1.10935 6.93399 1.26117 6.94782 1.41389C6.95415 1.4898 6.96024 1.56458 6.96751 1.63958ZM8.43306 1.76458C8.46235 1.65798 8.49235 1.55094 8.52306 1.44367C8.55376 1.33867 8.5929 1.23639 8.64048 1.13753C8.66134 1.0948 8.68431 1.05412 8.72017 1.0223C8.74407 1.00094 8.77056 0.984348 8.80431 0.999576C8.83806 1.01458 8.84204 1.04571 8.84087 1.07753C8.83782 1.12639 8.81977 1.17185 8.79915 1.21617C8.71806 1.38798 8.60415 1.54117 8.49212 1.69458L8.43868 1.76753C8.43728 1.76639 8.4347 1.76594 8.43306 1.76458ZM9.48423 2.7773C9.48915 2.77162 9.49196 2.76776 9.49571 2.76571C9.67618 2.64367 9.85149 2.51367 10.0545 2.42458C10.095 2.40685 10.1363 2.39071 10.1815 2.38662C10.2164 2.38321 10.2516 2.38458 10.2713 2.4198C10.2863 2.44503 10.2748 2.47639 10.2424 2.50867C10.1899 2.56048 10.1215 2.58526 10.0552 2.61253C9.87657 2.68685 9.68673 2.72776 9.50063 2.7773C9.49642 2.77821 9.4922 2.7773 9.48423 2.7773M8.26642 1.69526C8.3011 1.46821 8.33181 1.23844 8.42063 1.02389C8.4354 0.989121 8.45345 0.955258 8.48157 0.927985C8.50267 0.906394 8.52727 0.889121 8.56126 0.901848C8.59337 0.913667 8.59993 0.940712 8.60251 0.97003C8.6072 1.02389 8.59102 1.0748 8.57274 1.1248C8.51415 1.28117 8.43048 1.4248 8.34423 1.56708L8.26642 1.69526ZM7.70813 1.57389L7.69337 1.4198C7.67743 1.24753 7.66407 1.07548 7.68353 0.90253C7.68798 0.86253 7.69548 0.823212 7.71423 0.78753C7.72899 0.758439 7.74892 0.732076 7.78735 0.735485C7.82532 0.738667 7.83962 0.768439 7.84946 0.799348C7.86095 0.835712 7.86259 0.873894 7.86048 0.911394C7.84946 1.09208 7.80376 1.26503 7.75454 1.43776C7.74142 1.48298 7.72899 1.52867 7.71563 1.57435C7.71306 1.57435 7.71048 1.57435 7.70813 1.57389ZM5.86173 2.31821C5.7797 2.27276 5.69837 2.22708 5.61657 2.18139C5.49366 2.11327 5.37781 2.03381 5.27063 1.94412C5.23973 1.91936 5.21437 1.88873 5.1961 1.85412C5.18274 1.82798 5.17688 1.80026 5.19892 1.7748C5.21907 1.75094 5.24696 1.75117 5.27532 1.75844C5.33134 1.77253 5.3747 1.80526 5.41806 1.8398C5.53923 1.9373 5.64259 2.05162 5.7436 2.16867C5.78485 2.21708 5.8261 2.26458 5.86759 2.31253L5.86173 2.31821M5.56243 2.78185L5.3747 2.73412C5.20946 2.69321 5.04728 2.64435 4.89329 2.57117C4.85348 2.55388 4.81804 2.52836 4.78946 2.49639C4.77095 2.47458 4.75946 2.44958 4.77423 2.42185C4.78806 2.39548 4.81407 2.3898 4.84196 2.38867C4.89235 2.38753 4.93853 2.40276 4.98353 2.42185C5.19048 2.51185 5.37048 2.64344 5.55446 2.76889C5.55657 2.77048 5.55751 2.77435 5.56243 2.78185ZM6.78024 1.69548C6.7336 1.61821 6.68743 1.54117 6.64149 1.46367C6.57751 1.35503 6.52009 1.24321 6.47462 1.12548C6.45887 1.08627 6.44801 1.04538 6.44228 1.00367C6.4405 0.986431 6.44145 0.969034 6.44509 0.952076C6.45657 0.898894 6.50368 0.881394 6.54821 0.91503C6.58595 0.944121 6.60892 0.983894 6.62626 1.02662C6.66517 1.12094 6.69423 1.21821 6.71603 1.3173C6.74415 1.44208 6.76384 1.56776 6.78024 1.69548ZM9.17579 2.31594C9.23181 2.25162 9.28595 2.18912 9.33938 2.12708C9.43029 2.01855 9.53169 1.9187 9.6422 1.82889C9.68017 1.79889 9.71978 1.77139 9.76853 1.75867C9.79759 1.75071 9.82454 1.75162 9.84517 1.77526C9.86579 1.79798 9.86087 1.82412 9.84962 1.84821C9.82665 1.89821 9.78751 1.9348 9.74579 1.96912C9.60001 2.08935 9.43524 2.17958 9.27095 2.27071L9.18681 2.31708C9.1847 2.31798 9.18259 2.31639 9.17579 2.31594M8.91329 2.05912C9.02298 1.87026 9.12563 1.6773 9.27071 1.51162C9.30446 1.47367 9.33915 1.43639 9.38485 1.41276C9.41345 1.39844 9.44415 1.38867 9.47274 1.41276C9.50063 1.43639 9.49548 1.46708 9.48587 1.49685C9.46595 1.5598 9.42142 1.60708 9.37782 1.65548C9.24071 1.80867 9.07454 1.93117 8.91329 2.05912M8.60579 1.83639C8.68009 1.63753 8.74688 1.43548 8.85728 1.25117C8.88353 1.20844 8.91071 1.16594 8.95079 1.13458C8.97727 1.11435 9.00657 1.09889 9.04009 1.11798C9.07337 1.13708 9.07267 1.17026 9.06751 1.20162C9.06024 1.24912 9.03845 1.29185 9.01384 1.33367C8.91774 1.49844 8.79048 1.64048 8.66556 1.78435L8.61329 1.84344C8.6072 1.84594 8.60438 1.84344 8.60579 1.83639M5.65548 2.61344C5.64235 2.6148 5.63884 2.61639 5.63626 2.61571C5.42579 2.54026 5.21017 2.47435 5.01587 2.36185C4.98585 2.34521 4.958 2.32514 4.9329 2.30208C4.91509 2.28729 4.90119 2.26859 4.89235 2.24753C4.87688 2.20776 4.89845 2.17253 4.94274 2.1673C4.99337 2.16208 5.03907 2.17889 5.08313 2.20094C5.17876 2.25003 5.26946 2.30798 5.35313 2.37389C5.44618 2.44594 5.53665 2.52094 5.62876 2.59458C5.63556 2.60003 5.64235 2.60435 5.65548 2.61344M6.43243 1.84321C6.30985 1.69867 6.17837 1.56117 6.07571 1.40253C6.0422 1.35048 6.00751 1.29912 5.98665 1.2398C5.97731 1.21551 5.97394 1.18944 5.97681 1.16367C5.98196 1.12117 6.01853 1.0998 6.05954 1.11594C6.10688 1.13503 6.13806 1.1723 6.16454 1.21298C6.21259 1.28548 6.2529 1.36276 6.28759 1.44253C6.34478 1.57139 6.39235 1.70389 6.44063 1.83639C6.44181 1.84253 6.44017 1.84594 6.43243 1.84344M7.51876 1.55821C7.49415 1.4173 7.46298 1.27821 7.44774 1.13617C7.43673 1.03185 7.42688 0.92753 7.44399 0.823212C7.44723 0.805117 7.45299 0.787533 7.4611 0.770939C7.47259 0.744803 7.49181 0.724576 7.52345 0.724121C7.55415 0.724121 7.57173 0.743894 7.58485 0.767985C7.60337 0.804576 7.61017 0.843894 7.61181 0.883894C7.6179 1.04139 7.59681 1.19662 7.56798 1.35094L7.53001 1.55844C7.52602 1.56298 7.52274 1.56298 7.51876 1.55821M6.12892 2.06139C6.04712 1.99389 5.96415 1.9273 5.88212 1.85912C5.78416 1.77887 5.6943 1.68976 5.61376 1.59298C5.58403 1.56034 5.56309 1.52107 5.55282 1.47867C5.54181 1.42026 5.58259 1.38571 5.64071 1.40571C5.68478 1.42117 5.71899 1.45094 5.7497 1.4848C5.84274 1.58548 5.92079 1.69776 5.9904 1.8148C6.03915 1.89458 6.08696 1.97526 6.13454 2.05571C6.13313 2.05753 6.13149 2.0598 6.12892 2.06139M7.14329 1.59548L7.11892 1.53276C7.05938 1.37298 6.99399 1.21435 6.9586 1.04685C6.94618 0.990939 6.93282 0.93503 6.93399 0.876848C6.93422 0.855206 6.93827 0.833761 6.94595 0.813439C6.96774 0.759803 7.02001 0.750939 7.05845 0.794803C7.08188 0.821394 7.09595 0.853667 7.10509 0.887303C7.13017 0.979348 7.14118 1.07412 7.14634 1.16889C7.15407 1.30458 7.15243 1.44094 7.15102 1.57708C7.15102 1.58321 7.15337 1.5898 7.14329 1.59548M5.74243 2.46162C5.56853 2.38185 5.38923 2.31094 5.22751 2.20935C5.1722 2.17458 5.11571 2.14162 5.07071 2.09344C5.05329 2.07651 5.03999 2.056 5.03181 2.03344C5.01728 1.99185 5.04165 1.95685 5.08688 1.95458C5.13001 1.95253 5.16798 1.96798 5.20407 1.98844C5.30579 2.04776 5.39696 2.12026 5.48274 2.19958C5.57345 2.28298 5.6604 2.36912 5.74923 2.4548C5.75181 2.46117 5.74923 2.46367 5.74243 2.46162ZM9.29696 2.45503C9.42001 2.33867 9.53556 2.2148 9.66938 2.10958C9.73313 2.05958 9.79665 2.00867 9.87188 1.97389C9.89062 1.96422 9.9109 1.95769 9.93188 1.95458C9.96071 1.95094 9.9886 1.95117 10.0074 1.9773C10.027 2.00344 10.0184 2.02935 10.0041 2.05367C9.97618 2.10094 9.93399 2.13412 9.88899 2.16435C9.74415 2.26276 9.58548 2.33617 9.4254 2.40753L9.30376 2.46139C9.29696 2.46367 9.29462 2.46117 9.29696 2.45503M7.89563 1.59548C7.89563 1.50276 7.89517 1.41003 7.89563 1.31685C7.89563 1.1848 7.90548 1.05389 7.93149 0.923894C7.9397 0.883894 7.95165 0.844576 7.97556 0.809576C7.9929 0.784348 8.01446 0.763212 8.04938 0.768667C8.08431 0.77503 8.09673 0.802303 8.10399 0.831621C8.11688 0.880939 8.11102 0.930485 8.10259 0.979576C8.0679 1.17753 7.99196 1.36344 7.92095 1.55094C7.91556 1.56548 7.90993 1.58117 7.9036 1.59571L7.89563 1.59548ZM9.78962 3.0448C9.9654 2.96026 10.1407 2.87889 10.3367 2.85389C10.3622 2.85045 10.3883 2.85343 10.4124 2.86253C10.4569 2.87958 10.4688 2.91958 10.4393 2.95617C10.4145 2.98753 10.3795 3.00367 10.343 3.01798C10.2977 3.03619 10.2492 3.04546 10.2002 3.04526C10.0634 3.04412 9.92649 3.0448 9.78962 3.0448ZM5.25774 3.0448H4.82837C4.75806 3.0448 4.69618 3.02048 4.63712 2.98548C4.62583 2.97872 4.6159 2.97002 4.60782 2.9598C4.57782 2.92412 4.5886 2.88162 4.6322 2.86503C4.6739 2.85151 4.71874 2.84993 4.76134 2.86048C4.91603 2.89117 5.06063 2.94935 5.2036 3.01321C5.22235 3.02117 5.2404 3.03026 5.25915 3.03889L5.25774 3.0448" fill="#EC1C24"/>
<path fill-rule="evenodd" clip-rule="evenodd" d="M7.51876 1.55811H7.53024C7.53095 1.56356 7.53212 1.57197 7.52321 1.57038C7.51688 1.57015 7.51782 1.56333 7.51876 1.55811ZM6.43243 1.84311L6.44063 1.83606C6.44626 1.84151 6.45142 1.8497 6.44462 1.85424C6.43876 1.85788 6.43501 1.84879 6.43243 1.84311ZM8.60579 1.83629C8.6086 1.83901 8.61142 1.84106 8.61353 1.84333C8.61142 1.84879 8.60743 1.85788 8.60204 1.85447C8.59524 1.84992 8.60017 1.84174 8.60579 1.83629ZM6.27165 1.94151L6.27985 1.93401C6.28571 1.93879 6.29134 1.94833 6.28688 1.95129C6.27938 1.95674 6.27564 1.94697 6.27165 1.94151ZM8.76798 1.93401C8.77056 1.93674 8.77337 1.93879 8.77524 1.94151C8.77149 1.94697 8.76845 1.95674 8.76048 1.95129C8.75603 1.94811 8.76212 1.93856 8.76798 1.93401M5.74243 2.46151C5.74458 2.4592 5.74685 2.45701 5.74923 2.45492C5.75415 2.45651 5.76165 2.46061 5.7579 2.46561C5.75298 2.4722 5.74712 2.46629 5.74243 2.46151ZM9.29696 2.45492C9.29978 2.45674 9.30165 2.45924 9.30399 2.46151C9.29954 2.46629 9.29368 2.4722 9.28853 2.46561C9.28478 2.46061 9.29204 2.45674 9.29696 2.45492Z" fill="#EC1C24"/>
</g>
<defs>
<clipPath id="clip0_864_41740">
<rect width="15" height="10" fill="white"/>
</clipPath>
</defs>
</svg>
