<svg width="17" height="11" viewBox="0 0 17 11" fill="none" xmlns="http://www.w3.org/2000/svg">
<g clip-path="url(#clip0_864_43669)">
<path d="M10.0937 11.3438H14.3437C14.8689 11.3438 15.3151 11.2253 15.6857 11.0189L10.0937 7.68317V11.3438ZM16.9097 9.27453C16.9702 9.00439 17.001 8.71831 17.001 8.42161V7.09348H13.2531L16.9086 9.27453M0.0929393 1.71723C0.0299871 1.99984 -0.00119588 2.28859 -2.94899e-05 2.57812V3.90625H3.76228L0.0929393 1.71723ZM6.90622 -0.34375H2.65622C2.1348 -0.34375 1.69147 -0.226875 1.32252 -0.0234062L6.90622 3.30753V-0.34375ZM1.33952 11.0319C1.70502 11.2295 2.1425 11.3438 2.65622 11.3438H6.90622V7.71106L1.33952 11.0319ZM-2.94899e-05 7.09375V8.42188C-2.94899e-05 8.72761 0.0323768 9.02219 0.0963924 9.29923L3.79363 7.09375H-2.94899e-05ZM15.7024 -0.0103906C15.3289 -0.222359 14.8766 -0.34375 14.3437 -0.34375H10.0937V3.33542L15.7024 -0.0103906V-0.0103906ZM17 3.90625V2.57812C17 2.28753 16.97 2.0073 16.9118 1.7422L13.2844 3.90625H17Z" fill="#2E3192"/>
<path d="M13.2844 3.90625L16.9118 1.7422C16.7455 0.981453 16.3407 0.351656 15.7024 -0.0103906L10.0938 3.33542V-0.34375H9.5625V4.4375H17V3.90625H13.2844ZM0 6.5625V7.09375H3.79366L0.0964219 9.29923C0.272 10.0576 0.689031 10.6802 1.33955 11.0319L6.90625 7.71106V11.3438H7.4375V6.5625H0ZM17 6.5625H9.5625V11.3438H10.0938V7.68317L15.6857 11.0192C16.3288 10.6611 16.7386 10.0348 16.9086 9.27506L13.2531 7.09375H17V6.5625ZM6.90625 -0.34375V3.30753L1.32255 -0.0234062C0.677078 0.332531 0.264563 0.957813 0.0927031 1.71723L3.76231 3.90625H0V4.4375H7.4375V-0.34375H6.90625Z" fill="#E6E7E8"/>
<path d="M9.5625 4.4375V-0.34375H7.4375V4.4375H0V6.5625H7.4375V11.3438H9.5625V6.5625H17V4.4375H9.5625Z" fill="#BE1E2D"/>
<path d="M5.82726 3.90591L0.501476 0.726641C0.386991 0.896641 0.295085 1.08364 0.219116 1.28286L4.61441 3.90591H5.82646M16.7583 9.77356L12.2923 7.09341H11.0556L16.4512 10.3391C16.5763 10.1642 16.6794 9.97466 16.7583 9.77463M16.1285 0.291016L10.0855 3.90591L11.3124 3.9067L16.5269 0.784813C16.4106 0.573109 16.2878 0.436578 16.1285 0.291016M0.481554 10.2477C0.60104 10.4297 0.744834 10.5945 0.908944 10.7375L6.92296 7.09341H5.71091L0.481554 10.2477Z" fill="#BE1E2D"/>
</g>
<defs>
<clipPath id="clip0_864_43669">
<rect width="17" height="11" fill="white"/>
</clipPath>
</defs>
</svg>
