<svg width="17" height="12" viewBox="0 0 17 12" fill="none" xmlns="http://www.w3.org/2000/svg">
<g clip-path="url(#clip0_864_43525)">
<path d="M15.7808 0.389727C15.393 0.142636 14.9148 0 14.3448 0H2.65731C2.07878 0 1.59587 0.147273 1.20514 0.400636L8.48353 4.70482L15.7808 0.389727Z" fill="#128807"/>
<path d="M16.9394 9.70577C16.9782 9.47913 17 9.24349 17 8.99995V2.99995C17.0005 2.72231 16.9729 2.44537 16.9177 2.17358L10.5602 5.93286L16.9405 9.70495M0.0788926 2.19268C0.0261697 2.45835 -0.000261498 2.72882 1.95001e-06 2.99995V8.99995C1.95001e-06 9.23695 0.0204551 9.46631 0.0571113 9.68749L6.40502 5.9334L0.0788926 2.19268Z" fill="#25333A"/>
<path d="M1.10077 11.5279C1.50824 11.8249 2.02568 11.9997 2.65627 11.9997H14.3438C14.9664 11.9997 15.4783 11.8293 15.8833 11.5388L8.48275 7.16211L1.10077 11.5279Z" fill="#128807"/>
<path d="M16.9394 9.70574L10.5591 5.93365L16.9166 2.17438C16.7612 1.41101 16.38 0.77283 15.7786 0.389648L8.48166 4.70474L1.203 0.400558C0.605874 0.788103 0.229483 1.42819 0.0778115 2.19265L6.40394 5.93365L0.0560303 9.68747C0.18353 10.4582 0.532561 11.1136 1.09967 11.5278L8.48166 7.16147L15.8822 11.5387C16.4539 11.1288 16.8074 10.4756 16.9384 9.70547" fill="#F9CB38"/>
</g>
<defs>
<clipPath id="clip0_864_43525">
<rect width="17" height="12" fill="white"/>
</clipPath>
</defs>
</svg>
