<svg width="15" height="10" viewBox="0 0 15 10" fill="none" xmlns="http://www.w3.org/2000/svg">
<g clip-path="url(#clip0_864_42772)">
<path d="M0 3.40918H15V6.591H0V3.40918Z" fill="#137A08"/>
<path d="M12.6562 0H2.34375C0.790547 0 0 1.11932 0 2.5V3.40909H15V2.5C15 1.11932 14.2095 0 12.6562 0Z" fill="#F9CB38"/>
<path d="M0 7.49991C0 8.88059 0.790547 9.99991 2.34375 9.99991H12.6562C14.2095 9.99991 15 8.88059 15 7.49991V6.59082H0V7.49991Z" fill="#EC1C24"/>
<path d="M11.3922 3.93824L8.43982 3.94301L7.52576 1.04688L6.61639 3.94301L3.66162 3.93824L6.05459 5.7021L5.1267 8.57801L7.52811 6.79051L9.93279 8.57801L9.00232 5.7021L11.3922 3.93824Z" fill="#E6E7E8"/>
</g>
<defs>
<clipPath id="clip0_864_42772">
<rect width="15" height="10" fill="white"/>
</clipPath>
</defs>
</svg>
