<svg width="15" height="11" viewBox="0 0 15 11" fill="none" xmlns="http://www.w3.org/2000/svg">
<g clip-path="url(#clip0_864_42731)">
<path d="M14.9934 2.5525L1.99501 10.9688L1.99454 10.9762C2.1061 10.991 2.22165 10.9998 2.34306 10.9998H3.23954L14.9981 3.3855V2.74975C14.9981 2.683 14.9946 2.618 14.9918 2.5525M0.00704102 8.461L0.00657227 8.455L13.0214 0.0274999C12.9042 0.0112499 12.7835 0 12.6558 0H11.7752L0.000244141 7.625V8.25C0.000244141 8.32125 0.00282227 8.39125 0.00657227 8.461H0.00750977" fill="#FEFE01"/>
<path d="M14.9937 2.55236V2.54986V2.55236ZM15 2.55236V2.55036C15 2.47511 14.9871 2.40086 14.9798 2.32761C14.9789 2.31836 14.9761 2.30886 14.9752 2.29961C14.9671 2.22922 14.9571 2.15911 14.9452 2.08936C14.9435 2.07986 14.9414 2.07036 14.94 2.06111C14.9277 1.99147 14.9133 1.92227 14.8969 1.85361L14.8936 1.84161C14.8043 1.47411 14.6569 1.14261 14.4532 0.865606L14.4525 0.864856C14.4134 0.812004 14.3721 0.761037 14.3287 0.712106L14.3173 0.699106C14.2743 0.651517 14.2294 0.605973 14.1827 0.562606L14.1712 0.551856C13.8696 0.276606 13.4864 0.0908555 13.0221 0.0268555L0.00726318 8.45436C0.0110132 8.53136 0.0171069 8.60686 0.0250757 8.68161L0.0271851 8.70411C0.0351538 8.77561 0.0452319 8.84611 0.0571851 8.91611L0.0621069 8.94485C0.0745288 9.0141 0.0883569 9.0826 0.104763 9.1496L0.109685 9.16986C0.200154 9.53461 0.347341 9.8641 0.551248 10.1394L0.551951 10.1406C0.590388 10.1924 0.631404 10.2416 0.67406 10.2899L0.688826 10.3066C0.730544 10.3526 0.773904 10.3964 0.819373 10.4384L0.838123 10.4551C0.884529 10.4971 0.93281 10.5374 0.983201 10.5749L0.993982 10.5824C1.2689 10.7849 1.60359 10.9214 1.99125 10.9731L15.0014 2.55236" fill="#25333A"/>
<path d="M2.34375 0C0.790547 0 0 1.23125 0 2.75V7.625L11.7757 0H2.34375Z" fill="#29B473"/>
<path d="M12.6562 11C14.2095 11 15 9.76874 15 8.24999V3.38574L3.24023 11H12.6562Z" fill="#1B75BB"/>
</g>
<defs>
<clipPath id="clip0_864_42731">
<rect width="15" height="11" fill="white"/>
</clipPath>
</defs>
</svg>
