<svg width="17" height="11" viewBox="0 0 17 11" fill="none" xmlns="http://www.w3.org/2000/svg">
<g clip-path="url(#clip0_864_44604)">
<path d="M14.3438 0H2.65625C0.895953 0 0 1.23125 0 2.75V8.25C0 9.76875 0.895953 11 2.65625 11H10.625V4.25H17V2.75C17 1.23125 16.104 0 14.3438 0Z" fill="#137A08"/>
<path d="M14.875 10.9565C16.2828 10.7315 17 9.607 17 8.25V4.25H14.875V10.9565Z" fill="#EF7D00"/>
<path d="M14.3438 11C14.5313 11 14.7069 10.9835 14.875 10.9565V4.25H12.75V11H14.3438Z" fill="#25333A"/>
<path d="M10.625 4.25H12.75V11H10.625V4.25Z" fill="#DE2010"/>
<path d="M13.9915 2.67121C13.9961 2.67446 14.1074 2.78246 14.2163 2.77671C14.2574 2.74746 14.1313 2.68296 14.1313 2.66771C14.1764 2.70271 14.3621 2.84146 14.4811 2.79121C14.5286 2.73271 14.3964 2.74146 14.2505 2.58321C14.3533 2.64221 14.607 2.77021 14.726 2.72096C14.7767 2.67421 14.4614 2.52796 14.3555 2.41346L14.0842 2.29346L13.7142 2.55371L13.9915 2.67121" fill="#EF7D00"/>
<path d="M14.4234 2.811C14.3592 2.811 14.2877 2.77925 14.2298 2.74575C14.2317 2.74949 14.2334 2.75333 14.2348 2.75725C14.2352 2.76238 14.2343 2.76753 14.2322 2.77226C14.2301 2.777 14.2268 2.7812 14.2226 2.7845C14.2209 2.78548 14.219 2.786 14.217 2.786H14.2088C14.1103 2.786 14.0138 2.7045 13.9867 2.67825L13.71 2.562C13.7068 2.56075 13.7041 2.55875 13.7041 2.5545C13.7033 2.5515 13.706 2.54825 13.7084 2.54575L14.0779 2.28475C14.0808 2.2835 14.0845 2.28225 14.0872 2.28425L14.3594 2.40425L14.3634 2.40675C14.4067 2.45525 14.4917 2.51075 14.5682 2.56C14.6726 2.62875 14.7385 2.67325 14.7414 2.7055C14.7417 2.70937 14.7411 2.71326 14.7396 2.71688C14.7381 2.72051 14.7358 2.72379 14.7329 2.7265C14.7313 2.729 14.7308 2.729 14.7289 2.73025C14.7071 2.73795 14.6839 2.74168 14.6606 2.74125C14.5501 2.74125 14.399 2.6735 14.3084 2.625C14.3589 2.671 14.4062 2.69525 14.4402 2.71425C14.4747 2.73275 14.4965 2.745 14.5005 2.7635C14.5023 2.774 14.4997 2.7845 14.4893 2.796C14.488 2.79825 14.4869 2.79925 14.4853 2.8C14.4656 2.80727 14.4446 2.811 14.4234 2.811M14.1307 2.6585C14.1342 2.6585 14.1358 2.659 14.1374 2.66075C14.165 2.68275 14.309 2.792 14.4232 2.792C14.4407 2.79251 14.4582 2.78953 14.4744 2.78325C14.4787 2.7775 14.4808 2.77175 14.4803 2.76775C14.4776 2.75725 14.4564 2.74575 14.4298 2.73125C14.3847 2.70525 14.3151 2.66725 14.2425 2.58875C14.2417 2.58796 14.241 2.58701 14.2405 2.58596C14.24 2.5849 14.2398 2.58377 14.2398 2.58263C14.2398 2.58148 14.24 2.58035 14.2405 2.5793C14.241 2.57825 14.2417 2.5773 14.2425 2.5765C14.2457 2.573 14.2502 2.5725 14.2561 2.575C14.2978 2.59975 14.5191 2.7225 14.6604 2.7225C14.6824 2.7225 14.7029 2.719 14.7193 2.71275L14.7199 2.70775C14.7175 2.6815 14.6354 2.628 14.5547 2.576C14.4805 2.52525 14.3947 2.4695 14.3483 2.421L14.0845 2.304L13.7336 2.5515L13.9971 2.66275C13.9971 2.66275 13.9982 2.66275 13.9995 2.6645L14 2.665C14.0189 2.68125 14.1158 2.76675 14.2085 2.76675H14.2128C14.2137 2.76578 14.2143 2.76455 14.2144 2.76325C14.2144 2.74675 14.1769 2.71975 14.156 2.702C14.1307 2.68525 14.1209 2.67625 14.1209 2.667C14.1209 2.667 14.1235 2.66025 14.1278 2.6585H14.1307" fill="black"/>
<path d="M15.2947 1.59786C15.2947 1.59786 16.0664 1.31336 16.1407 1.25586C16.1753 1.29061 15.8318 1.64811 15.1664 1.78036C15.771 1.65711 16.2866 1.27011 16.3915 1.28211C16.4236 1.28836 16.4157 1.65986 15.0307 1.98211C15.988 1.76586 16.5445 1.36711 16.5373 1.41011C16.5445 1.41936 16.4433 1.72486 15.6047 1.96211C15.839 1.91511 16.4738 1.58136 16.4667 1.64461C16.4876 1.67186 15.8525 2.37411 14.7048 2.14711C15.6212 2.35161 16.2151 1.85661 16.3012 1.86536C16.3176 1.86836 16.1309 2.29861 14.977 2.32586C15.5303 2.27561 15.371 2.32286 15.371 2.32286C15.371 2.32286 15.0445 2.54211 14.6514 2.39286C14.9598 2.46536 14.994 2.46861 15.0007 2.49286C14.9807 2.52186 14.7257 2.56511 14.4808 2.45061C14.6774 2.52186 14.8554 2.53311 14.8588 2.55911C14.8554 2.56786 14.7292 2.63011 14.6168 2.58611C14.5047 2.54186 13.4733 1.99336 13.4733 1.99336L15.2315 1.57761L15.2952 1.59786" fill="#EF7D00"/>
<path d="M14.705 2.61008C14.6736 2.61027 14.6425 2.60511 14.6131 2.59483C14.5013 2.55133 13.5102 2.02408 13.4682 2.00258C13.4643 2.00058 13.4624 1.99633 13.4627 1.99133C13.4627 1.99133 13.4672 1.98458 13.4709 1.98458L15.2293 1.56808H15.2344L15.2952 1.58758C15.3515 1.56683 16.065 1.30233 16.1354 1.24783C16.1374 1.24654 16.1398 1.24594 16.1422 1.24613C16.1446 1.24631 16.1469 1.24726 16.1487 1.24883C16.1524 1.25183 16.1548 1.25783 16.1529 1.26783C16.1447 1.30708 16.0589 1.40008 15.9064 1.49983C15.9835 1.46133 16.0554 1.42408 16.1195 1.39033C16.26 1.31508 16.3521 1.26783 16.3941 1.27158C16.4 1.27283 16.4071 1.27658 16.4095 1.29208C16.4154 1.33983 16.3665 1.44833 16.1681 1.57733C16.2732 1.52758 16.3567 1.48408 16.4156 1.45233C16.4942 1.41183 16.5219 1.39733 16.5357 1.39733C16.541 1.39733 16.5442 1.39908 16.5452 1.40133C16.5468 1.40333 16.5492 1.40558 16.5492 1.40883C16.5492 1.40883 16.5492 1.41508 16.5487 1.41883C16.5474 1.41883 16.5205 1.53133 16.3033 1.67533C16.3795 1.64408 16.431 1.62708 16.4549 1.62708C16.4634 1.62708 16.4703 1.62908 16.4741 1.63258C16.4751 1.63508 16.4773 1.63808 16.4773 1.63808C16.4786 1.64433 16.4786 1.64758 16.4773 1.65133C16.4709 1.67733 16.3877 1.77133 16.2393 1.87533C16.2687 1.86058 16.2892 1.85333 16.3027 1.85458C16.3078 1.85583 16.312 1.85933 16.312 1.86708C16.3112 1.91058 16.1311 2.20383 15.3999 2.30233C15.4012 2.30433 15.4012 2.30608 15.4012 2.30608C15.4033 2.31433 15.4012 2.32208 15.3754 2.33033C15.3582 2.34083 15.1855 2.44908 14.9499 2.45358C14.9948 2.46583 15.006 2.47358 15.0102 2.48883C15.0121 2.49258 15.011 2.49458 15.0091 2.49708C14.9948 2.51608 14.9212 2.53283 14.8362 2.53383C14.8572 2.54008 14.8673 2.54783 14.8684 2.55858V2.56233C14.8625 2.57658 14.7855 2.61008 14.705 2.61008M13.5001 1.99733C13.651 2.07733 14.5204 2.53783 14.6208 2.57708C14.6466 2.58708 14.675 2.59208 14.705 2.59208C14.7682 2.59108 14.8253 2.56858 14.8445 2.55883C14.8293 2.55058 14.7865 2.54058 14.744 2.53158L14.7385 2.53108C14.6474 2.52188 14.5588 2.49777 14.4766 2.45983C14.4715 2.45683 14.4699 2.45158 14.4715 2.44758C14.475 2.44208 14.479 2.44008 14.4851 2.44208C14.5833 2.47733 14.679 2.49858 14.7417 2.51108C14.7682 2.51483 14.7964 2.51608 14.8216 2.51608C14.9162 2.51608 14.9735 2.49933 14.9882 2.48933C14.981 2.48158 14.9512 2.47283 14.8561 2.45083C14.7844 2.44331 14.7141 2.42674 14.6471 2.40158C14.6449 2.40055 14.6432 2.39883 14.6423 2.39671C14.6414 2.3946 14.6413 2.39225 14.642 2.39008C14.6426 2.38483 14.6479 2.38258 14.6537 2.38308L14.7993 2.41783C14.8216 2.42358 14.8405 2.42783 14.8591 2.43208C14.8838 2.43358 14.9082 2.43558 14.9334 2.43558C15.1826 2.43558 15.3632 2.31583 15.3648 2.31558C15.3661 2.31458 15.3667 2.31458 15.3683 2.31458V2.31233C15.3611 2.31108 15.3499 2.31108 15.3324 2.31108H15.3298C15.2206 2.32358 15.1016 2.33133 14.977 2.33433C14.9746 2.33426 14.9723 2.33331 14.9706 2.33168C14.9689 2.33004 14.968 2.32786 14.968 2.32558C14.9666 2.32033 14.9704 2.31633 14.9759 2.31533C15.143 2.30058 15.2623 2.29283 15.3292 2.29283C15.746 2.24583 15.9848 2.13683 16.1094 2.05508C16.2281 1.97733 16.2794 1.90283 16.2902 1.87583C16.2687 1.88083 16.2284 1.90158 16.1803 1.92558C16.1218 1.95633 16.0488 1.99333 15.9598 2.03358C15.8475 2.08433 15.7274 2.12358 15.6044 2.15133C15.3092 2.22329 14.9996 2.22466 14.7037 2.15533C14.6981 2.15383 14.6944 2.14958 14.6949 2.14458C14.6962 2.13908 14.7015 2.13633 14.7074 2.13708C14.8546 2.16704 15.0048 2.18221 15.1555 2.18233C15.3072 2.18233 15.457 2.16583 15.6002 2.13333C15.721 2.10463 15.8386 2.06529 15.9516 2.01583C16.2836 1.86533 16.451 1.67258 16.4581 1.64708H16.4549C16.4207 1.64708 16.2977 1.69858 16.184 1.74708C16.0472 1.81974 15.9032 1.87961 15.754 1.92583C15.6931 1.94833 15.6437 1.96383 15.6068 1.97108C15.6012 1.97233 15.5975 1.96883 15.5956 1.96483C15.5935 1.95933 15.5975 1.95433 15.6023 1.95283C15.652 1.93808 15.7011 1.92383 15.7473 1.90933C15.8549 1.86883 15.9874 1.81158 16.1062 1.75933C16.129 1.75008 16.1524 1.74083 16.1747 1.73008C16.4544 1.57883 16.5163 1.45033 16.5267 1.41933C16.5091 1.42608 16.4701 1.44708 16.4255 1.46958C16.3277 1.52058 16.1641 1.60658 15.9484 1.69808C15.759 1.78608 15.5191 1.86783 15.2341 1.94208C15.1677 1.95908 15.1 1.97683 15.0336 1.99133C15.0285 1.99183 15.0232 1.98983 15.0214 1.98508C15.0203 1.97983 15.0238 1.97358 15.0293 1.97358C15.0976 1.95783 15.1651 1.94008 15.2285 1.92383C15.4705 1.85958 15.7093 1.77683 15.9396 1.68083C16.0334 1.63683 16.3436 1.48158 16.3872 1.32183C16.3906 1.31188 16.391 1.30125 16.3885 1.29108H16.3877C16.3492 1.29108 16.252 1.34233 16.1285 1.40683C15.9994 1.47533 15.8376 1.56083 15.6514 1.63833C15.4976 1.70643 15.3356 1.75696 15.169 1.78883C15.1679 1.78931 15.1666 1.78952 15.1653 1.78945C15.1641 1.78938 15.1628 1.78902 15.1618 1.78841C15.1607 1.7878 15.1597 1.78695 15.1591 1.78594C15.1584 1.78492 15.158 1.78377 15.1579 1.78258C15.156 1.77708 15.1597 1.77233 15.1651 1.77108C15.3296 1.73642 15.49 1.68608 15.6437 1.62083C15.9465 1.48508 16.1083 1.32383 16.1311 1.27333C15.9981 1.34983 15.329 1.59633 15.2997 1.60808C15.2974 1.60858 15.2949 1.60858 15.2926 1.60808L15.2317 1.58758L13.5001 1.99733" fill="black"/>
<path d="M13.2295 3.08032C13.0746 3.08032 13.0704 3.19982 13.0704 3.19982C13.0704 3.19982 13.0571 3.20782 13.0659 3.26532C13.0911 3.22657 13.1033 3.21432 13.1033 3.21432C13.1211 3.21682 13.1918 3.23457 13.3036 3.15907C13.2011 3.25082 13.2632 3.28532 13.2632 3.28532C13.2632 3.28532 13.238 3.35707 13.3169 3.37232C13.293 3.34282 13.3065 3.31682 13.3065 3.31682C13.3065 3.31682 13.4162 3.30682 13.409 3.19232C13.4141 3.29632 13.4786 3.32207 13.4786 3.32207C13.4786 3.32207 13.4786 3.37932 13.5493 3.38432C13.511 3.35507 13.5198 3.31007 13.5198 3.31007C13.5198 3.31007 13.613 3.25157 13.5342 3.15407C13.5809 3.13082 13.6189 3.06557 13.6189 3.06557C13.6189 3.06557 13.5551 3.04357 13.5254 3.02357C13.511 2.99757 13.5241 2.85757 13.5241 2.85757L13.4853 2.67432L13.3766 2.95832C13.3798 2.91732 13.3825 3.08032 13.2295 3.08032" fill="#EF7D00"/>
<path d="M13.5495 3.39429C13.4844 3.38954 13.4722 3.34479 13.4698 3.32829C13.4407 3.31101 13.4196 3.28406 13.4106 3.25279C13.4023 3.27159 13.3892 3.28816 13.3725 3.30103C13.3558 3.3139 13.3359 3.32267 13.3147 3.32654C13.3129 3.33323 13.3127 3.34023 13.3144 3.34697C13.316 3.35371 13.3193 3.35999 13.324 3.36529C13.3255 3.36649 13.3267 3.36804 13.3274 3.36979C13.3274 3.37729 13.3219 3.38179 13.3173 3.38179H13.3158C13.2895 3.37654 13.2711 3.36554 13.26 3.34804C13.2456 3.32654 13.2496 3.30004 13.2515 3.28854C13.2427 3.28028 13.2372 3.26941 13.2361 3.25779C13.2329 3.23979 13.239 3.22029 13.2544 3.20004C13.2194 3.21716 13.1807 3.22665 13.1412 3.22779C13.1269 3.22779 13.1147 3.22504 13.1086 3.22404C13.0962 3.23897 13.0849 3.25467 13.0748 3.27104C13.073 3.27404 13.0682 3.27554 13.0642 3.27504C13.0621 3.27469 13.0602 3.27376 13.0587 3.27238C13.0572 3.271 13.0561 3.26923 13.0557 3.26729C13.0499 3.22204 13.0552 3.20329 13.0608 3.19604C13.0631 3.15104 13.1019 3.07104 13.23 3.07104C13.3386 3.07104 13.3628 2.98504 13.367 2.96054C13.367 2.96054 13.366 2.95829 13.367 2.95729C13.367 2.95729 13.3678 2.94804 13.3723 2.94429L13.477 2.67104C13.4794 2.66654 13.4828 2.66504 13.4871 2.66504C13.4916 2.66554 13.4958 2.66779 13.4964 2.67229L13.5346 2.85454V2.85754C13.5304 2.90954 13.5261 2.99629 13.5346 3.01729C13.5641 3.03579 13.6233 3.05729 13.6233 3.05729C13.6263 3.05879 13.6287 3.06054 13.6289 3.06279C13.6305 3.06554 13.6305 3.06854 13.6284 3.07079C13.6265 3.07279 13.5933 3.12979 13.5487 3.15729C13.5715 3.18804 13.5803 3.21829 13.5739 3.24704C13.5678 3.28479 13.5394 3.30679 13.5304 3.31454C13.529 3.32602 13.5306 3.33763 13.535 3.34842C13.5394 3.3592 13.5465 3.36884 13.5556 3.37654C13.5585 3.37804 13.5599 3.38179 13.5599 3.38179C13.5593 3.38979 13.5551 3.39429 13.5495 3.39429M13.4093 3.18254C13.4148 3.18254 13.4196 3.18604 13.4196 3.19179V3.19579C13.4252 3.28854 13.4804 3.31204 13.4831 3.31329C13.4847 3.31426 13.486 3.31555 13.4869 3.31706C13.4879 3.31858 13.4885 3.32028 13.4887 3.32204C13.4887 3.32204 13.4892 3.35504 13.5229 3.36879C13.5049 3.34004 13.5099 3.31029 13.5099 3.30829C13.5105 3.30579 13.5113 3.30429 13.5144 3.30204C13.5144 3.30204 13.5476 3.28004 13.5543 3.24379C13.5588 3.21804 13.5492 3.18979 13.5267 3.15954C13.5243 3.15854 13.5237 3.15504 13.5243 3.15279C13.5243 3.15279 13.5267 3.14754 13.5298 3.14604C13.5636 3.12954 13.5915 3.08929 13.6045 3.07129C13.575 3.06044 13.5466 3.04705 13.5198 3.03129L13.5174 3.02979C13.502 3.00204 13.5113 2.88379 13.5142 2.85779L13.4831 2.71029L13.3885 2.95829C13.3864 2.97204 13.3657 3.09004 13.2297 3.09004C13.0865 3.09004 13.0801 3.19554 13.0801 3.20004C13.0796 3.20329 13.0788 3.20479 13.0772 3.20629C13.0756 3.20754 13.0727 3.21554 13.0732 3.23779C13.0797 3.2269 13.0878 3.21689 13.0971 3.20804C13.099 3.20554 13.1027 3.20454 13.1054 3.20454C13.1072 3.20454 13.1083 3.20454 13.1096 3.20554C13.1165 3.20629 13.1266 3.20804 13.141 3.20804C13.1896 3.20804 13.2424 3.18954 13.2982 3.15079C13.3033 3.14904 13.308 3.14904 13.3126 3.15229C13.315 3.15729 13.315 3.16279 13.3112 3.16654C13.261 3.21054 13.2536 3.23979 13.2547 3.25504C13.2565 3.27104 13.2677 3.27754 13.2677 3.27754C13.2727 3.28004 13.2733 3.28379 13.2727 3.28829C13.2727 3.28829 13.2634 3.31704 13.2778 3.33904C13.2822 3.34584 13.2883 3.3515 13.2956 3.35554C13.2907 3.34213 13.2914 3.32751 13.2974 3.31454C13.299 3.31004 13.3033 3.30829 13.3059 3.30704C13.3198 3.30574 13.3333 3.30184 13.3455 3.29558C13.3578 3.28932 13.3686 3.28081 13.3773 3.27057C13.3861 3.26033 13.3926 3.24855 13.3964 3.23592C13.4002 3.2233 13.4013 3.21008 13.3997 3.19704V3.19254C13.3997 3.18729 13.4037 3.18329 13.4085 3.18329L13.4093 3.18254" fill="black"/>
<path d="M13.5761 1.78C13.5761 1.78 13.7007 1.716 14.2033 1.74675C14.2577 1.753 14.5464 1.663 14.6373 1.6365C14.7839 1.61325 15.248 1.52425 15.3752 1.44275C15.4623 1.434 15.3505 1.58375 15.2392 1.6185C15.1199 1.6655 14.6896 1.79525 14.5361 1.7765C14.7186 1.78025 14.6174 1.909 14.3116 1.847C14.4575 1.91775 14.4038 1.92925 14.4038 1.92925C14.4038 1.92925 14.1453 1.94075 14.0773 1.891C14.2505 1.94675 14.1793 1.96825 14.1793 1.96825C14.1793 1.96825 14.0024 1.982 13.9212 1.95025C14.0468 1.982 13.9825 2.003 13.9825 2.003C13.9825 2.003 13.8805 2.0175 13.7958 1.99125C13.711 1.96425 13.5822 1.78 13.5761 1.78" fill="#EF7D00"/>
<path d="M13.9161 2.01492C13.8694 2.01492 13.8274 2.00942 13.7939 1.99892C13.7259 1.97792 13.6351 1.86667 13.5918 1.81267C13.583 1.80167 13.5737 1.78942 13.5697 1.78692C13.5676 1.78557 13.5661 1.78352 13.5655 1.78117C13.565 1.77717 13.566 1.77292 13.5711 1.77092C13.5735 1.76842 13.6561 1.72817 13.9456 1.72817C14.0226 1.72817 14.1106 1.73142 14.2033 1.73717H14.2091C14.2614 1.73717 14.4553 1.68042 14.5709 1.64592C14.5969 1.63767 14.6187 1.63067 14.6346 1.62642H14.636C14.7866 1.60192 15.2453 1.51467 15.3683 1.43317H15.3733C15.4071 1.42917 15.4145 1.44792 15.4161 1.45517C15.4235 1.49917 15.3306 1.59867 15.2416 1.62667C15.1359 1.66942 14.8102 1.76742 14.6208 1.78517C14.6357 1.79467 14.6373 1.80592 14.6373 1.81167C14.6357 1.84242 14.5757 1.87317 14.4649 1.87317C14.4344 1.87317 14.4033 1.86992 14.3703 1.86542C14.4189 1.89517 14.4256 1.91092 14.4232 1.92117C14.4213 1.93142 14.412 1.93692 14.4062 1.93717H14.4041C14.4041 1.93717 14.3775 1.93917 14.3385 1.93917C14.2973 1.93917 14.2426 1.93717 14.1924 1.93292C14.2011 1.93917 14.2051 1.94617 14.2035 1.95392C14.203 1.96967 14.1847 1.97592 14.1828 1.97592H14.1817C14.1796 1.97592 14.14 1.97917 14.088 1.97917C14.0603 1.97942 14.0326 1.97833 14.0051 1.97592C14.008 1.9795 14.0096 1.9839 14.0096 1.98842C14.0096 2.00292 13.9878 2.01117 13.9862 2.01117L13.9846 2.01167C13.9836 2.01117 13.9546 2.01492 13.9161 2.01492M13.5918 1.78242C13.5975 1.78844 13.6028 1.79488 13.6075 1.80167C13.6505 1.85417 13.7376 1.96192 13.799 1.98092C13.8319 1.99067 13.871 1.99667 13.9161 1.99667C13.9493 1.99667 13.9754 1.99242 13.9804 1.99242C13.9849 1.99067 13.9892 1.98792 13.9892 1.98792V1.98742C13.9892 1.98742 13.9862 1.97867 13.9528 1.96767C13.9408 1.96551 13.929 1.96224 13.9177 1.95792C13.9155 1.95668 13.9138 1.95483 13.9128 1.95263C13.9118 1.95044 13.9116 1.94801 13.9121 1.94567C13.9137 1.94067 13.918 1.93892 13.9244 1.93992C13.9371 1.94367 13.9491 1.94567 13.9589 1.94917C13.9913 1.95667 14.0356 1.95967 14.0877 1.95967C14.1331 1.95967 14.1703 1.95792 14.1775 1.95717C14.1804 1.95667 14.1831 1.95342 14.1831 1.95342C14.1831 1.95342 14.1831 1.94267 14.1414 1.92367C14.1162 1.92041 14.0923 1.91139 14.0718 1.89742C14.0673 1.89592 14.0662 1.88967 14.0686 1.88617C14.0704 1.88167 14.0758 1.87992 14.0811 1.88167C14.1074 1.88942 14.1297 1.89792 14.1472 1.90642C14.2051 1.91792 14.2837 1.92017 14.3379 1.92017C14.3717 1.92017 14.3956 1.91892 14.4022 1.91892C14.4027 1.91892 14.4027 1.91842 14.4027 1.91842C14.4027 1.91842 14.4027 1.90067 14.3071 1.85492C14.3021 1.85242 14.3005 1.84842 14.3021 1.84317C14.3047 1.83817 14.3087 1.83592 14.3138 1.83642C14.3677 1.84842 14.4184 1.85417 14.4644 1.85417C14.569 1.85417 14.616 1.82417 14.6168 1.81042C14.6168 1.80167 14.6006 1.79117 14.5634 1.78692C14.5523 1.78692 14.543 1.78592 14.535 1.78542C14.5292 1.78467 14.5252 1.78092 14.5252 1.77542C14.5268 1.77067 14.5297 1.76692 14.5358 1.76692C14.5462 1.76692 14.5552 1.76692 14.564 1.76742H14.5685C14.7388 1.76742 15.1173 1.65517 15.2341 1.60867C15.3221 1.58117 15.4012 1.48667 15.3959 1.45767C15.3959 1.45767 15.3938 1.45092 15.3816 1.45092H15.3776C15.2485 1.53242 14.7919 1.61992 14.6402 1.64367C14.6191 1.65048 14.5977 1.65674 14.5762 1.66242C14.4527 1.70017 14.2641 1.75617 14.2088 1.75617H14.2019C14.109 1.74992 14.0224 1.74617 13.9453 1.74617C13.7222 1.74642 13.6247 1.77292 13.5918 1.78242" fill="black"/>
<path d="M13.7758 2.73162L13.7947 3.01787C13.7947 3.01787 13.7843 3.03237 13.7758 3.04187C13.7679 3.05062 13.541 3.01162 13.5716 3.16112C13.5716 3.22237 13.5729 3.23837 13.622 3.27212C13.6082 3.23137 13.6127 3.20362 13.6127 3.20362C13.6127 3.20362 13.6773 3.23687 13.7389 3.14612C13.6969 3.23512 13.7259 3.26762 13.7362 3.26987C13.7469 3.28587 13.7195 3.35787 13.8048 3.35612C13.7713 3.33062 13.788 3.29062 13.788 3.29062C13.788 3.29062 13.8768 3.27787 13.8459 3.13937C13.8784 3.11012 13.8916 3.13737 13.8916 3.13737C13.8916 3.13737 13.9007 3.22087 13.9788 3.20387C14.0149 3.22087 13.9737 3.26612 13.9737 3.26612C13.9737 3.26612 14.0303 3.26787 14.0473 3.22587C14.0635 3.18437 14.0842 3.10962 13.9907 3.07812C13.9785 3.04912 14.0263 3.04737 14.0263 3.04737C14.0263 3.04737 14.0869 3.06462 14.1041 3.08962C14.1209 3.11587 14.1158 3.02362 14.042 3.01262C13.9506 3.01012 13.9453 2.99337 13.9453 2.99337C13.9453 2.98712 13.9294 2.78187 13.9235 2.72412L13.7758 2.73162" fill="#EF7D00"/>
<path d="M13.8029 3.36605C13.731 3.36605 13.7304 3.31705 13.7288 3.29005L13.728 3.2753C13.7222 3.27157 13.7176 3.26648 13.7145 3.26055C13.7057 3.23811 13.7045 3.21362 13.7113 3.19055C13.6741 3.2218 13.6406 3.22005 13.6223 3.21655C13.6234 3.22755 13.6242 3.2448 13.6313 3.2668L13.6319 3.27155C13.6319 3.2763 13.6274 3.28105 13.6223 3.28105C13.6189 3.28105 13.6173 3.27955 13.6154 3.27955C13.5652 3.24255 13.562 3.2238 13.562 3.1608C13.5548 3.12605 13.5602 3.09705 13.5795 3.07705C13.613 3.0373 13.6826 3.03155 13.731 3.03155C13.7373 3.03109 13.7437 3.03177 13.7498 3.03355H13.7623C13.7671 3.03355 13.7695 3.03355 13.7708 3.03155C13.7761 3.02655 13.7806 3.02092 13.7843 3.0148L13.766 2.73205C13.766 2.7263 13.7711 2.7223 13.7758 2.72155L13.9219 2.71355C13.9278 2.71255 13.9318 2.71605 13.9318 2.72155C13.9395 2.77755 13.9541 2.9688 13.9546 2.9883C13.9586 2.9908 13.9719 3.00055 14.042 3.0028H14.0431C14.1031 3.00955 14.1238 3.06755 14.122 3.08855C14.1212 3.1018 14.1111 3.1028 14.1089 3.1028C14.1023 3.1028 14.0972 3.0968 14.0954 3.09455C14.0832 3.07605 14.0431 3.06005 14.0258 3.05655C14.0192 3.05705 14.0045 3.05905 14 3.0653C13.9995 3.0668 13.9982 3.06855 13.9995 3.07055C14.0269 3.07938 14.0495 3.09796 14.0625 3.1223C14.0755 3.15005 14.0736 3.18455 14.0566 3.2288C14.038 3.2738 13.9796 3.2748 13.9743 3.2748C13.9697 3.2748 13.9655 3.2733 13.9642 3.2693C13.9634 3.26768 13.9631 3.26589 13.9634 3.26412C13.9636 3.26236 13.9643 3.26069 13.9655 3.2593C13.9711 3.25305 13.9854 3.23455 13.9838 3.22155C13.9825 3.2183 13.982 3.2163 13.9772 3.21405C13.9711 3.2158 13.965 3.2158 13.9589 3.2158C13.906 3.2158 13.885 3.1678 13.8816 3.1403C13.8802 3.1388 13.8776 3.1353 13.8728 3.1353C13.8685 3.1353 13.863 3.1368 13.8563 3.14205C13.8672 3.1958 13.8627 3.2378 13.8412 3.26655C13.8299 3.2815 13.8138 3.29263 13.7952 3.2983C13.7934 3.30805 13.7891 3.33105 13.8106 3.34905C13.8149 3.35205 13.8154 3.3553 13.8136 3.35955C13.812 3.36355 13.8085 3.3658 13.8048 3.3658H13.8029V3.36605ZM13.7392 3.1363C13.7416 3.1363 13.7434 3.1368 13.7434 3.1368C13.7495 3.1398 13.7501 3.14455 13.7485 3.1493C13.7278 3.19455 13.7264 3.22155 13.7283 3.23655C13.7315 3.25305 13.7373 3.25955 13.7395 3.26105C13.7418 3.26155 13.7442 3.26205 13.7458 3.26505C13.7498 3.2713 13.7498 3.2803 13.7498 3.29055C13.7503 3.31255 13.7503 3.33805 13.7825 3.3458C13.7774 3.33679 13.7744 3.32687 13.7738 3.3167C13.7731 3.30653 13.7747 3.29634 13.7785 3.2868C13.7804 3.2843 13.783 3.2818 13.7867 3.2818C13.7873 3.2803 13.809 3.2778 13.8252 3.25555C13.8436 3.23055 13.8476 3.1913 13.8364 3.1408C13.8353 3.1373 13.8364 3.1348 13.8393 3.13205C13.851 3.1218 13.8627 3.1168 13.8733 3.1168C13.8882 3.1168 13.8978 3.12705 13.901 3.13455V3.1368C13.902 3.1393 13.9087 3.1963 13.9594 3.1963C13.9655 3.19627 13.9717 3.19577 13.9777 3.1948C13.979 3.19405 13.9828 3.1948 13.9844 3.1948C13.9893 3.19693 13.9936 3.2002 13.9968 3.20431C14 3.20842 14.002 3.21324 14.0027 3.2183C14.0064 3.23055 14.0003 3.2433 13.9955 3.25355C14.0099 3.25155 14.0306 3.2428 14.0372 3.22255C14.0542 3.1838 14.0563 3.15355 14.0452 3.13055C14.0354 3.11155 14.0154 3.09755 13.9873 3.08805C13.9859 3.08746 13.9846 3.0866 13.9836 3.08552C13.9826 3.08445 13.9819 3.08317 13.9814 3.0818C13.9761 3.0698 13.9798 3.06105 13.9844 3.05605C13.9955 3.0393 14.0237 3.0378 14.0266 3.0378H14.0311C14.0356 3.0393 14.0741 3.05105 14.098 3.0698C14.0958 3.06349 14.093 3.05738 14.0895 3.05155C14.0842 3.04382 14.0771 3.03724 14.0689 3.0322C14.0607 3.02717 14.0514 3.0238 14.0417 3.0223C13.9703 3.0203 13.9355 3.00955 13.9355 2.9913C13.9355 2.9858 13.9211 2.8008 13.9137 2.7338L13.7873 2.74205L13.8051 3.0183C13.8051 3.0203 13.8051 3.0223 13.8029 3.02455C13.8029 3.02455 13.7934 3.0393 13.7833 3.04905C13.7788 3.05455 13.7697 3.05305 13.7495 3.05255H13.7312C13.6869 3.05255 13.6244 3.05755 13.5947 3.08955C13.5795 3.1063 13.5764 3.12955 13.5817 3.1593L13.5825 3.1613C13.5825 3.20855 13.5835 3.2258 13.6058 3.2468C13.6008 3.2208 13.6037 3.2038 13.6037 3.2038C13.6037 3.19855 13.6058 3.19655 13.6088 3.19505C13.6127 3.1943 13.6154 3.1943 13.6186 3.19605C13.6261 3.1994 13.6344 3.20102 13.6428 3.2008C13.6648 3.2008 13.6977 3.1903 13.7312 3.14105C13.732 3.13969 13.7332 3.13855 13.7346 3.13772C13.7359 3.13689 13.7375 3.1364 13.7392 3.1363" fill="black"/>
<path d="M14.0941 2.97634C14.0946 2.96259 13.9384 2.78159 13.9772 2.75759C14.0178 2.76509 14.0824 2.84734 14.1339 2.82059C14.1185 2.78834 14.0715 2.80634 14.0192 2.72409C13.9655 2.63109 13.957 2.49134 13.7705 2.33934C13.8917 2.50034 14.1658 2.59484 14.1775 2.54809C14.1886 2.50084 13.936 2.32259 13.9488 2.28009C13.9992 2.36784 14.2532 2.56459 14.4407 2.54809C14.4537 2.51059 14.2877 2.43359 14.2455 2.36259C14.1249 2.29384 13.8051 2.05534 13.7982 2.00084C13.6818 1.85384 13.609 1.80984 13.575 1.79209C13.5615 1.77934 13.5591 1.76609 13.5567 1.75909C13.4847 1.61084 13.5806 1.56309 13.6356 1.55634C13.6818 1.55134 13.6964 1.55784 13.7286 1.54359C13.6898 1.53034 13.6502 1.51759 13.6114 1.50509C13.6619 1.53684 13.7931 1.50909 13.7644 1.60184C13.8229 1.58384 13.9443 1.45834 13.6268 1.42909C13.5235 1.32709 13.0972 1.26834 12.9912 1.71609C12.9992 1.72184 13.0042 1.72659 13.0305 1.74434C12.8972 1.68759 12.5338 1.64434 12.4036 1.62634C12.0509 1.53834 11.6856 1.32684 11.65 1.35209C11.6017 1.37059 11.862 1.58059 11.8493 1.58484C11.6232 1.47084 11.4176 1.39134 11.2256 1.31809C11.0909 1.27359 10.9565 1.17184 10.9406 1.19209C10.8912 1.28059 11.1568 1.50384 11.2059 1.53009C11.2561 1.55509 11.6455 1.71109 11.6394 1.71334C11.0537 1.48309 10.9546 1.44159 10.9254 1.41534C10.8742 1.40509 10.7485 1.25934 10.7129 1.26784C10.6946 1.28384 10.7323 1.51584 11.011 1.62034C11.0577 1.64909 11.611 1.81959 11.6054 1.83384C11.6054 1.83384 10.9714 1.60834 10.9469 1.59934C10.8245 1.55884 10.6755 1.41384 10.6468 1.42984C10.6197 1.44534 10.7156 1.60184 10.8394 1.65159C10.9036 1.67559 11.1517 1.78184 11.3759 1.84909C11.3895 1.85334 10.9735 1.71209 10.7732 1.64109C10.6834 1.59759 10.6399 1.54259 10.6263 1.55409C10.6056 1.56609 10.6595 1.79759 11.3013 1.92784C11.3188 1.93409 11.5276 1.88609 11.5175 1.89184C11.5143 1.89434 11.3098 1.93309 11.2888 1.93109C11.2718 1.92884 11.16 1.94209 11.1576 1.94709C11.1515 1.96309 11.198 2.04584 11.5297 2.02759C11.5728 2.02659 11.8023 1.95584 11.7831 1.97034C11.7741 1.97909 11.4694 2.06409 11.446 2.06659C11.4261 2.06834 11.3196 2.07809 11.3164 2.08734C11.3114 2.10134 11.3945 2.16034 11.5735 2.16934C11.7303 2.17659 12.0302 2.08609 12.0248 2.09234C12.0179 2.09759 11.735 2.18134 11.7284 2.18684C11.7173 2.19134 11.6147 2.19609 11.6105 2.20359C11.6028 2.22034 11.7603 2.34759 12.227 2.21209C12.1802 2.26634 11.9542 2.30409 11.9542 2.31409C11.9529 2.32184 12.0041 2.36284 12.0833 2.37859C12.1223 2.38584 12.1773 2.38484 12.2265 2.37759C12.3154 2.36184 12.4089 2.33234 12.5277 2.23734C12.5425 2.26609 12.2304 2.40334 12.2453 2.41609C12.3128 2.47009 12.5375 2.40934 12.5518 2.40134C12.5662 2.39409 12.9835 2.19084 12.9822 2.16834C12.9891 2.19809 12.4445 2.45309 12.4509 2.46359C12.4854 2.51259 12.6724 2.46159 12.6801 2.45734L12.9235 2.34284C12.9304 2.33984 12.6552 2.48209 12.6801 2.50409C12.6685 2.59634 13.1099 2.43934 13.1431 2.42034C13.1609 2.41034 12.9322 2.50734 12.9317 2.55334C13.0053 2.66084 13.2414 2.62734 13.2778 2.60309C13.2956 2.59134 13.2563 2.68259 13.269 2.67484C13.2967 2.65019 13.3202 2.62169 13.3386 2.59034C13.3328 2.62034 13.307 2.66809 13.2924 2.72284C13.2757 2.77634 13.2717 2.83784 13.2515 2.90334C13.2473 2.93209 13.3979 2.84709 13.3758 2.64559C13.3888 2.74984 13.3285 2.94684 13.3437 2.95709C13.3758 2.97809 13.4629 2.85934 13.4717 2.77884C13.4975 2.81984 13.5517 2.90384 13.5981 2.92409C13.5936 2.86234 13.6003 2.86509 13.5788 2.80559C13.591 2.72509 13.592 2.61459 13.5955 2.48934C13.7227 2.69934 13.7729 2.78859 13.7379 2.94959C13.7764 2.96384 13.8359 2.83784 13.8316 2.77309C13.8794 2.95434 14.0903 2.98109 14.0943 2.97634" fill="#EF7D00"/>
<path d="M14.0861 2.98567C14.0574 2.98567 13.8975 2.95317 13.8348 2.81917C13.825 2.86417 13.8003 2.91742 13.7745 2.94392C13.7596 2.95967 13.7458 2.96467 13.7325 2.95967C13.7272 2.95792 13.7248 2.95342 13.7262 2.94917C13.7586 2.80292 13.7206 2.72067 13.6024 2.52542C13.6005 2.63642 13.5981 2.73242 13.5875 2.80517C13.6024 2.85042 13.6029 2.86042 13.6048 2.88867C13.6048 2.89667 13.6053 2.90817 13.6066 2.92292V2.92342C13.6066 2.93017 13.6021 2.93392 13.596 2.93392H13.5936C13.5509 2.91517 13.5046 2.85167 13.4746 2.80667C13.4558 2.87992 13.3891 2.97017 13.3503 2.97017C13.3455 2.9701 13.3407 2.9689 13.3365 2.96667C13.3253 2.95892 13.3269 2.94167 13.3415 2.86417C13.3429 2.85542 13.3447 2.84717 13.3455 2.83817C13.3155 2.89192 13.2738 2.91967 13.2544 2.91967C13.2523 2.91963 13.2501 2.91913 13.2482 2.91822C13.2463 2.91732 13.2446 2.91602 13.2433 2.91442C13.2414 2.91292 13.2382 2.90917 13.2395 2.90242L13.2409 2.90167C13.252 2.86567 13.2579 2.83067 13.2648 2.79592C13.2693 2.76992 13.2738 2.74492 13.2804 2.72042C13.2876 2.69492 13.2959 2.67317 13.3051 2.65267C13.2953 2.6639 13.2842 2.6742 13.2722 2.68342C13.2711 2.68542 13.2682 2.68592 13.2664 2.68592C13.2629 2.68592 13.2592 2.68342 13.2573 2.68142C13.2528 2.67567 13.2547 2.66717 13.2629 2.64192L13.2693 2.61842C13.2417 2.62867 13.188 2.63842 13.1304 2.63842C13.0733 2.63842 12.9675 2.62792 12.9213 2.55892C12.9203 2.55892 12.9195 2.55567 12.9195 2.55567C12.9195 2.53417 12.9471 2.51092 12.9845 2.48717C12.8979 2.51467 12.7914 2.54267 12.7295 2.54267C12.7024 2.54267 12.6846 2.53792 12.6754 2.52792C12.6729 2.52505 12.671 2.52173 12.6699 2.51816C12.6688 2.5146 12.6685 2.51086 12.669 2.50717C12.6669 2.50467 12.6669 2.50192 12.6669 2.50192C12.669 2.48867 12.6846 2.47267 12.7186 2.45017C12.6987 2.45992 12.6846 2.46542 12.6828 2.46617C12.6754 2.46967 12.5845 2.49492 12.517 2.49492C12.4783 2.49492 12.4522 2.48717 12.4405 2.46942H12.4397C12.4358 2.46117 12.4342 2.45792 12.4886 2.42942C12.4392 2.44009 12.3887 2.44612 12.338 2.44742C12.2907 2.44742 12.2575 2.43992 12.2379 2.42392C12.2358 2.42196 12.2341 2.41968 12.2328 2.41717C12.2344 2.40642 12.2426 2.39842 12.2862 2.37442C12.266 2.38042 12.2466 2.38442 12.2264 2.38792C12.1992 2.39171 12.1717 2.39347 12.1441 2.39317C12.1189 2.39317 12.0979 2.39192 12.0796 2.38792C12.0076 2.37367 11.9438 2.33292 11.942 2.31517C11.942 2.30392 11.9502 2.30217 12.0076 2.28742C12.0522 2.27517 12.1183 2.25967 12.1656 2.23867C12.0485 2.26942 11.9425 2.28417 11.8501 2.28417C11.6848 2.28417 11.6152 2.23542 11.6022 2.21642C11.6004 2.21418 11.5992 2.21156 11.5986 2.20878C11.598 2.206 11.5982 2.20314 11.599 2.20042C11.6041 2.19217 11.6129 2.19067 11.6739 2.18517C11.6923 2.18217 11.7172 2.18092 11.722 2.17942C11.7276 2.17592 11.743 2.17167 11.7959 2.15542C11.7172 2.17017 11.6322 2.18217 11.5706 2.17992C11.4091 2.17167 11.3228 2.12267 11.3076 2.10042C11.3039 2.09467 11.3034 2.09017 11.3039 2.08567C11.3084 2.07542 11.3209 2.07042 11.428 2.05867C11.4349 2.05867 11.4405 2.05742 11.4431 2.05742C11.4498 2.05692 11.4776 2.04967 11.5167 2.03967C11.4901 2.04092 11.4649 2.04092 11.4426 2.04092C11.2256 2.04092 11.1671 1.99217 11.1531 1.97067C11.1454 1.96117 11.143 1.95192 11.1467 1.94492C11.1477 1.94017 11.1499 1.93592 11.2075 1.92867C11.2165 1.92717 11.2264 1.92617 11.2365 1.92517C10.7759 1.82017 10.6266 1.65817 10.6114 1.57517C10.6091 1.55867 10.6136 1.55067 10.6176 1.54867C10.6207 1.54492 10.6245 1.54442 10.6279 1.54442C10.6391 1.54442 10.6521 1.55317 10.6731 1.56892C10.6975 1.58742 10.7294 1.61042 10.7756 1.63317C10.7788 1.63367 10.7828 1.63617 10.7873 1.63742C10.6988 1.58167 10.6319 1.48417 10.6298 1.44367C10.6291 1.43978 10.6296 1.43579 10.6313 1.43217C10.6329 1.42854 10.6356 1.42542 10.6391 1.42317C10.6423 1.42128 10.6459 1.42016 10.6497 1.41992C10.6686 1.41992 10.6988 1.44067 10.7565 1.47967C10.7846 1.50017 10.8173 1.52267 10.8494 1.54317C10.7589 1.47192 10.7111 1.38342 10.6983 1.31567C10.6946 1.29542 10.6927 1.27067 10.7034 1.26192C10.7044 1.26067 10.7057 1.26017 10.7079 1.26017C10.7296 1.25442 10.7642 1.28267 10.8208 1.33192C10.8595 1.36492 10.9028 1.40217 10.9246 1.40642C10.9267 1.40742 10.9286 1.40742 10.9291 1.40942C10.9475 1.42617 10.9977 1.44942 11.1671 1.51892C11.0816 1.45342 10.8824 1.27192 10.9291 1.18942V1.18742C10.9311 1.18534 10.9335 1.1837 10.9362 1.18262C10.9389 1.18154 10.9419 1.18104 10.9448 1.18117C10.9599 1.18117 10.9876 1.19567 11.0378 1.22342C11.0922 1.25092 11.1586 1.28817 11.2269 1.31017C11.4152 1.38192 11.6009 1.45492 11.8049 1.55492C11.7975 1.54617 11.7879 1.53917 11.7789 1.53117C11.6755 1.43392 11.6267 1.38367 11.632 1.35867C11.6325 1.35292 11.637 1.34917 11.6415 1.34667C11.6455 1.34317 11.6503 1.34267 11.6567 1.34267C11.6867 1.34267 11.7568 1.37292 11.8625 1.42017C12.0089 1.48242 12.2073 1.56942 12.4034 1.61767C12.4188 1.62092 12.4379 1.62292 12.4581 1.62592C12.5967 1.64392 12.8398 1.67667 12.9782 1.71867V1.71442C13.0576 1.38417 13.2969 1.34892 13.3976 1.34892C13.489 1.34892 13.5817 1.37817 13.6284 1.42167C13.7644 1.43392 13.8356 1.46567 13.8438 1.51642C13.8491 1.56167 13.7966 1.60292 13.7655 1.61242C13.7636 1.61285 13.7617 1.61282 13.7599 1.61234C13.7581 1.61185 13.7564 1.61094 13.7551 1.60967C13.7522 1.60717 13.7522 1.60392 13.7522 1.60392C13.758 1.58317 13.7572 1.57042 13.7522 1.56167C13.7478 1.55617 13.7421 1.55179 13.7355 1.54892C13.7349 1.55117 13.7331 1.55267 13.7304 1.55367C13.7065 1.56417 13.6914 1.56417 13.6701 1.56492C13.6608 1.56492 13.6491 1.56592 13.6345 1.56642C13.6204 1.56817 13.5737 1.57692 13.5506 1.61717C13.5301 1.65142 13.5344 1.69767 13.5633 1.75492V1.75667L13.5639 1.75867C13.5671 1.76617 13.5694 1.77542 13.5787 1.78567C13.6436 1.81842 13.7193 1.88917 13.8045 1.99592L13.8064 2.00067C13.8114 2.04692 14.1137 2.27892 14.2471 2.35642C14.2489 2.35767 14.2494 2.35767 14.251 2.36067C14.2704 2.39242 14.319 2.42767 14.3623 2.45842C14.4168 2.49692 14.4566 2.52667 14.4473 2.55317C14.4473 2.55317 14.4426 2.55917 14.4391 2.55917C14.4319 2.56042 14.4234 2.56042 14.4163 2.56042C14.3166 2.56042 14.2003 2.50617 14.1052 2.44267C14.1591 2.49417 14.1902 2.52892 14.1857 2.55167C14.1825 2.56042 14.1748 2.57167 14.1469 2.57167C14.0988 2.57167 14.0006 2.53567 13.9102 2.47867C13.9482 2.53592 13.9697 2.58967 13.9875 2.63792C13.9998 2.66842 14.0109 2.69667 14.0245 2.72167C14.0553 2.76867 14.0829 2.78067 14.1052 2.78942C14.1198 2.79642 14.1334 2.80217 14.1408 2.81767C14.1421 2.81988 14.1426 2.82246 14.142 2.82494C14.1415 2.82742 14.14 2.82963 14.1379 2.83117C14.129 2.83487 14.1194 2.83683 14.1097 2.83692C14.0797 2.83692 14.0481 2.81542 14.021 2.79642C14.0083 2.78585 13.9939 2.77709 13.9785 2.77042C13.9743 2.79642 14.034 2.87892 14.0667 2.92267C14.0959 2.96292 14.1018 2.97142 14.101 2.97792C14.101 2.97792 14.101 2.98042 14.0991 2.98192C14.0959 2.98567 14.0901 2.98567 14.0861 2.98567M13.8292 2.76417C13.8337 2.76417 13.8375 2.76717 13.8396 2.77092C13.877 2.91492 14.0226 2.95792 14.0731 2.96592C14.0672 2.95642 14.0577 2.94392 14.0497 2.93117C13.9966 2.85767 13.9527 2.79467 13.9594 2.76392C13.9611 2.75791 13.9651 2.75267 13.9705 2.74917C13.9724 2.74817 13.9748 2.74767 13.9764 2.74817C13.9942 2.75042 14.0114 2.76392 14.0332 2.77892C14.0577 2.79567 14.0853 2.81567 14.1095 2.81567C14.1111 2.81567 14.1145 2.81567 14.1158 2.81442L14.0962 2.80467C14.0723 2.79567 14.0415 2.78117 14.0075 2.72842C13.9923 2.70292 13.9812 2.67342 13.9695 2.64267C13.9461 2.58292 13.9193 2.51542 13.8582 2.44142C13.8213 2.4127 13.7881 2.37997 13.7594 2.34392C13.757 2.33992 13.758 2.33467 13.7615 2.33067C13.7634 2.32945 13.7656 2.32879 13.7679 2.32879C13.7701 2.32879 13.7724 2.32945 13.7742 2.33067C13.8122 2.36117 13.8457 2.39417 13.8739 2.42742C13.9772 2.50717 14.0988 2.54992 14.1466 2.54992C14.1589 2.54992 14.165 2.54742 14.165 2.54742C14.1695 2.52667 14.0986 2.46042 14.0505 2.41667C13.9743 2.34692 13.9283 2.30217 13.9368 2.27692C13.9376 2.27242 13.9411 2.27117 13.9448 2.27067C13.9498 2.26942 13.9525 2.27117 13.9543 2.27467C14.0048 2.36317 14.2391 2.53942 14.4155 2.53942H14.4271C14.4205 2.52292 14.3804 2.49392 14.3485 2.47117C14.3052 2.43967 14.2566 2.40492 14.2346 2.36992C14.1265 2.30617 13.8027 2.07192 13.7859 2.00342C13.7036 1.89992 13.6292 1.83117 13.5671 1.80042L13.5652 1.79917C13.5554 1.78838 13.548 1.77578 13.5437 1.76217V1.76117C13.5131 1.69792 13.5086 1.64642 13.532 1.60592C13.5426 1.58942 13.5573 1.57553 13.5747 1.5654C13.5922 1.55527 13.612 1.5492 13.6324 1.54767C13.6447 1.54514 13.6573 1.54389 13.6699 1.54392C13.6786 1.54342 13.6866 1.54342 13.694 1.54242C13.6836 1.53972 13.6733 1.53664 13.6632 1.53317L13.6505 1.52917C13.6335 1.52607 13.6171 1.52033 13.6021 1.51217C13.5987 1.50967 13.5981 1.50517 13.5995 1.49992C13.6024 1.49717 13.6066 1.49417 13.6117 1.49642C13.6268 1.50092 13.6412 1.50567 13.6555 1.51167C13.6632 1.51167 13.672 1.51417 13.6794 1.51467C13.7145 1.52042 13.7525 1.52617 13.7684 1.55042C13.7751 1.56119 13.7775 1.57389 13.775 1.58617C13.8016 1.57142 13.8266 1.54317 13.8236 1.51842C13.8202 1.49442 13.7904 1.45467 13.6239 1.44017C13.621 1.43967 13.6183 1.43842 13.6173 1.43667C13.5679 1.38917 13.4698 1.36717 13.3981 1.36717C13.3041 1.36717 13.0764 1.40067 13.0002 1.71142C13.0002 1.71142 13.0007 1.71267 13.0021 1.71392C13.0071 1.71817 13.0156 1.72392 13.0347 1.73767C13.0395 1.74017 13.0409 1.74492 13.0377 1.74917C13.0365 1.75125 13.0345 1.75287 13.0322 1.75374C13.0299 1.75461 13.0273 1.75468 13.0249 1.75392C12.9075 1.70417 12.6148 1.66542 12.4559 1.64442C12.4352 1.64167 12.4161 1.63867 12.3996 1.63717H12.3991C12.2017 1.58742 12.0012 1.49942 11.8548 1.43642C11.7589 1.39442 11.6824 1.36042 11.6569 1.36042C11.6546 1.36042 11.653 1.36092 11.653 1.36092C11.6524 1.36217 11.6524 1.36217 11.6511 1.36217C11.65 1.38317 11.7507 1.47692 11.7937 1.51642C11.8532 1.57217 11.8591 1.57792 11.857 1.58717C11.8564 1.58942 11.853 1.59342 11.8503 1.59392C11.8479 1.59442 11.8445 1.59442 11.8426 1.59342C11.6211 1.48167 11.4219 1.40367 11.2197 1.32742C11.1529 1.30368 11.0887 1.27387 11.0279 1.23842C10.9926 1.21917 10.9584 1.20092 10.9459 1.19967C10.9097 1.28067 11.1586 1.49592 11.2083 1.52192C11.2343 1.53517 11.3496 1.58267 11.4516 1.62542C11.5762 1.67617 11.6208 1.69467 11.6376 1.70317L11.6391 1.70417L11.6399 1.70542C11.6474 1.70967 11.6474 1.71092 11.6474 1.71092C11.6458 1.71817 11.6434 1.72167 11.6399 1.72267C11.6375 1.72317 11.635 1.72317 11.6325 1.72267C11.0662 1.50042 10.9517 1.45267 10.9185 1.42492C10.8909 1.41792 10.8502 1.38342 10.8077 1.34642C10.7745 1.31742 10.7347 1.28267 10.7174 1.27767C10.7164 1.30429 10.7215 1.33081 10.7323 1.35542C10.7517 1.40817 10.8202 1.53967 11.0128 1.61242L11.0157 1.61317C11.0186 1.61567 11.0298 1.62067 11.0588 1.63167L11.1289 1.65717C11.1828 1.67517 11.25 1.69767 11.3159 1.72092C11.5722 1.80642 11.6086 1.82017 11.6134 1.82967C11.6134 1.82967 11.6152 1.83592 11.6139 1.83842C11.6121 1.84242 11.6083 1.84417 11.6036 1.84417C11.598 1.84417 11.5611 1.83192 11.1217 1.67467C11.0983 1.66654 11.0751 1.65796 11.0521 1.64892C11.0152 1.63633 10.9784 1.62325 10.9419 1.60967C10.8757 1.58767 10.8038 1.53692 10.7456 1.49617C10.7063 1.46842 10.6643 1.44017 10.651 1.43892C10.651 1.43892 10.651 1.44767 10.6558 1.45967C10.6773 1.51492 10.7536 1.60867 10.8415 1.64317C10.8542 1.64767 10.876 1.65567 10.9023 1.66667C10.9568 1.68867 11.0386 1.72192 11.1281 1.75567C11.2033 1.78142 11.2739 1.80467 11.3201 1.82042L11.3624 1.83567L11.3754 1.84017H11.3767L11.3775 1.84117C11.3852 1.84417 11.3852 1.84642 11.3852 1.85167C11.3831 1.85617 11.3794 1.85892 11.3749 1.85892H11.3703C11.2981 1.83642 11.2136 1.80817 11.1204 1.77267C11.0031 1.73306 10.8861 1.69256 10.7695 1.65117H10.7682C10.7308 1.63246 10.6955 1.61018 10.663 1.58467C10.6513 1.57592 10.6383 1.56617 10.6327 1.56392C10.6314 1.56917 10.6335 1.58292 10.6457 1.60492C10.6614 1.63367 10.706 1.69292 10.8162 1.75467C10.9352 1.82367 11.0999 1.87917 11.3037 1.92017L11.305 1.92067H11.3061C11.3082 1.92067 11.31 1.92067 11.3122 1.92017C11.3276 1.91867 11.3499 1.91442 11.3775 1.90992C11.4006 1.90542 11.4256 1.90117 11.4474 1.89542C11.4923 1.88717 11.5101 1.88342 11.517 1.88342C11.5225 1.88342 11.5255 1.88717 11.5268 1.89017C11.5292 1.89342 11.5255 1.89892 11.5223 1.90092C11.5167 1.90392 11.3828 1.92867 11.381 1.92867C11.3499 1.93392 11.3276 1.93792 11.3138 1.93842C11.2986 1.94142 11.2925 1.94142 11.2904 1.94142H11.2829C11.2577 1.94142 11.1873 1.95017 11.1669 1.95467C11.1669 1.95467 11.1698 1.96042 11.174 1.96517C11.1902 1.98242 11.2484 2.02242 11.4436 2.02242C11.4686 2.02242 11.4986 2.02242 11.5286 2.01992C11.5475 2.01892 11.6136 2.00142 11.671 1.98642C11.7319 1.97067 11.7701 1.96092 11.7813 1.96092C11.7895 1.96092 11.7919 1.96542 11.7919 1.96542C11.7919 1.96542 11.7948 1.97367 11.7882 1.97942C11.7733 1.99117 11.4633 2.07567 11.4463 2.07567C11.4417 2.07612 11.4372 2.07695 11.4328 2.07817C11.377 2.08392 11.3419 2.08842 11.3281 2.09242C11.343 2.10717 11.4136 2.15192 11.5722 2.16142H11.5905C11.7114 2.16142 11.9011 2.11342 11.9807 2.09367C12.0124 2.08517 12.0193 2.08267 12.023 2.08267C12.0264 2.08267 12.0312 2.08617 12.0331 2.08917C12.0336 2.09367 12.0336 2.09767 12.0291 2.10017C12.0262 2.10417 12.0174 2.10692 11.8596 2.15592C11.8025 2.17342 11.739 2.19242 11.7313 2.19617C11.7252 2.19992 11.7114 2.20092 11.6763 2.20492C11.6581 2.20608 11.64 2.20783 11.6219 2.21017C11.6386 2.22742 11.7079 2.26592 11.8503 2.26592C11.9566 2.26592 12.0827 2.24492 12.223 2.20517C12.2272 2.20317 12.2307 2.20517 12.2341 2.20842C12.2365 2.21142 12.2365 2.21617 12.2326 2.21967C12.1996 2.25867 12.0867 2.28717 12.0134 2.30642C11.9961 2.31117 11.977 2.31592 11.9672 2.31842C12 2.34595 12.0403 2.36431 12.0835 2.37142C12.0995 2.37467 12.121 2.37517 12.1444 2.37517C12.1691 2.37517 12.1959 2.37367 12.2238 2.37017C12.3056 2.35617 12.397 2.33017 12.5194 2.23092C12.5229 2.22942 12.5253 2.22942 12.5279 2.22942C12.5316 2.22992 12.5338 2.23167 12.5359 2.23467C12.5455 2.25667 12.5019 2.28417 12.3574 2.36017C12.3199 2.38017 12.2735 2.40517 12.2573 2.41517C12.2743 2.42517 12.3011 2.43067 12.3377 2.43067C12.427 2.43067 12.5378 2.39967 12.5455 2.39542C12.6854 2.32767 12.9527 2.19192 12.9713 2.16867C12.9715 2.16659 12.9724 2.16462 12.9739 2.16305C12.9754 2.16148 12.9773 2.16038 12.9795 2.15992C12.9845 2.15992 12.9893 2.16367 12.9912 2.16867V2.17042C12.9912 2.17042 12.9912 2.17392 12.9888 2.17667C12.9752 2.19867 12.9017 2.24167 12.6315 2.37942C12.5747 2.40696 12.5187 2.43597 12.4636 2.46642C12.4735 2.47367 12.4918 2.47717 12.5168 2.47717C12.5819 2.47717 12.6663 2.45317 12.6732 2.45117C12.7545 2.41272 12.836 2.37464 12.9176 2.33692C12.9232 2.33417 12.9304 2.33692 12.9322 2.34217C12.9341 2.34842 12.9304 2.35092 12.9261 2.35367L12.9256 2.35442C12.7712 2.43392 12.6953 2.48617 12.6865 2.50142C12.6878 2.50292 12.6892 2.50442 12.6878 2.50667C12.6878 2.51192 12.6892 2.51467 12.691 2.51592C12.6937 2.52017 12.7027 2.52442 12.7298 2.52442C12.8257 2.52442 13.0286 2.45667 13.0985 2.43017C13.1373 2.41167 13.1413 2.41167 13.1429 2.41167C13.1482 2.41167 13.1511 2.41542 13.1529 2.41842C13.1529 2.41842 13.154 2.42667 13.1479 2.43067C13.1394 2.43417 13.1179 2.44317 13.1062 2.44867C12.9973 2.49642 12.9455 2.53542 12.9402 2.55367C12.9832 2.61117 13.0778 2.62067 13.1306 2.62067C13.1984 2.62067 13.2571 2.60592 13.2701 2.59817C13.2728 2.59592 13.2763 2.59476 13.2799 2.59495C13.2835 2.59513 13.2868 2.59665 13.2892 2.59917C13.2935 2.60592 13.2919 2.61667 13.2812 2.64792V2.64992C13.2972 2.63342 13.3176 2.60842 13.3275 2.58942C13.3304 2.58417 13.336 2.58217 13.3405 2.58417C13.3453 2.58467 13.3482 2.58942 13.3471 2.59467C13.3424 2.6141 13.3358 2.6331 13.3275 2.65142C13.3182 2.67467 13.307 2.70042 13.3001 2.72642C13.2935 2.75092 13.2892 2.77542 13.2839 2.80142C13.2783 2.83442 13.271 2.86713 13.2619 2.89942C13.2863 2.88767 13.3479 2.83267 13.3628 2.73392C13.3652 2.70617 13.366 2.68242 13.3641 2.66217C13.3641 2.66217 13.3641 2.65442 13.3636 2.64842C13.3636 2.64342 13.367 2.63792 13.3726 2.63792C13.3782 2.63717 13.383 2.64167 13.383 2.64167C13.3869 2.67315 13.3869 2.70495 13.383 2.73642C13.3771 2.78092 13.3681 2.82867 13.3615 2.86942C13.3548 2.90342 13.3479 2.94242 13.35 2.95217H13.3506C13.3782 2.95217 13.452 2.85317 13.4592 2.78067C13.4599 2.77863 13.461 2.77675 13.4625 2.77516C13.464 2.77356 13.4659 2.77229 13.468 2.77142C13.4701 2.77151 13.4722 2.77207 13.474 2.77307C13.4759 2.77408 13.4775 2.77548 13.4786 2.77717C13.4985 2.80892 13.5439 2.87967 13.5851 2.90942V2.89542C13.5825 2.86242 13.5825 2.85392 13.5673 2.80992C13.566 2.80867 13.566 2.80767 13.566 2.80767C13.5782 2.73242 13.5803 2.63442 13.5827 2.52017L13.5835 2.49167C13.5835 2.49167 13.5872 2.48367 13.5912 2.48267C13.5944 2.48167 13.6005 2.48367 13.6024 2.48792C13.723 2.68742 13.7793 2.78117 13.7482 2.94217C13.7527 2.94017 13.7554 2.93692 13.7599 2.93267C13.7926 2.90017 13.8226 2.81942 13.8194 2.77542C13.8194 2.77542 13.8229 2.76667 13.8276 2.76542C13.8284 2.76417 13.8284 2.76417 13.8292 2.76417" fill="black"/>
<path d="M11.9744 1.63965C11.9744 1.63965 11.887 1.6969 11.7789 1.69365C11.807 1.7869 12.0302 1.7144 12.0302 1.7144C12.0302 1.7144 11.9215 1.81765 11.8447 1.83415C11.8907 1.8679 12.0857 1.85615 12.1189 1.8394C12.1507 1.82315 12.2076 1.75765 12.2076 1.75765C12.2076 1.75765 12.0073 1.9579 11.9794 1.95615C11.9762 1.97915 12.1903 1.9704 12.2331 1.93565C12.2772 1.90115 12.3885 1.8494 12.3885 1.8494C12.3885 1.8494 12.0968 2.02515 12.0838 2.02515C12.1935 2.05065 12.4116 1.99565 12.5537 1.9214C12.3452 2.0409 12.3269 2.0619 12.2203 2.10215C12.3144 2.1204 12.3622 2.1749 12.6817 2.0559C12.794 2.00804 12.8925 1.93551 12.9689 1.8444C12.8544 1.97615 12.6756 2.0869 12.4775 2.1969C12.4666 2.2164 12.6897 2.29815 12.9747 2.0429" fill="#EF7D00"/>
<path d="M12.58 2.2341C12.525 2.2341 12.4881 2.22135 12.4772 2.2131C12.4642 2.2031 12.4673 2.1946 12.4692 2.1921C12.4703 2.19075 12.4717 2.18956 12.4732 2.1886C12.5433 2.1496 12.615 2.10885 12.682 2.06485C12.4137 2.1656 12.3364 2.1436 12.2623 2.1226C12.2466 2.1181 12.2333 2.11385 12.2185 2.11185C12.2144 2.10982 12.2114 2.10642 12.21 2.10235C12.2096 2.1003 12.2101 2.09822 12.2114 2.0965C12.2126 2.09479 12.2145 2.09358 12.2166 2.0931C12.2896 2.06485 12.3202 2.04685 12.4036 1.9976C12.4086 1.99485 12.414 1.99135 12.4195 1.9886C12.2992 2.0301 12.1627 2.05335 12.0817 2.03485C12.0766 2.03435 12.0732 2.0286 12.0737 2.0246C12.075 2.0196 12.0785 2.01635 12.0822 2.01585C12.1127 2.00097 12.1425 1.98479 12.1714 1.96735C12.1005 1.98135 12.0017 1.98235 11.9791 1.9701C11.9698 1.96485 11.9698 1.9581 11.9698 1.9581C11.9704 1.9501 11.9754 1.9466 11.9807 1.9466C11.9919 1.94485 12.0381 1.90785 12.0928 1.85635C12.0253 1.8686 11.8811 1.8731 11.8383 1.84235C11.8357 1.8396 11.8352 1.8361 11.8357 1.83235C11.8357 1.83235 11.8383 1.8256 11.8429 1.8256C11.8923 1.81535 11.9558 1.7666 11.9924 1.7356C11.9422 1.7476 11.8551 1.7626 11.8067 1.73785C11.7978 1.7339 11.7899 1.72813 11.7837 1.72095C11.7774 1.71377 11.773 1.70536 11.7706 1.69635C11.7688 1.69385 11.7706 1.6906 11.7722 1.6881C11.7743 1.6851 11.7767 1.68385 11.7804 1.6846C11.883 1.6871 11.968 1.6331 11.968 1.6331C11.9701 1.6317 11.9728 1.63111 11.9754 1.63143C11.978 1.63176 11.9803 1.63297 11.9821 1.63485C11.9866 1.6401 11.9839 1.6451 11.9797 1.64885C11.977 1.6511 11.8971 1.70085 11.794 1.70285C11.7994 1.71055 11.8068 1.71683 11.8155 1.7211C11.8793 1.7536 12.0253 1.70735 12.0269 1.70535C12.0312 1.70535 12.036 1.70535 12.0386 1.7106C12.0405 1.71435 12.0405 1.71835 12.0376 1.72185C12.0336 1.72635 11.947 1.8081 11.8729 1.83635C11.8973 1.84385 11.9385 1.84785 11.9871 1.84685C12.0493 1.84635 12.1008 1.8381 12.1138 1.8316C12.1212 1.82801 12.128 1.82337 12.134 1.81785L12.2025 1.75235C12.2054 1.74735 12.2121 1.74735 12.2166 1.7516C12.2184 1.75351 12.2194 1.75595 12.2195 1.75851C12.2196 1.76106 12.2188 1.76357 12.2171 1.7656C12.2153 1.7666 12.1802 1.8046 12.1489 1.8316C12.0976 1.88085 12.0357 1.9361 12.0012 1.9571C12.0469 1.9651 12.1927 1.9571 12.2278 1.92885C12.2726 1.89335 12.3818 1.84385 12.3847 1.84185C12.3906 1.83835 12.3959 1.84085 12.3993 1.84485C12.4006 1.84716 12.4008 1.84982 12.4001 1.85231C12.3994 1.85481 12.3977 1.85695 12.3954 1.85835C12.3032 1.91486 12.2098 1.96946 12.1151 2.0221C12.2243 2.0306 12.4153 1.9841 12.5484 1.9131C12.5534 1.9101 12.559 1.9121 12.5627 1.9161C12.5638 1.91836 12.564 1.92095 12.5632 1.92332C12.5623 1.9257 12.5605 1.92767 12.5582 1.92885C12.4958 1.9656 12.4503 1.99235 12.4145 2.01435C12.3414 2.05785 12.3082 2.07835 12.2522 2.10085C12.2578 2.1026 12.2633 2.1031 12.2684 2.10485C12.3406 2.1251 12.4156 2.14585 12.6783 2.04735C12.7415 2.02235 12.7957 1.98835 12.8387 1.9571C12.8849 1.9191 12.9261 1.8806 12.9611 1.83885C12.9649 1.83485 12.9707 1.83485 12.9758 1.83785C12.9808 1.84035 12.9813 1.8466 12.9773 1.85035C12.9747 1.8546 12.9285 1.9141 12.8451 1.9756C12.7415 2.0581 12.6172 2.1316 12.4934 2.2011C12.5102 2.20861 12.5283 2.21327 12.5468 2.21485C12.6071 2.2206 12.7675 2.21635 12.9686 2.0366C12.9723 2.0331 12.9784 2.0331 12.9827 2.0366C12.9861 2.04035 12.9861 2.0466 12.9827 2.04935C12.8148 2.19935 12.6729 2.2341 12.58 2.2341" fill="black"/>
<path d="M13.5206 2.19434C13.5206 2.19434 13.5384 2.27259 13.6162 2.33334C13.6927 2.39284 13.6993 2.45084 13.6993 2.45084" fill="#EF7D00"/>
<path d="M13.6996 2.46061C13.6938 2.46061 13.6893 2.45711 13.6885 2.45186C13.6885 2.45186 13.6826 2.39686 13.6101 2.33986C13.5318 2.27911 13.5108 2.20036 13.5108 2.20036C13.5094 2.19211 13.5121 2.18761 13.5177 2.18561C13.5233 2.18511 13.5294 2.18761 13.5299 2.19336C13.5299 2.19336 13.5493 2.26836 13.6234 2.32561C13.702 2.38661 13.7087 2.44761 13.7087 2.44761C13.71 2.45511 13.7057 2.45986 13.7002 2.46036L13.6996 2.46061" fill="black"/>
<path d="M13.4821 1.68652C13.4821 1.68652 13.5086 1.75552 13.5867 1.80102C13.6677 1.84627 13.7896 1.98727 13.7995 2.01227C13.8085 2.04277 13.8547 2.25977 13.8507 2.28352" fill="#EF7D00"/>
<path d="M13.8497 2.29245H13.8486C13.8431 2.29045 13.8401 2.2857 13.8407 2.2812C13.8431 2.26095 13.7984 2.0472 13.7886 2.01445C13.7798 1.9912 13.6601 1.8522 13.5817 1.8097C13.5325 1.78175 13.494 1.73969 13.472 1.6897C13.4704 1.68445 13.4728 1.67945 13.4776 1.67745C13.4831 1.67545 13.4879 1.67795 13.4898 1.68295C13.4911 1.6837 13.5171 1.7507 13.5918 1.79245C13.6749 1.8392 13.7984 1.9832 13.8077 2.00945C13.8165 2.03545 13.8651 2.25745 13.8601 2.28395C13.859 2.28845 13.8556 2.29245 13.8497 2.29245" fill="black"/>
<path d="M12.9907 1.79492C12.9963 1.82192 12.877 1.95692 13.0406 2.11467C12.8932 2.27117 12.8932 2.28992 12.8932 2.28992C12.8932 2.28992 12.9758 2.32992 13.1238 2.22067C13.3681 2.47942 13.2858 2.59867 13.2858 2.59867" fill="#EF7D00"/>
<path d="M13.2866 2.60771C13.2847 2.60771 13.2828 2.60646 13.2823 2.60521C13.2778 2.60321 13.2759 2.59746 13.2783 2.59246C13.2797 2.59146 13.3503 2.47671 13.1227 2.23296C12.976 2.33821 12.8924 2.30021 12.8884 2.29846C12.8855 2.29646 12.8836 2.29321 12.8836 2.29321C12.8836 2.27571 12.9357 2.21071 13.0278 2.11396C12.9025 1.98871 12.9492 1.87621 12.9729 1.82246C12.976 1.81271 12.9816 1.79996 12.9811 1.79646C12.9811 1.79646 12.9845 1.78671 12.9893 1.78596C12.9949 1.78471 13.0005 1.78721 13.0015 1.79221C13.0034 1.80096 12.9984 1.81146 12.9909 1.82871C12.9248 1.98746 13.0053 2.06471 13.0483 2.10646C13.052 2.10996 13.052 2.11621 13.0483 2.12021C12.9466 2.22696 12.9165 2.26971 12.9075 2.28421C12.9165 2.28571 12.9322 2.28821 12.9545 2.28571C12.9883 2.28221 13.0435 2.26621 13.1174 2.21296C13.1227 2.20946 13.1275 2.20946 13.132 2.21396C13.3787 2.47521 13.299 2.59771 13.2956 2.60321C13.2945 2.60456 13.2932 2.60566 13.2916 2.60644C13.2901 2.60722 13.2883 2.60766 13.2866 2.60771Z" fill="black"/>
<path d="M13.2674 2.41444C13.2674 2.41444 13.2446 2.38694 13.285 2.28369C13.3208 2.32069 13.3607 2.32894 13.3782 2.34394C13.397 2.35969 13.5817 2.38244 13.5925 2.48844" fill="#EF7D00"/>
<path d="M13.5921 2.49755C13.5862 2.49755 13.583 2.49455 13.582 2.4888C13.5737 2.4143 13.4688 2.3828 13.4114 2.3658C13.3886 2.35955 13.3769 2.3553 13.3711 2.35005C13.3657 2.34555 13.3564 2.3413 13.3464 2.3358C13.325 2.32729 13.3054 2.31536 13.2884 2.30055C13.259 2.3838 13.2746 2.40905 13.2746 2.40905C13.2786 2.41305 13.2768 2.4193 13.2722 2.4223C13.2677 2.4243 13.2611 2.4243 13.2587 2.4198C13.2555 2.4168 13.2337 2.38555 13.2746 2.27955C13.2768 2.27755 13.2792 2.2733 13.2815 2.2733C13.2853 2.2723 13.2895 2.2733 13.2922 2.2778C13.3134 2.29855 13.3373 2.31005 13.3551 2.3193C13.3673 2.32555 13.3774 2.32955 13.3851 2.3373C13.3878 2.3388 13.4029 2.34355 13.4173 2.3483C13.4784 2.36555 13.5921 2.4003 13.6014 2.4873C13.6027 2.4928 13.5984 2.49755 13.5921 2.49755" fill="black"/>
<path d="M13.4845 1.43927C13.4845 1.43052 13.447 1.36202 13.3081 1.44852C13.3825 1.45202 13.4561 1.48752 13.4845 1.43927Z" fill="#EF7D00"/>
<path d="M13.4321 1.47448C13.4138 1.47448 13.3928 1.47098 13.3713 1.46623C13.3504 1.46192 13.3292 1.45933 13.3078 1.45848C13.3057 1.45786 13.3038 1.4568 13.3022 1.45537C13.3005 1.45394 13.2993 1.45218 13.2985 1.45023C13.2969 1.44698 13.2985 1.44298 13.303 1.43998C13.3514 1.40998 13.391 1.39648 13.4255 1.39648C13.4736 1.39648 13.4951 1.42723 13.4951 1.43948L13.4932 1.44298C13.4821 1.46423 13.4619 1.47448 13.4321 1.47448M13.3389 1.44198C13.3512 1.44315 13.3634 1.44541 13.3753 1.44873C13.396 1.45223 13.4149 1.45498 13.4324 1.45498C13.4518 1.45498 13.4651 1.44998 13.4736 1.43823C13.4698 1.43073 13.4563 1.41498 13.4255 1.41498C13.3947 1.41698 13.3649 1.42627 13.3389 1.44198" fill="black"/>
<path d="M14.8073 1.75244C14.8139 1.75469 15.2211 1.83094 15.3569 1.79444C15.1842 1.99244 14.8373 1.85844 14.8373 1.85844C15.007 1.90194 15.0142 1.89944 15.0692 1.93994C15.0859 1.97794 14.7555 1.96094 14.6468 1.90819C14.9499 1.99019 14.956 1.98394 14.9664 2.01644C14.9807 2.06069 14.4705 2.00494 14.4266 1.94594C14.5621 2.03594 14.6367 2.05494 14.7119 2.09644C14.6203 2.12994 14.4508 2.16644 14.1392 1.97594C14.5494 2.29794 14.9196 2.27719 14.9767 2.33669C14.8344 2.51844 14.2811 2.22769 14.0258 2.08094C13.7713 1.93394 14.5834 2.43694 14.658 2.42694C14.6203 2.47669 14.3531 2.43244 14.335 2.40969" fill="#EF7D00"/>
<path d="M14.5616 2.4601H14.5576C14.4739 2.4601 14.3416 2.4376 14.3268 2.4156C14.3233 2.4106 14.3246 2.4056 14.3302 2.40235C14.3312 2.40154 14.3324 2.40096 14.3337 2.40066C14.335 2.40036 14.3364 2.40034 14.3377 2.4006C14.339 2.40087 14.3402 2.40141 14.3413 2.40219C14.3423 2.40297 14.3432 2.40397 14.3438 2.4051C14.3549 2.4166 14.4872 2.44535 14.5833 2.44035C14.6004 2.44044 14.6173 2.43773 14.6333 2.43235C14.5796 2.4166 14.4651 2.3566 14.2888 2.2561C14.2027 2.20635 13.9724 2.0696 13.9674 2.0591C13.9655 2.05535 13.9666 2.0511 13.9711 2.0481C13.9772 2.04285 13.9772 2.04285 14.0319 2.07385C14.2638 2.20785 14.8158 2.49885 14.9627 2.33835C14.9422 2.32535 14.8986 2.31585 14.8397 2.30285C14.6822 2.26635 14.4173 2.20785 14.132 1.98385C14.1302 1.98232 14.129 1.98021 14.1287 1.97792C14.1283 1.97563 14.1289 1.97331 14.1302 1.97135C14.1326 1.96685 14.139 1.96685 14.1432 1.9686C14.2845 2.0546 14.4914 2.15935 14.6891 2.0946C14.6697 2.08585 14.6498 2.0781 14.6293 2.0681C14.5794 2.0461 14.523 2.02185 14.4458 1.97135C14.4354 1.96748 14.4263 1.9612 14.4192 1.9531C14.4155 1.9486 14.416 1.94435 14.42 1.94035C14.4224 1.93735 14.4285 1.93735 14.433 1.94035C14.4418 1.9461 14.4519 1.95185 14.4593 1.9581C14.5153 1.9801 14.6479 2.0061 14.7873 2.01885C14.8936 2.0281 14.9449 2.0241 14.956 2.0176C14.951 2.00035 14.9427 1.99785 14.7966 1.95935L14.7812 1.95485C14.7333 1.94886 14.6866 1.93657 14.6423 1.91835C14.6373 1.9151 14.6357 1.9101 14.6373 1.9051C14.6405 1.90135 14.6447 1.89885 14.6495 1.9006C14.705 1.9151 14.7512 1.92685 14.7879 1.9371C14.9018 1.9541 15.0315 1.9561 15.0562 1.9446C15.0306 1.92358 15 1.90881 14.9669 1.9016C14.8904 1.8896 14.836 1.8686 14.8341 1.8681C14.8291 1.8661 14.8267 1.85985 14.8283 1.85585C14.8298 1.85185 14.836 1.84935 14.8405 1.84935C14.8657 1.85635 14.8867 1.86235 14.9056 1.8661C14.9337 1.87435 14.9552 1.8796 14.9741 1.8841C15.0795 1.90135 15.2283 1.9031 15.3284 1.80985C15.1693 1.8331 14.8144 1.76735 14.8033 1.7621C14.7985 1.7591 14.7969 1.75385 14.7985 1.74985C14.8009 1.74535 14.8062 1.7431 14.8107 1.7446C14.8291 1.74985 15.2264 1.82235 15.3542 1.78585C15.3592 1.78335 15.3635 1.78585 15.3664 1.7886C15.3685 1.79235 15.3685 1.79785 15.3651 1.8011C15.2801 1.89935 15.1513 1.9191 15.0423 1.9116C15.0543 1.91926 15.066 1.92726 15.0774 1.9356C15.0819 1.9446 15.0795 1.95035 15.074 1.9561C15.0516 1.9746 14.955 1.9711 14.9058 1.96885C14.9651 1.9861 14.9693 1.9931 14.9773 2.0151C14.9778 2.01885 14.9799 2.0281 14.9651 2.03435C14.9188 2.05585 14.675 2.03385 14.5286 1.99785C14.5709 2.01985 14.6059 2.0366 14.6391 2.0511C14.6662 2.06385 14.692 2.07385 14.7178 2.0881C14.7201 2.0911 14.7228 2.09335 14.7228 2.09735C14.7228 2.09735 14.7201 2.1041 14.717 2.1056C14.5655 2.1631 14.4083 2.12385 14.2768 2.0616C14.5079 2.2081 14.7132 2.2546 14.8455 2.28435C14.9175 2.3001 14.9653 2.31035 14.9844 2.3311C14.9887 2.3336 14.9887 2.3391 14.985 2.3421C14.9518 2.3861 14.8957 2.4046 14.8267 2.4046C14.6811 2.4046 14.476 2.3241 14.288 2.23285C14.4532 2.3271 14.629 2.42135 14.6575 2.4176C14.6604 2.4176 14.6652 2.4196 14.6673 2.42335C14.6691 2.42635 14.6691 2.4296 14.6673 2.4331C14.6537 2.45085 14.6187 2.4601 14.5624 2.4601" fill="black"/>
<path d="M14.9122 2.09082C14.8423 2.09712 14.7719 2.09794 14.7018 2.09327Z" fill="#EF7D00"/>
<path d="M14.7767 2.10556C14.7398 2.10556 14.7087 2.10406 14.7 2.10356C14.6973 2.10296 14.6949 2.1014 14.6934 2.09921C14.692 2.09701 14.6914 2.09436 14.692 2.09181C14.6925 2.08656 14.6981 2.08356 14.7037 2.08456C14.7225 2.08681 14.8641 2.08681 14.9114 2.08106C14.914 2.08098 14.9166 2.08183 14.9186 2.08345C14.9207 2.08507 14.922 2.08734 14.9223 2.08981C14.9223 2.08981 14.9196 2.09956 14.9146 2.10006C14.8688 2.10405 14.8227 2.10589 14.7767 2.10556" fill="black"/>
<path d="M11.8541 1.58691C11.8541 1.58691 12.1641 1.72866 12.2937 1.71766C12.2607 1.74641 12.2068 1.75741 12.2068 1.75741C12.2408 1.76941 12.3314 1.81141 12.4677 1.78441C12.4353 1.81266 12.3928 1.84391 12.3928 1.84391C12.3928 1.84391 12.5091 1.88241 12.6427 1.82266C12.6023 1.86591 12.579 1.89716 12.579 1.89716L12.6719 1.90241" fill="#EF7D00"/>
<path d="M12.6719 1.91251H12.6706L12.5784 1.90726C12.5744 1.90726 12.5723 1.90451 12.5696 1.90151C12.5687 1.90007 12.5683 1.89838 12.5685 1.89672C12.5687 1.89505 12.5695 1.89348 12.5707 1.89226C12.5723 1.89101 12.5853 1.87401 12.6079 1.84601C12.5377 1.87013 12.4611 1.87267 12.3893 1.85326C12.3853 1.85226 12.3834 1.84901 12.3829 1.84601C12.3829 1.84601 12.3834 1.83926 12.3869 1.83676L12.435 1.79976C12.3263 1.81301 12.2496 1.78351 12.2142 1.77076C12.2111 1.76851 12.2068 1.76801 12.2044 1.76601C12.201 1.76551 12.1978 1.76151 12.1978 1.76151C12.1983 1.75326 12.2018 1.74976 12.2063 1.74851C12.2063 1.74851 12.2344 1.74176 12.2636 1.72651C12.1199 1.71751 11.8615 1.60176 11.8498 1.59526C11.8453 1.59301 11.8424 1.58726 11.8453 1.58326C11.8477 1.57751 11.8538 1.57576 11.8583 1.57826C11.8615 1.57976 12.1675 1.71751 12.2937 1.70851C12.2987 1.70801 12.303 1.71001 12.3035 1.71376C12.3044 1.71569 12.3047 1.71785 12.3042 1.71993C12.3037 1.722 12.3025 1.72387 12.3008 1.72526C12.2821 1.73965 12.261 1.75105 12.2384 1.75901C12.2825 1.77476 12.3593 1.79601 12.4655 1.77476C12.4708 1.77426 12.4743 1.77651 12.4772 1.78001C12.4793 1.78326 12.4785 1.78826 12.4743 1.79126C12.4538 1.80876 12.4305 1.82826 12.414 1.83901C12.4525 1.84726 12.5418 1.85726 12.6382 1.81326C12.6432 1.81201 12.6483 1.81251 12.6507 1.81701C12.6536 1.81951 12.6536 1.82476 12.6507 1.82826C12.6325 1.84794 12.6153 1.86829 12.5989 1.88926L12.6722 1.89251C12.677 1.89251 12.682 1.89726 12.682 1.90251C12.6809 1.90926 12.6767 1.91251 12.6719 1.91251" fill="black"/>
</g>
<defs>
<clipPath id="clip0_864_44604">
<rect width="17" height="11" fill="white"/>
</clipPath>
</defs>
</svg>
