<svg width="15" height="10" viewBox="0 0 15 10" fill="none" xmlns="http://www.w3.org/2000/svg">
<g clip-path="url(#clip0_864_42736)">
<path d="M15 2.49978V7.49978C15 8.88046 14.2095 9.99978 12.6563 9.99978H4.93243L14.2859 0.602051C14.7593 1.06114 15 1.73841 15 2.49887" fill="#C32129"/>
<path d="M0 7.5V2.5C0 1.11932 0.790547 0 2.34375 0H10.1419L0.750938 9.43386C0.252188 8.97523 0 8.27955 0 7.5Z" fill="#28AE66"/>
<path d="M13.8469 0.281136C13.5188 0.1025 13.1227 0 12.6563 0H10.1419L0.750488 9.43386C0.879594 9.55128 1.02403 9.65176 1.1801 9.73273C1.50307 9.90227 1.89025 10 2.3433 10H4.93197L14.2854 0.602273C14.1549 0.47604 14.0072 0.36769 13.8464 0.280227" fill="#F9CB38"/>
</g>
<defs>
<clipPath id="clip0_864_42736">
<rect width="15" height="10" fill="white"/>
</clipPath>
</defs>
</svg>
