<svg width="17" height="17" viewBox="0 0 17 17" fill="none" xmlns="http://www.w3.org/2000/svg">
<path d="M17 11.4219C17 13.0355 16.104 14.3438 14.3438 14.3438H2.65625C0.895953 14.3438 0 13.0355 0 11.4219V5.57812C0 3.96445 0.895953 2.65625 2.65625 2.65625H14.3438C16.104 2.65625 17 3.96445 17 5.57812V11.4219Z" fill="#FEB600"/>
<path fill-rule="evenodd" clip-rule="evenodd" d="M11.1494 12.4415H6.30755C6.20555 12.4415 6.21591 12.4526 6.21591 12.3368C6.21538 9.85296 6.21538 7.37043 6.21591 4.88604C6.21591 4.76996 6.20555 4.78165 6.30755 4.78165C9.5349 4.78112 12.7628 4.78112 15.9904 4.78165C16.095 4.78165 16.0815 4.76996 16.0815 4.88604V12.3368C16.0815 12.4532 16.095 12.4415 15.9904 12.4415H11.1494Z" fill="#8C2029"/>
<path fill-rule="evenodd" clip-rule="evenodd" d="M8.66869 9.53032C8.71437 9.55662 8.75661 9.58716 8.73483 9.65729C8.7157 9.71413 8.67081 9.73326 8.60122 9.71732C8.59139 9.71413 8.58156 9.71227 8.5643 9.70829C8.56615 9.7476 8.58767 9.77098 8.60786 9.79223C8.64531 9.83393 8.64637 9.87271 8.61317 9.91813C8.59099 9.94767 8.57679 9.98242 8.57195 10.019C8.56711 10.0557 8.5718 10.0929 8.58554 10.1272C8.59909 10.1604 8.61264 10.184 8.65009 10.145C8.6894 10.1035 8.74678 10.111 8.78131 10.1553C8.81903 10.2039 8.81797 10.256 8.7829 10.3051C8.74359 10.3617 8.68595 10.3867 8.62167 10.4143C8.66815 10.4566 8.70826 10.494 8.76139 10.5424L8.61104 10.566C8.57625 10.5716 8.54783 10.5841 8.53933 10.6308C8.53218 10.6651 8.51421 10.6962 8.48806 10.7195C8.4522 10.7554 8.40731 10.7583 8.39297 10.7094C8.35286 10.5694 8.25723 10.5479 8.14062 10.5493C8.17303 10.4852 8.23067 10.4666 8.26573 10.4133C8.21208 10.3909 8.16267 10.3641 8.12469 10.3184C8.08537 10.2704 8.08059 10.2016 8.11592 10.1556C8.1555 10.1043 8.20172 10.1086 8.24475 10.15C8.27237 10.1771 8.28645 10.1638 8.29708 10.1354C8.32523 10.0626 8.32523 9.98746 8.28087 9.92451C8.24236 9.86979 8.24156 9.82702 8.28937 9.7816C8.30292 9.76859 8.32444 9.75132 8.317 9.72927C8.30876 9.70616 8.28273 9.71918 8.2652 9.71573C8.21845 9.7067 8.17834 9.68837 8.16214 9.63338C8.15638 9.61525 8.15559 9.59591 8.15984 9.57736C8.16409 9.55882 8.17323 9.54175 8.18631 9.52793C8.21314 9.49765 8.24581 9.49659 8.28087 9.50774C8.29761 9.51199 8.317 9.54015 8.33081 9.51332C8.34356 9.48888 8.33665 9.46312 8.31487 9.44399C8.30637 9.43762 8.29469 9.42513 8.29522 9.41637C8.30372 9.32951 8.22828 9.25726 8.2575 9.16721C8.26626 9.14092 8.2474 9.13454 8.23837 9.11967C8.20384 9.06229 8.18233 9.00863 8.23784 8.94754C8.2737 8.90717 8.25325 8.8381 8.2049 8.81924C8.1665 8.80602 8.13144 8.78461 8.10213 8.7565C8.07282 8.72838 8.04997 8.69423 8.03517 8.65642C7.98151 8.52174 8.05669 8.38256 8.19481 8.36927C8.24076 8.36396 8.25245 8.35493 8.25192 8.29915C8.24555 7.74001 8.22881 7.17954 8.2984 6.62226C8.33187 6.35132 8.4004 6.09473 8.54198 5.86762C8.61901 5.74463 8.7149 5.64502 8.83045 5.56852C8.85356 5.55285 8.878 5.5409 8.90058 5.56481C8.9205 5.58632 8.91412 5.61368 8.90429 5.63892C8.82036 5.84238 8.80522 6.06232 8.78423 6.2812C8.72473 6.90488 8.71836 7.53149 8.70587 8.15651C8.70587 8.17112 8.70587 8.18546 8.70481 8.20007C8.70242 8.24496 8.68808 8.2941 8.69923 8.33501C8.71225 8.38574 8.7683 8.3621 8.80389 8.38043C8.93564 8.45002 8.96008 8.62029 8.84719 8.74195C8.81053 8.77966 8.81212 8.79666 8.84639 8.83412C8.97894 8.97809 9.11015 9.12577 9.24137 9.2716C9.24722 9.27718 9.25439 9.28117 9.27006 9.29312C9.23951 9.11037 9.26448 8.94462 9.3115 8.78206C9.39836 8.48827 9.56969 8.26887 9.79812 8.10285C9.8539 8.06301 9.90783 8.02104 9.96069 7.97668C9.97648 7.96371 9.98964 7.94785 9.99947 7.92993C10.013 7.90576 10.017 7.87866 9.99628 7.85741C9.97397 7.83351 9.95245 7.85317 9.93572 7.87149C9.92244 7.88637 9.91447 7.90602 9.90544 7.92435C9.87648 7.98279 9.84036 7.99023 9.79892 7.94401C9.78351 7.92727 9.77183 7.90709 9.76014 7.8869C9.74951 7.86937 9.74154 7.85024 9.72879 7.82607C9.7025 7.85051 9.6847 7.88902 9.64512 7.87866C9.61059 7.8699 9.5904 7.84227 9.57394 7.8112C9.55747 7.77826 9.53808 7.77985 9.51072 7.79207C9.44537 7.82156 9.37737 7.83723 9.30247 7.84785C9.30459 7.79499 9.34364 7.76206 9.34789 7.71185C9.27351 7.72088 9.19994 7.72806 9.12715 7.73868C9.09315 7.74373 9.08253 7.73018 9.09528 7.69512C9.13273 7.58356 9.14601 7.4627 9.20073 7.35831C9.2103 7.33971 9.20976 7.32935 9.19648 7.31607C9.18677 7.30652 9.17772 7.29631 9.16939 7.28552C9.14017 7.24037 9.10803 7.19282 9.14203 7.13545C9.17762 7.0786 9.22517 7.10251 9.269 7.1219C9.45015 7.20345 9.62812 7.29827 9.8223 7.33759C9.85125 7.34343 9.881 7.34609 9.91075 7.34981C9.91819 7.35113 9.92562 7.34821 9.94103 7.34609C9.88976 7.27357 9.84381 7.20663 9.7968 7.13863C9.75642 7.21115 9.75642 7.21115 9.63158 7.1567C9.61883 7.18352 9.64273 7.21274 9.626 7.24542C9.55109 7.19946 9.47512 7.16227 9.41987 7.08418C9.36542 7.00741 9.30353 6.93835 9.2427 6.86796C9.14867 6.7572 9.11228 6.62146 9.11228 6.4751C9.11148 6.30909 9.25598 6.21559 9.38826 6.2897C9.41314 6.30245 9.43425 6.32149 9.44949 6.34493C9.46473 6.36837 9.47357 6.39539 9.47512 6.42331C9.47884 6.48493 9.50753 6.49237 9.55056 6.48413C9.59917 6.47377 9.64805 6.46846 9.69453 6.45226C9.76014 6.42888 9.82655 6.41481 9.89401 6.41427C9.94682 6.41455 9.99764 6.39414 10.0356 6.35743C10.0786 6.31732 10.1028 6.27137 10.0704 6.20815C10.0438 6.15529 10.0608 6.13696 10.1113 6.13643C10.1618 6.1359 10.2122 6.12687 10.2635 6.12209C10.3496 6.11465 10.4271 6.13696 10.4935 6.20363C10.5103 6.22037 10.5289 6.2464 10.5541 6.23206C10.5753 6.21957 10.5684 6.19009 10.5695 6.16618C10.5753 6.0509 10.6024 6.02912 10.7026 6.05515C10.7785 6.07321 10.8404 6.1189 10.8917 6.18106C10.926 6.2201 10.9416 6.20895 10.9584 6.16565C11.0139 6.02912 11.0282 6.02513 11.1499 6.09101C11.2017 6.1189 11.2498 6.15396 11.2912 6.19938C11.3478 6.25942 11.42 6.2626 11.4798 6.20629C11.5281 6.15927 11.5733 6.10907 11.6299 6.04931C11.632 6.14467 11.6065 6.22488 11.5964 6.32556C11.6299 6.28173 11.6503 6.24985 11.6756 6.2217C11.8612 6.01929 12.0862 5.92499 12.3425 5.91012C12.7184 5.88781 13.0472 6.02779 13.3538 6.25995C13.4879 6.36115 13.6149 6.47351 13.7408 6.58693C13.778 6.61934 13.8149 6.65121 13.854 6.68123C13.9243 6.73382 13.9227 6.73196 13.9546 6.6459C13.9785 6.58268 14.0213 6.53965 14.0824 6.52902C14.1453 6.51973 14.1961 6.54709 14.2319 6.60393C14.2808 6.68176 14.2933 6.76729 14.258 6.85468C14.2422 6.89909 14.2136 6.93784 14.1758 6.96606C14.1381 6.99427 14.0928 7.0107 14.0457 7.01326C13.9278 7.02495 13.8215 6.98431 13.7299 6.90382C13.6539 6.83848 13.5825 6.76676 13.5094 6.69849C13.4761 6.66678 13.4419 6.63596 13.4069 6.60606C13.4122 6.67512 13.4329 6.7216 13.4664 6.76277C13.4831 6.78243 13.4959 6.80448 13.4797 6.83237C13.4635 6.85813 13.4409 6.85866 13.4167 6.85096C13.2999 6.81298 13.1971 6.75029 13.1139 6.62996C13.0794 6.71815 13.0268 6.78057 12.95 6.81112C12.9216 6.82121 12.8935 6.83449 12.8648 6.83715C12.8127 6.84273 12.7909 6.80209 12.8143 6.75056C12.8292 6.71629 12.8502 6.68441 12.8634 6.64988C12.9163 6.51282 12.8743 6.39329 12.745 6.32423C12.7734 6.46023 12.7734 6.58959 12.6815 6.69451C12.5957 6.79146 12.4852 6.81935 12.3627 6.83157C12.3773 6.7734 12.4092 6.73435 12.431 6.68893C12.5354 6.46607 12.4459 6.33193 12.2687 6.24985C12.2352 6.23551 12.2265 6.24985 12.2275 6.28491C12.2291 6.34866 12.2185 6.40976 12.1832 6.46049C12.1505 6.50777 12.1035 6.51362 12.0836 6.4674C12.0549 6.39887 12.0105 6.38506 11.9537 6.40152C11.891 6.42065 11.8397 6.45863 11.8219 6.53301C11.8098 6.57983 11.8157 6.62948 11.8384 6.6722C11.8785 6.74949 11.8982 6.75401 11.9521 6.69238C12.0644 6.56515 12.2331 6.57179 12.372 6.71231C12.3184 6.74312 12.2645 6.77074 12.2137 6.80474C12.1508 6.84618 12.1396 6.9017 12.1686 6.97634C12.1818 7.0114 12.1943 7.02309 12.2222 6.98935C12.2456 6.96226 12.2719 6.93756 12.2998 6.91551C12.3593 6.87141 12.3986 6.88788 12.4206 6.96359C12.457 7.08657 12.5064 7.12535 12.6246 7.13306C12.8363 7.14554 13.0443 7.11101 13.2534 7.08179C13.3842 7.06453 13.5165 7.06186 13.6478 7.07382C13.8332 7.09056 14.0287 7.26667 14.0824 7.46668C14.1422 7.68981 14.0718 7.8691 13.9267 8.02051C13.9111 8.03645 13.8946 8.05212 13.8781 8.06752C13.8603 8.08452 13.8587 8.10126 13.8731 8.12277C13.8885 8.14588 13.9034 8.16926 13.9177 8.1929C14.0085 8.34643 14.0731 8.5082 14.0744 8.69945C14.075 8.91195 14.0598 9.1186 13.9961 9.32074C13.9379 9.5027 13.8768 9.68359 13.8436 9.87537C13.817 10.0281 13.8165 10.1792 13.8781 10.3243C13.9065 10.3912 13.9448 10.4441 14.0168 10.4566C14.0927 10.4706 14.1175 10.5296 14.0853 10.6098C14.0587 10.6765 14.0136 10.7301 13.9599 10.77C13.7955 10.8909 13.8096 11.0215 13.8949 11.1799C13.9188 11.2226 13.9448 11.2651 13.9615 11.3105C13.9889 11.3846 13.9594 11.4314 13.8885 11.4372C13.8276 11.4403 13.7674 11.4235 13.7169 11.3894C13.6959 11.3756 13.6824 11.3751 13.6624 11.3937C13.591 11.4596 13.5161 11.4511 13.4441 11.3958C13.4133 11.3716 13.3923 11.3727 13.361 11.3971C13.2842 11.4572 13.2311 11.455 13.1527 11.3886C13.1277 11.369 13.1152 11.3831 13.0967 11.3934C12.9785 11.455 12.8602 11.4619 12.7418 11.3934C12.7205 11.3809 12.7059 11.3684 12.6812 11.3934C12.6534 11.4207 12.6167 11.4371 12.5778 11.4395C12.539 11.442 12.5005 11.4303 12.4695 11.4067C12.4432 11.3868 12.4265 11.3799 12.3983 11.4038C12.3362 11.455 12.2695 11.4519 12.2108 11.3955C12.1805 11.3655 12.1585 11.3684 12.1279 11.3918C12.096 11.4152 12.062 11.437 12.0219 11.4391C11.9733 11.441 11.9505 11.4152 11.9555 11.3599C11.9651 11.2375 12.0575 11.1249 12.1667 11.1071C12.2379 11.0962 12.3104 11.0941 12.3824 11.0829C12.4695 11.0691 12.5003 11.0266 12.4979 10.9307C12.495 10.8112 12.4979 10.6924 12.4876 10.5724C12.4814 10.4828 12.4533 10.3962 12.4058 10.32C12.341 10.2209 12.2751 10.1248 12.2129 10.0241C12.147 9.91893 12.103 9.80312 12.1045 9.6711C12.1045 9.62488 12.0841 9.62435 12.0517 9.62435C11.8785 9.62621 11.7173 9.68677 11.5597 9.76088C11.3773 9.84642 11.2009 9.9516 11.0136 10.0196C10.8882 10.0661 10.8163 10.1506 10.7607 10.2727C10.7387 10.3187 10.7119 10.3625 10.6983 10.4133C10.6779 10.4964 10.6983 10.5402 10.7732 10.5644C10.8144 10.5774 10.8566 10.5814 10.8983 10.592C10.9679 10.6088 10.9794 10.6428 10.9414 10.7084C10.8763 10.8202 10.7902 10.9036 10.6723 10.9344C10.6008 10.9525 10.582 10.9976 10.5942 11.0739C10.6109 11.1735 10.6186 11.2699 10.5554 11.3599C10.4972 11.4431 10.4593 11.4646 10.3424 11.4179C10.2824 11.3939 10.2359 11.3889 10.1774 11.4224C10.1185 11.4569 10.051 11.4481 9.99469 11.4056C9.96573 11.3836 9.94448 11.3857 9.915 11.4048C9.84647 11.45 9.77342 11.4588 9.70595 11.4009C9.68762 11.3844 9.67248 11.3865 9.65415 11.3971C9.63266 11.4118 9.60947 11.4237 9.58509 11.4327C9.52772 11.4511 9.49319 11.4176 9.49876 11.3517C9.5139 11.1634 9.63636 11.0377 9.80397 11.0367C9.85948 11.0367 9.915 11.0383 9.96919 11.0351C10.094 11.0292 10.1843 10.9246 10.1873 10.7859C10.1897 10.6409 10.1381 10.5105 10.1076 10.3734C10.0842 10.2656 10.0454 10.1883 9.93917 10.154C9.87223 10.133 9.8114 10.0802 9.75137 10.0361C9.7195 10.0127 9.70409 10.0167 9.67886 10.0488C9.61458 10.1288 9.54047 10.1962 9.44856 10.235C9.37844 10.265 9.31575 10.2541 9.25625 10.2055C9.1678 10.1341 9.09501 10.0432 9.01267 9.96276C8.97256 9.92345 8.94069 9.9022 8.91333 9.97737C8.89819 10.0191 8.86684 10.0114 8.83948 9.98852C8.79512 9.95213 8.78715 9.89795 8.78503 9.8419C8.7829 9.76274 8.78503 9.68359 8.78131 9.60549C8.77706 9.52501 8.72765 9.48702 8.66948 9.51545C8.66815 9.51721 8.66642 9.51863 8.66444 9.5196C8.66245 9.52057 8.66027 9.52106 8.65806 9.52102C8.63044 9.52288 8.60308 9.51545 8.5797 9.51677C8.60573 9.52235 8.6392 9.51492 8.66869 9.52926" fill="black"/>
<path fill-rule="evenodd" clip-rule="evenodd" d="M15.1351 5.97861C15.1352 5.9139 15.1444 5.84952 15.1624 5.78736C15.2185 5.59319 15.2219 5.38866 15.2514 5.18891C15.2939 4.90469 15.4958 4.78861 15.729 4.90469C15.7811 4.93019 15.8363 4.93497 15.8921 4.93391C15.9298 4.93338 15.9479 4.94772 15.941 4.99235C15.9319 5.05265 15.9511 5.10391 15.9739 5.15624C16.0584 5.35625 16.006 5.50979 15.8246 5.59771C15.7426 5.63518 15.6566 5.66325 15.5683 5.68138C15.3959 5.72016 15.2713 5.82747 15.193 6.00199C15.1876 6.01314 15.1829 6.02457 15.176 6.03386C15.1667 6.04714 15.1635 6.07504 15.1409 6.06494C15.1231 6.05777 15.1321 6.03625 15.1321 6.02005C15.1327 6.00677 15.1345 5.99243 15.1351 5.97861M15.1351 11.2388L15.1313 11.1963C15.1303 11.1825 15.1255 11.1649 15.1396 11.158C15.159 11.1482 15.1669 11.1692 15.1722 11.1825C15.2668 11.4239 15.4474 11.5259 15.6655 11.5695C15.7263 11.5822 15.7845 11.6038 15.8405 11.634C16.0023 11.7198 16.0525 11.8617 15.9811 12.0468C15.9569 12.1103 15.9293 12.1709 15.9404 12.2434C15.9463 12.2795 15.9258 12.2885 15.8982 12.2875C15.8206 12.2864 15.7497 12.3106 15.6772 12.3425C15.5197 12.4131 15.3406 12.3212 15.2764 12.1456C15.2543 12.0827 15.2415 12.017 15.2384 11.9504C15.2319 11.7886 15.2088 11.628 15.1693 11.4709C15.1484 11.3953 15.1369 11.3173 15.1351 11.2388M6.72032 12.3613C6.69057 12.3608 6.66028 12.3642 6.63239 12.3496C6.55773 12.3066 6.47257 12.2852 6.38642 12.2877C6.358 12.2893 6.34897 12.2726 6.35455 12.2431C6.3673 12.1778 6.34605 12.1233 6.32161 12.0657C6.23714 11.8688 6.29213 11.7103 6.47196 11.6258C6.5466 11.5902 6.62469 11.565 6.70358 11.5482C6.88952 11.5095 7.02632 11.3992 7.10999 11.2074C7.11902 11.1883 7.12619 11.1525 7.15036 11.1594C7.17586 11.1665 7.16285 11.2003 7.16285 11.2223C7.16108 11.3078 7.14813 11.3928 7.12433 11.4749C7.07466 11.6526 7.06908 11.837 7.04677 12.0184C7.02021 12.2442 6.90811 12.3587 6.72032 12.3613M7.16338 5.98897C7.16338 6.00863 7.16391 6.02032 7.16338 6.03254C7.16311 6.04449 7.16603 6.05804 7.15435 6.06308C7.13788 6.07105 7.13177 6.05591 7.12486 6.04449L7.07227 5.94647C7.00533 5.81871 6.90997 5.7353 6.78141 5.69891C6.67675 5.66836 6.5705 5.64472 6.4701 5.59664C6.33622 5.53316 6.27088 5.42505 6.28416 5.29011C6.28894 5.23725 6.30408 5.18679 6.32772 5.14163C6.35269 5.09382 6.3665 5.046 6.35535 4.99208C6.34578 4.94533 6.36438 4.93338 6.40183 4.93391C6.47249 4.93497 6.53889 4.9185 6.60557 4.88583C6.77477 4.80269 6.96947 4.90629 7.02685 5.10258C7.05447 5.19661 7.06164 5.29463 7.06536 5.39265C7.07147 5.57115 7.13522 5.7361 7.15674 5.91141C7.15939 5.93904 7.16152 5.96799 7.16338 5.98897" fill="#030100"/>
<path fill-rule="evenodd" clip-rule="evenodd" d="M8.6687 9.53013H8.56989C8.60389 9.48444 8.63842 9.52429 8.66976 9.51685C8.6687 9.5211 8.6687 9.52482 8.6687 9.53013Z" fill="#340C0F"/>
<path fill-rule="evenodd" clip-rule="evenodd" d="M9.36064 9.4829C9.17683 8.99999 9.40845 8.43049 9.8138 8.14415C9.87223 8.1035 9.92695 8.05941 9.98273 8.01479C10.0012 7.99824 10.0172 7.9792 10.0303 7.95821C10.0606 7.91093 10.0563 7.84293 10.0205 7.81583C9.97795 7.78316 9.94316 7.81025 9.91075 7.83974C9.9016 7.84981 9.89359 7.86086 9.88684 7.87268C9.84647 7.94174 9.83505 7.94068 9.7952 7.87029C9.76837 7.82274 9.75722 7.76377 9.71366 7.72366C9.68709 7.74225 9.69347 7.7736 9.68709 7.7991C9.6762 7.84558 9.64513 7.85754 9.62706 7.81583C9.58323 7.71516 9.524 7.73322 9.4552 7.77068C9.44113 7.77811 9.42333 7.77865 9.40606 7.78369C9.37127 7.79485 9.36834 7.77997 9.38375 7.74943C9.3973 7.71968 9.40978 7.68993 9.42731 7.65008C9.34444 7.66496 9.27059 7.67744 9.19702 7.69205C9.14495 7.70215 9.13406 7.68488 9.15345 7.6299C9.1755 7.56508 9.19144 7.49841 9.20923 7.432C9.22437 7.3741 9.25705 7.35736 9.30698 7.37808C9.39278 7.41421 9.48017 7.44104 9.57181 7.45007C9.62414 7.4429 9.6762 7.44343 9.72827 7.45511C9.80397 7.4599 9.80689 7.46308 9.8045 7.53879C9.80902 7.57252 9.83292 7.57066 9.85311 7.5696C9.88498 7.568 9.91606 7.5765 9.94661 7.58341L9.98114 7.58554C10.0061 7.59244 10.0321 7.60679 10.0529 7.57411C10.0656 7.55552 10.064 7.53613 10.0547 7.51647C10.0438 7.49018 10.0319 7.46308 10.0406 7.4328C10.0032 7.35152 9.94661 7.28591 9.89694 7.21472C9.85428 7.15518 9.8183 7.09114 9.78962 7.02374C9.7694 7.04716 9.75737 7.07653 9.75536 7.10741C9.74739 7.18338 9.71738 7.16452 9.68258 7.13238C9.65363 7.10582 9.62627 7.07713 9.59413 7.04446C9.57473 7.08643 9.59519 7.1276 9.58509 7.16904C9.53915 7.15333 9.49917 7.12384 9.47061 7.08457C9.41377 7.0051 9.35193 6.92933 9.28547 6.85772C9.19755 6.7621 9.16461 6.64124 9.14973 6.51161C9.13566 6.38172 9.20684 6.3023 9.31841 6.31372C9.39969 6.32222 9.45281 6.38597 9.44086 6.47815C9.43289 6.54615 9.45069 6.5419 9.50089 6.53791C9.64778 6.52596 9.78352 6.45397 9.93306 6.45424C9.99522 6.4553 10.0494 6.41493 10.0916 6.35968C10.1227 6.31851 10.1418 6.276 10.1182 6.22261C10.1036 6.191 10.1153 6.18038 10.1421 6.17719C10.2656 6.16179 10.3889 6.14133 10.4909 6.25449C10.5127 6.27946 10.544 6.3015 10.5775 6.28105C10.6054 6.26299 10.6075 6.22554 10.6091 6.1926C10.6096 6.17772 10.6104 6.16365 10.6104 6.1485C10.6104 6.09963 10.6271 6.08263 10.6739 6.09219C10.7674 6.11158 10.8373 6.17135 10.8973 6.24705C10.9345 6.29354 10.9549 6.28902 10.9733 6.23297C10.9831 6.20455 11.0003 6.17772 11.0067 6.14797C11.0163 6.09405 11.0397 6.08582 11.0822 6.10521C11.1478 6.13496 11.2089 6.17188 11.2609 6.2266C11.347 6.31558 11.4325 6.31611 11.5199 6.22925L11.5781 6.16975C11.576 6.30257 11.5311 6.4043 11.4551 6.48611C11.407 6.53711 11.4012 6.57271 11.4466 6.63088C11.4907 6.68719 11.5013 6.76316 11.5032 6.8378C11.508 7.02507 11.5032 7.21127 11.4886 7.398C11.4652 7.41049 11.4572 7.38021 11.4397 7.37675C11.3385 7.31646 11.2668 7.23093 11.2479 7.09785C11.2469 7.07789 11.2432 7.05815 11.237 7.03915C11.2312 7.01657 11.2211 6.99665 11.2131 6.97513C11.1786 6.96238 11.1786 6.96238 11.1727 7.00886C11.1706 7.01816 11.181 7.00886 11.1727 7.0094C11.1711 6.97832 11.1778 6.95866 11.2107 6.97168C11.2221 6.99611 11.2322 7.02161 11.2397 7.04711C11.2479 7.06996 11.2447 7.09519 11.254 7.11724C11.2641 7.21472 11.318 7.2806 11.3818 7.33638C11.4009 7.35311 11.42 7.36586 11.4243 7.39482C11.4413 7.50293 11.4625 7.61051 11.5045 7.72472C11.4325 7.70135 11.3903 7.64902 11.3382 7.62033C11.2705 7.58872 11.2229 7.53002 11.1722 7.47583C11.1571 7.46069 11.1512 7.4328 11.1239 7.43918C11.1074 7.45166 11.101 7.47318 11.093 7.49177C11.0702 7.54118 11.0442 7.54197 11.0128 7.50107C11.0018 7.49043 10.9901 7.4805 10.9778 7.47132C10.9573 7.45432 10.9387 7.449 10.9331 7.48805C10.9315 7.50027 10.9241 7.5093 10.9188 7.51913C10.8877 7.58501 10.8877 7.58501 10.8351 7.53002C10.8306 7.52604 10.8272 7.52125 10.8234 7.517C10.8173 7.51143 10.8272 7.51329 10.8192 7.51169C10.8155 7.51169 10.8171 7.5101 10.8218 7.51488C10.8253 7.52006 10.8293 7.52487 10.8338 7.52922C10.8856 7.58713 10.8856 7.58713 10.918 7.52072C10.9512 7.45432 10.9541 7.45379 11.0107 7.49868C11.0606 7.54915 11.0606 7.54835 11.0954 7.4854C11.1055 7.4684 11.109 7.44502 11.1316 7.44024C11.1958 7.50452 11.266 7.56243 11.3239 7.63388C11.344 7.65105 11.3604 7.67227 11.3718 7.69616C11.3832 7.72004 11.3895 7.74606 11.3903 7.77254C11.3945 7.84691 11.4269 7.91093 11.4726 7.97813H11.3512C11.3406 7.97441 11.3316 7.97282 11.3366 7.99088C11.4075 8.00761 11.479 8.02488 11.5265 8.09554C11.5406 8.10111 11.5459 8.0974 11.5406 8.07986C11.539 8.02594 11.5741 8.05888 11.5879 8.05888C11.8219 8.06074 12.0559 8.07349 12.2897 8.06844C12.4908 8.06419 12.6887 8.00602 12.8927 8.01665C13.026 8.02302 13.1609 8.02488 13.2938 8.01186C13.4218 7.99938 13.5432 7.95608 13.6622 7.90296C13.7164 7.87905 13.7589 7.83602 13.7937 7.78183C13.9031 7.60918 13.8428 7.39615 13.6622 7.33346C13.5105 7.28166 13.3546 7.29707 13.201 7.32788C12.9426 7.37994 12.6849 7.41607 12.422 7.37782C12.3194 7.36347 12.2235 7.32815 12.1282 7.28751C12.0833 7.26616 12.0372 7.24762 11.9901 7.23199C11.9069 7.20675 11.8509 7.24713 11.8272 7.3409C11.8203 7.37011 11.8294 7.40358 11.8081 7.42935C11.7555 7.38594 11.72 7.32521 11.7081 7.25804C11.6962 7.19088 11.7086 7.12166 11.743 7.06279C11.7707 7.01577 11.7675 6.98841 11.7345 6.9483C11.6623 6.85825 11.6076 6.75599 11.5932 6.63274C11.5706 6.44282 11.6424 6.29672 11.7723 6.18463C11.9339 6.04515 12.1376 5.96388 12.3508 5.9538C12.7699 5.92936 13.12 6.11663 13.4462 6.38358C13.5772 6.4909 13.702 6.60511 13.8314 6.71429C13.8664 6.74404 13.9039 6.77379 13.9506 6.77724C13.9743 6.77804 13.9905 6.77565 13.9905 6.73952C13.9915 6.6261 14.0407 6.56421 14.119 6.57324C14.1913 6.57988 14.2516 6.68055 14.242 6.77804C14.2377 6.82896 14.2154 6.87668 14.179 6.91257C14.1426 6.94847 14.0946 6.97018 14.0436 6.9738C13.9249 6.9831 13.8226 6.93502 13.7318 6.85347C13.6252 6.75918 13.5286 6.65 13.417 6.56182C13.3984 6.54668 13.3814 6.52649 13.3498 6.5249C13.3546 6.62769 13.3894 6.71455 13.4452 6.81071C13.2916 6.77219 13.184 6.68905 13.1065 6.52304C13.0709 6.68958 12.9909 6.78308 12.8382 6.79769C12.8966 6.67072 12.9758 6.55385 12.8913 6.41094C12.8679 6.36989 12.8363 6.33416 12.7983 6.30603C12.7603 6.27791 12.7169 6.258 12.6709 6.24758C12.7306 6.39208 12.7622 6.53446 12.6568 6.66249C12.5989 6.73261 12.5245 6.76821 12.431 6.77618C12.4756 6.68932 12.5141 6.61122 12.5123 6.5148C12.508 6.3695 12.359 6.20136 12.2297 6.19844C12.1898 6.19685 12.1816 6.21704 12.1866 6.25502C12.1941 6.31319 12.1898 6.36977 12.1633 6.42157C12.1452 6.45504 12.1234 6.48054 12.1022 6.42369C12.0822 6.36765 12.0421 6.35463 11.9951 6.35569C11.9457 6.35722 11.8981 6.37494 11.8597 6.40613C11.8213 6.43733 11.7942 6.48026 11.7826 6.52835C11.7616 6.62636 11.814 6.75147 11.895 6.80407C11.9274 6.82479 11.9332 6.79397 11.9422 6.77777C11.9604 6.74201 11.9871 6.71134 12.0201 6.68856C12.0531 6.66579 12.0913 6.65162 12.1311 6.64735C12.1925 6.63858 12.2477 6.65638 12.2979 6.70818C12.2629 6.72836 12.2299 6.7451 12.1996 6.76529C12.0966 6.83435 12.086 6.98629 12.1768 7.07713C12.1959 7.09599 12.205 7.08908 12.2158 7.06943C12.2424 7.02215 12.2796 6.98629 12.3189 6.95415C12.3502 6.92891 12.3707 6.92971 12.3853 6.97593C12.4347 7.12919 12.49 7.17036 12.6377 7.17754C12.8454 7.18763 13.0494 7.1539 13.2536 7.126C13.3825 7.10954 13.5126 7.09918 13.642 7.11804C13.7913 7.13955 14.017 7.27157 14.0585 7.53188C14.0869 7.71091 14.0277 7.85461 13.9148 7.976C13.8797 8.01452 13.8178 8.04613 13.8133 8.08783C13.8088 8.12768 13.8617 8.17602 13.889 8.22144C13.983 8.37949 14.0386 8.54816 14.0378 8.74393C14.038 8.96541 14.0031 9.18553 13.9342 9.39604C13.8707 9.58808 13.8083 9.78172 13.7918 9.98918C13.7814 10.1151 13.7974 10.2365 13.8478 10.3512C13.8821 10.4288 13.9278 10.4909 14.0133 10.4992C14.0635 10.5048 14.0696 10.5427 14.0532 10.5879C14.0293 10.6502 13.9873 10.704 13.9326 10.7422C13.761 10.8671 13.7652 11.0259 13.8606 11.1983C13.884 11.2411 13.9071 11.2844 13.9265 11.3287C13.9451 11.371 13.9275 11.3933 13.8887 11.3959C13.8234 11.3991 13.7594 11.3773 13.7095 11.3351C13.6943 11.3223 13.6824 11.299 13.6582 11.3298C13.5918 11.414 13.5291 11.422 13.4497 11.3497C13.4133 11.317 13.3912 11.317 13.3554 11.3508C13.2791 11.4214 13.2228 11.4156 13.1644 11.3367C13.1434 11.3096 13.132 11.3176 13.1126 11.3316C13.0842 11.3516 13.0552 11.3715 13.0247 11.3885C12.9872 11.4089 12.9715 11.3927 12.9806 11.3481C12.996 11.2737 13.0387 11.2217 13.0919 11.18C13.1593 11.1263 13.2385 11.1048 13.3166 11.0828C13.4677 11.0411 13.4842 11.0193 13.48 10.8421C13.4784 10.7606 13.472 10.679 13.4659 10.5993C13.4623 10.5494 13.4482 10.5007 13.4246 10.4566C13.4009 10.4125 13.3682 10.3739 13.3285 10.3433C13.2166 10.2539 13.101 10.1694 12.9819 10.0898C12.907 10.0734 12.8605 10.0091 12.8045 9.96155C12.7654 9.90918 12.7218 9.86037 12.674 9.81572C12.5989 9.73736 12.5192 9.66697 12.4151 9.63988C12.4093 9.63884 12.4037 9.63705 12.3983 9.63457C12.3773 9.62527 12.3553 9.62474 12.3335 9.62129C12.2931 9.60747 12.2522 9.61279 12.2119 9.60668C12.1502 9.58675 12.0875 9.56896 12.0225 9.58516C11.8195 9.59233 11.6355 9.6776 11.4524 9.76499C11.2981 9.83804 11.147 9.9156 10.9932 9.98971C10.9557 10.007 10.9172 10.0176 10.8782 10.0309C10.8657 10.0048 10.8845 9.98652 10.8925 9.96713C10.9321 9.87868 10.9701 9.78969 10.999 9.69646C11.059 9.53578 11.0909 9.36594 11.093 9.19443C11.0904 9.36221 11.0602 9.52841 11.0035 9.68636C10.9729 9.7789 10.9371 9.86962 10.8962 9.9581C10.8853 9.98201 10.8779 10.0075 10.8542 10.0184C10.8059 10.1084 10.756 10.198 10.709 10.2883C10.6912 10.3241 10.6744 10.3603 10.6633 10.3982C10.6325 10.5053 10.6654 10.5751 10.7623 10.6062C10.7947 10.6171 10.8287 10.6195 10.8617 10.6264C10.935 10.6413 10.9355 10.6445 10.8936 10.7101C10.8448 10.7901 10.7712 10.852 10.684 10.8862C10.5352 10.9436 10.5352 10.9476 10.5613 11.1292C10.5719 11.1946 10.5719 11.2546 10.5368 11.3136C10.4845 11.4015 10.4728 11.4087 10.3793 11.3866C10.3501 11.38 10.3193 11.3744 10.2962 11.3529C10.2675 11.3274 10.2441 11.333 10.2165 11.3542C10.1371 11.4143 10.0579 11.4177 9.9838 11.3433C9.96653 11.3261 9.95484 11.3239 9.93412 11.3396C9.85816 11.4012 9.78059 11.4403 9.70622 11.3362C9.69798 11.3242 9.68895 11.3263 9.67912 11.3343C9.66452 11.3433 9.65044 11.3545 9.63477 11.3617C9.60422 11.376 9.57288 11.4161 9.54366 11.3866C9.51869 11.3603 9.54366 11.3186 9.55481 11.2857C9.61059 11.1215 9.66345 11.0809 9.82309 11.0804C9.87516 11.0804 9.92855 11.0825 9.98247 11.0785C10.1195 11.0687 10.2223 10.9454 10.2263 10.7919C10.23 10.658 10.192 10.5318 10.1565 10.4081C10.113 10.2654 10.076 10.1208 10.0454 9.97483C10.0282 9.93818 10.025 9.89833 10.0213 9.85743V9.72674C10.0183 9.65422 10.0454 9.58516 10.0473 9.52566C10.0444 9.5594 10.0353 9.60535 10.0276 9.65051C10.0186 9.73471 10.0197 9.81811 10.0266 9.90072C10.0372 9.93552 10.0266 9.97244 10.0335 10.0067C10.0279 10.0572 10.0534 10.1026 10.0518 10.1621C9.88578 10.097 9.74739 9.9913 9.61697 9.8723C9.55455 9.8545 9.52214 9.7974 9.48495 9.7456C9.46583 9.71744 9.44777 9.68796 9.42253 9.66644C9.41919 9.66087 9.41685 9.65476 9.41562 9.64838C9.40048 9.59127 9.34948 9.54957 9.36011 9.48263" fill="#FEB600"/>
<path fill-rule="evenodd" clip-rule="evenodd" d="M11.568 6.41469C11.5183 6.62002 11.5701 6.79772 11.6875 6.9555C11.7143 6.99136 11.7194 7.01766 11.6989 7.06148C11.6689 7.12461 11.6587 7.19534 11.6697 7.26436C11.6807 7.33339 11.7122 7.39748 11.7603 7.44823C11.8033 7.49419 11.8376 7.48356 11.8527 7.42034C11.8559 7.40919 11.8564 7.39644 11.8578 7.38448C11.8742 7.27452 11.9133 7.24716 12.0089 7.28169C12.1191 7.32233 12.2243 7.38342 12.3404 7.40653C12.6058 7.45992 12.8701 7.43734 13.1322 7.38342C13.2863 7.35181 13.4398 7.33003 13.5944 7.36005C13.7193 7.38342 13.7971 7.46683 13.8082 7.57972C13.8183 7.68676 13.7485 7.8148 13.646 7.86261C13.5033 7.92902 13.3562 7.97417 13.2005 7.97577C13.1067 7.97683 13.013 7.9763 12.9195 7.97577C12.7479 7.97577 12.5765 7.98002 12.4057 8.0172C12.2907 8.04191 12.1717 8.02703 12.0554 8.02544C11.9242 8.02411 11.7922 8.02198 11.6599 8.01959C11.5422 8.0172 11.4795 7.96594 11.4415 7.83817C11.4325 7.81028 11.4219 7.78026 11.4275 7.74759C11.4609 7.74972 11.4912 7.78584 11.5194 7.75158C11.5475 7.71705 11.5273 7.67827 11.5183 7.6432C11.5082 7.60681 11.4944 7.57122 11.4848 7.53483C11.4755 7.49817 11.4636 7.46125 11.5082 7.43947C11.5279 7.42964 11.5249 7.40255 11.5273 7.38156C11.5395 7.19934 11.543 7.01766 11.539 6.8365C11.5374 6.75097 11.521 6.66862 11.4737 6.60009C11.4535 6.57114 11.4519 6.54936 11.4766 6.52094C11.5045 6.4888 11.5279 6.45081 11.5528 6.41575C11.5576 6.41044 11.5635 6.41044 11.568 6.41469" fill="#8C2029"/>
<path fill-rule="evenodd" clip-rule="evenodd" d="M8.31142 8.43899C8.29374 8.37971 8.28523 8.31809 8.28618 8.25624C8.28247 7.79033 8.2737 7.32363 8.31089 6.85825C8.33479 6.55385 8.37995 6.25555 8.51861 5.987C8.60361 5.82258 8.71437 5.68764 8.87083 5.59229C8.86843 5.64435 8.84267 5.68021 8.83151 5.72164C8.78237 5.90546 8.76298 6.09485 8.74492 6.28477C8.68808 6.89518 8.68064 7.50771 8.66762 8.11971C8.66576 8.22197 8.66417 8.3245 8.64212 8.42491C8.64556 8.43082 8.64759 8.43744 8.64805 8.44426C8.64852 8.45107 8.64739 8.45791 8.64478 8.46422C8.62273 8.49477 8.62964 8.52425 8.64797 8.55321C8.64982 8.56118 8.65115 8.56808 8.65328 8.57552C8.66018 8.61643 8.63947 8.63502 8.60812 8.64511C8.51223 8.66424 8.41581 8.67566 8.31992 8.64405C8.29708 8.6321 8.29176 8.60925 8.29176 8.58349C8.30461 8.53639 8.31122 8.48781 8.31142 8.43899M12.4143 9.61544H12.4124C12.5086 9.66458 12.6026 9.71983 12.6778 9.80616C12.7213 9.8553 12.7644 9.90418 12.8085 9.95305C12.8584 10.0083 12.9227 10.0434 12.9681 10.1037C12.9939 10.1231 13.0074 10.1416 12.9787 10.1746C12.9509 10.2055 12.9293 10.2415 12.9152 10.2806C12.8762 10.3884 12.9407 10.4997 13.043 10.5058C13.0765 10.5079 13.1251 10.4838 13.1415 10.5281C13.1583 10.5704 13.119 10.606 13.0974 10.641C13.0595 10.7011 13.0164 10.7576 12.9777 10.8171C12.9517 10.8554 12.9347 10.8991 12.9281 10.9449C12.9215 10.9907 12.9253 11.0374 12.9394 11.0814C12.9583 11.1454 12.9729 11.2103 12.9673 11.2788C12.9588 11.38 12.9004 11.4228 12.8162 11.3882C12.7976 11.3814 12.7801 11.3719 12.7644 11.3601C12.7224 11.3245 12.6881 11.295 12.6456 11.3712C12.6164 11.4249 12.5048 11.4034 12.4669 11.3425C12.4459 11.3083 12.4347 11.3128 12.4097 11.3367C12.325 11.4201 12.29 11.4201 12.2076 11.3367C12.1842 11.3133 12.1678 11.3101 12.1425 11.3298C12.1116 11.3542 12.0778 11.3748 12.0419 11.3911C12.0087 11.4066 11.985 11.4007 11.9948 11.3455C12.0148 11.2448 12.0844 11.1638 12.1749 11.1497C12.2464 11.1391 12.3189 11.1369 12.3909 11.1258C12.4918 11.1098 12.5388 11.0469 12.5359 10.9351C12.5335 10.8174 12.5341 10.7005 12.5264 10.5839C12.5206 10.4752 12.4858 10.3701 12.4254 10.2795C12.371 10.1974 12.3154 10.1151 12.2615 10.0319C12.1784 9.90471 12.1298 9.76632 12.1412 9.60508C12.1659 9.57772 12.1946 9.58888 12.2222 9.59446C12.261 9.59286 12.2995 9.59658 12.3378 9.60774C12.363 9.60721 12.3882 9.61889 12.4143 9.61544M9.43501 9.64997L9.43289 9.65422C9.4544 9.67972 9.46875 9.71266 9.49079 9.73789C9.51922 9.78943 9.57287 9.81811 9.59545 9.87628C9.59651 9.87841 9.59678 9.88053 9.5989 9.88213C9.69293 9.99528 9.694 9.99582 9.58243 10.0949C9.5502 10.1249 9.51515 10.1518 9.47778 10.1751C9.39676 10.229 9.32079 10.2211 9.2504 10.148C9.17409 10.0692 9.09669 9.99148 9.01825 9.9148C8.96725 9.8646 8.92129 9.86938 8.88889 9.93472C8.86897 9.97404 8.86047 9.95757 8.84665 9.93711C8.83023 9.91103 8.82225 9.88051 8.82381 9.84972C8.82155 9.78529 8.82075 9.72082 8.82142 9.65635C8.82248 9.58675 8.8177 9.52247 8.75847 9.4805C8.73907 9.46749 8.73057 9.44996 8.75289 9.42339C8.76698 9.40728 8.7763 9.38757 8.77982 9.36646C8.78334 9.34535 8.78091 9.32367 8.77281 9.30386C8.76431 9.28155 8.77095 9.25844 8.77706 9.2348C8.78423 9.20558 8.79432 9.17238 8.75847 9.15591C8.74625 9.15963 8.7404 9.15644 8.74465 9.14157C8.74465 9.13732 8.74465 9.13307 8.74572 9.12908C8.73562 9.09083 8.77759 9.05072 8.74226 9.0138C8.73722 9.00955 8.73509 9.00291 8.73243 8.99707C8.72739 8.979 8.7335 8.9628 8.74014 8.94713C8.74465 8.93464 8.75634 8.92163 8.74704 8.90782C8.73722 8.89321 8.7242 8.90224 8.71384 8.90861C8.69525 8.9203 8.67851 8.93624 8.65833 8.94554C8.61742 8.96466 8.59139 8.94686 8.5789 8.90011C8.56987 8.88285 8.54729 8.87753 8.54251 8.85283C8.60839 8.83663 8.6732 8.82441 8.73536 8.80582C8.76218 8.79732 8.77467 8.81378 8.78901 8.83052C8.94387 9.00264 9.09953 9.17557 9.25386 9.34849C9.29317 9.39205 9.32584 9.44252 9.34629 9.50016C9.38667 9.54213 9.39676 9.60668 9.43501 9.64997M8.66682 10.5146C8.63229 10.5204 8.61104 10.5244 8.59086 10.5276C8.54517 10.5318 8.50772 10.5473 8.50586 10.6105C8.50443 10.6244 8.4994 10.6378 8.49125 10.6493C8.47929 10.6721 8.46628 10.6995 8.44184 10.6995C8.4182 10.6989 8.41129 10.6684 8.402 10.6487C8.34622 10.5372 8.34728 10.5372 8.23757 10.5164C8.24262 10.4806 8.27397 10.4739 8.29043 10.4524C8.32842 10.4038 8.3239 10.3791 8.26892 10.3658C8.22417 10.3537 8.18421 10.3281 8.15443 10.2925C8.12097 10.2567 8.11858 10.2147 8.14912 10.1786C8.18233 10.1395 8.215 10.1679 8.23412 10.2001C8.26467 10.2508 8.283 10.2298 8.3077 10.1956C8.33634 10.1534 8.35237 10.104 8.35392 10.053C8.35548 10.0021 8.34248 9.95172 8.31647 9.90789C8.28884 9.86327 8.29097 9.83458 8.3247 9.80138C8.33285 9.79336 8.33958 9.78402 8.34462 9.77375C8.3579 9.75038 8.37889 9.727 8.36534 9.69619C8.35206 9.66724 8.32523 9.676 8.30239 9.67441C8.2899 9.67441 8.27689 9.67494 8.2644 9.67282C8.23598 9.6675 8.20889 9.65794 8.19879 9.62421C8.19082 9.6003 8.19375 9.57613 8.21234 9.55833C8.23758 9.53336 8.26387 9.54425 8.28884 9.55913C8.33798 9.58835 8.37092 9.58436 8.37225 9.51025C8.37278 9.48635 8.3834 9.47519 8.40518 9.48263C8.4089 9.48422 8.41342 9.48422 8.41767 9.48528C8.50081 9.51716 8.57359 9.58011 8.66736 9.57932C8.68675 9.57932 8.70932 9.60668 8.6995 9.63935C8.69047 9.66883 8.66895 9.68716 8.64053 9.68238C8.61317 9.67813 8.58687 9.6675 8.55978 9.6606C8.51595 9.64838 8.50692 9.67255 8.51781 9.71425C8.51781 9.71744 8.5194 9.7185 8.51993 9.72116C8.53295 9.77668 8.59378 9.80802 8.59431 9.85769C8.59537 9.9063 8.54278 9.94614 8.53587 10.0041C8.52631 10.088 8.53986 10.1605 8.60068 10.2163C8.62273 10.2359 8.64053 10.2418 8.65514 10.2046C8.67586 10.152 8.71278 10.1472 8.74811 10.181C8.78529 10.2168 8.77387 10.2583 8.74173 10.2925C8.7089 10.3311 8.66342 10.3567 8.61343 10.3648C8.59697 10.3669 8.57545 10.3669 8.56907 10.3868C8.5627 10.4099 8.5797 10.4272 8.59245 10.4418C8.61423 10.4644 8.63628 10.4848 8.66682 10.5146" fill="#FEB600"/>
<path fill-rule="evenodd" clip-rule="evenodd" d="M13.4433 10.819C13.4443 11.0036 13.4443 11.0049 13.2828 11.049C13.1954 11.0724 13.1112 11.1043 13.0403 11.1699C13.0148 11.1938 13.0069 11.1898 12.9946 11.1532C12.9439 11.0047 12.9633 10.8753 13.0637 10.7584C13.1027 10.712 13.1349 10.6572 13.1638 10.602C13.2074 10.5212 13.179 10.467 13.0964 10.4631C13.0775 10.4625 13.0584 10.4641 13.0393 10.4625C12.9734 10.4564 12.9285 10.3858 12.9452 10.3148C12.9499 10.2967 12.957 10.2793 12.9662 10.263C13.0183 10.1658 13.0193 10.1653 13.1046 10.2267C13.1532 10.2615 13.1994 10.2992 13.2486 10.3326C13.3609 10.4091 13.4337 10.5122 13.4327 10.6684C13.4327 10.7189 13.4401 10.7693 13.4433 10.819" fill="#8C2029"/>
<path fill-rule="evenodd" clip-rule="evenodd" d="M8.63015 8.45439L8.64264 8.42517C8.66195 8.41386 8.68356 8.40706 8.70587 8.40526C8.72817 8.40347 8.75059 8.40673 8.77146 8.41481C8.87586 8.45385 8.91145 8.5694 8.85036 8.67379C8.82044 8.72649 8.7715 8.76574 8.71356 8.78349C8.5521 8.83528 8.3783 8.83397 8.21764 8.77978C8.16673 8.76273 8.12298 8.72916 8.09332 8.68442C8.04418 8.6127 8.04286 8.5261 8.08961 8.46846C8.11346 8.43736 8.14861 8.4169 8.18744 8.41153C8.22627 8.40616 8.26566 8.41631 8.29706 8.43978C8.33478 8.47085 8.32521 8.50884 8.31114 8.54868C8.2859 8.58374 8.28245 8.61615 8.32548 8.6382C8.42137 8.66742 8.51806 8.65918 8.61289 8.63554C8.63812 8.61881 8.67557 8.60606 8.62909 8.56781L8.63068 8.56967C8.61714 8.53168 8.60997 8.49264 8.63015 8.45439" fill="#FEB600"/>
<path fill-rule="evenodd" clip-rule="evenodd" d="M9.59966 7.43631C9.51705 7.41346 9.43444 7.39434 9.35263 7.36778C9.2843 7.34716 9.22566 7.30266 9.18741 7.2424C9.1728 7.21956 9.15527 7.19246 9.1728 7.16351C9.19219 7.13137 9.21823 7.1489 9.24133 7.15846C9.38318 7.21584 9.51705 7.29181 9.66235 7.33829C9.75638 7.36751 9.85094 7.39301 9.94843 7.39912C9.97765 7.40018 10.0037 7.40603 10.0217 7.43365C10.0518 7.45756 10.0573 7.49793 10.0717 7.5314C10.0743 7.55159 10.0884 7.57098 10.0773 7.59276C10.0576 7.62596 10.0308 7.60657 10.0066 7.60657C9.99279 7.60551 9.98163 7.5994 9.96835 7.59728C9.9371 7.59157 9.90565 7.58705 9.87405 7.58373C9.86423 7.5816 9.8544 7.57815 9.84324 7.57815C9.79968 7.57868 9.76196 7.57603 9.79968 7.50962C9.80871 7.49368 9.8018 7.47775 9.78746 7.46712C9.72451 7.45782 9.65916 7.47164 9.59966 7.43631" fill="#FDB600"/>
<path fill-rule="evenodd" clip-rule="evenodd" d="M8.60732 9.15852C8.57518 9.18641 8.53879 9.17339 8.5032 9.171C8.47318 9.16117 8.43573 9.18614 8.41182 9.1447C8.37968 9.13674 8.34595 9.1301 8.31381 9.1208C8.26759 9.10778 8.23731 9.06953 8.24315 9.01853C8.25006 8.96036 8.29707 8.98374 8.33054 8.9832C8.34064 8.9832 8.35073 8.98427 8.36189 8.98533C8.38154 8.9771 8.3996 8.98586 8.4174 8.99064C8.47584 9.00206 8.52896 9.03394 8.58368 9.05439C8.6291 9.07192 8.63575 9.11203 8.60732 9.15852" fill="#FDB500"/>
<path fill-rule="evenodd" clip-rule="evenodd" d="M8.47875 9.18319C8.50983 9.19701 8.54064 9.20949 8.57145 9.22516C8.59483 9.23711 8.62033 9.25279 8.61209 9.28705C8.60439 9.32265 8.57624 9.32955 8.54728 9.32902C8.53267 9.32902 8.51727 9.32743 8.50292 9.32583C8.4753 9.34071 8.45378 9.33115 8.43784 9.30219C8.40544 9.29369 8.3725 9.28785 8.34063 9.27669C8.30955 9.2666 8.27794 9.24907 8.28644 9.20365C8.29388 9.16486 8.32256 9.15504 8.35497 9.15637C8.36958 9.1569 8.38472 9.15796 8.39959 9.15796C8.42695 9.16035 8.45724 9.15185 8.47875 9.18319" fill="#FBB400"/>
<path fill-rule="evenodd" clip-rule="evenodd" d="M8.36213 8.97132C8.36027 8.96973 8.35868 8.96813 8.35655 8.96707C8.32946 8.94556 8.27501 8.94104 8.28962 8.88845C8.30582 8.83054 8.35815 8.85338 8.39401 8.86082C8.45218 8.87357 8.50823 8.89535 8.56534 8.91315C8.59455 8.91873 8.61315 8.94078 8.62643 8.96787C8.63706 8.99071 8.62484 9.00878 8.61235 9.02604C8.59455 9.05154 8.56959 9.05367 8.54488 9.0441C8.49931 9.02716 8.45315 9.01183 8.40649 8.99815C8.38943 8.99368 8.37402 8.98436 8.36213 8.97132" fill="#FAB300"/>
<path fill-rule="evenodd" clip-rule="evenodd" d="M8.50264 9.34198C8.52708 9.35579 8.55152 9.36881 8.57489 9.38528C8.59269 9.39776 8.60969 9.4145 8.60491 9.44265C8.5996 9.4724 8.57595 9.47453 8.55497 9.47665C8.48777 9.48462 8.42614 9.4647 8.36611 9.43203C8.33052 9.4137 8.31272 9.38475 8.32149 9.34198C8.33105 9.29443 8.36558 9.32179 8.39002 9.31728C8.39586 9.31675 8.40224 9.31675 8.40861 9.31675C8.44049 9.32232 8.47528 9.31117 8.50264 9.34198" fill="#FCB500"/>
<path fill-rule="evenodd" clip-rule="evenodd" d="M8.4004 8.98513L8.52126 9.01833C8.5542 9.02603 8.59139 9.04011 8.60892 8.99469C8.62645 8.9498 8.58395 8.93731 8.56536 8.91314L8.5789 8.90039C8.60334 8.90995 8.62008 8.94714 8.65248 8.92536C8.66258 8.91872 8.66869 8.9243 8.67506 8.93147C8.68017 8.94446 8.68217 8.95847 8.6809 8.97237C8.70454 8.95644 8.72075 8.92802 8.74997 8.93439C8.759 8.93917 8.76564 8.94502 8.75847 8.95697L8.74226 8.99788C8.75342 9.02869 8.75236 9.05525 8.72579 9.07863C8.68914 9.11316 8.66072 9.15778 8.63044 9.19922C8.623 9.18521 8.61521 9.17139 8.60706 9.15778C8.62194 9.12219 8.60972 9.09802 8.58156 9.08288C8.52312 9.05127 8.46442 9.02205 8.39987 9.01063C8.3935 9.00239 8.39297 8.99416 8.4004 8.98513" fill="#070500"/>
<path fill-rule="evenodd" clip-rule="evenodd" d="M8.74436 9.14258L8.75817 9.15692C8.75923 9.23422 8.73107 9.29531 8.67423 9.33861C8.66281 9.34738 8.6474 9.35959 8.63465 9.34472C8.6219 9.33144 8.62695 9.31178 8.63492 9.2977C8.64661 9.27831 8.6575 9.25388 8.67423 9.24378C8.71328 9.22147 8.73161 9.18588 8.74436 9.14258Z" fill="#EFAB00"/>
<path fill-rule="evenodd" clip-rule="evenodd" d="M8.63066 9.19988C8.62619 9.17836 8.62863 9.15599 8.63765 9.13595C8.64667 9.11591 8.66179 9.09924 8.68086 9.08832C8.71486 9.06707 8.7308 9.03572 8.74222 8.99854C8.7478 8.9996 8.75338 8.9996 8.75975 9.00013C8.77224 9.04449 8.77064 9.08486 8.73425 9.11541C8.70424 9.14968 8.68511 9.20254 8.63066 9.19988" fill="#F6B000"/>
<path fill-rule="evenodd" clip-rule="evenodd" d="M11.3225 7.63359C11.2482 7.58331 11.1834 7.52017 11.1313 7.44712C11.1196 7.44022 11.1087 7.43357 11.1164 7.41631C11.1212 7.40011 11.1318 7.37753 11.1438 7.4017C11.1897 7.4952 11.2707 7.54912 11.3369 7.62004L11.3225 7.63359" fill="#171100"/>
<path fill-rule="evenodd" clip-rule="evenodd" d="M11.4219 7.39452C11.3688 7.34086 11.3042 7.29916 11.2697 7.22531C11.2524 7.19436 11.2431 7.15957 11.2426 7.12411C11.2407 7.10977 11.2301 7.09197 11.2556 7.08984C11.2673 7.22478 11.3597 7.29438 11.4373 7.37619C11.4319 7.38204 11.4267 7.38816 11.4219 7.39452" fill="#181100"/>
<path fill-rule="evenodd" clip-rule="evenodd" d="M10.8537 10.0187L10.9918 9.6885C11.007 9.68797 11.0109 9.69515 11.0059 9.71002C10.9783 9.82477 10.9159 9.92252 10.8781 10.0312C10.8704 10.0269 10.8619 10.0229 10.8537 10.0187" fill="#1A1300"/>
<path fill-rule="evenodd" clip-rule="evenodd" d="M8.75816 9.34752C8.7571 9.38524 8.67688 9.47954 8.65404 9.47741C8.63225 9.47476 8.63278 9.4559 8.63916 9.43969C8.65675 9.39543 8.69044 9.35947 8.73346 9.33902C8.74913 9.33185 8.7571 9.33822 8.75816 9.34752" fill="#F1AD00"/>
<path fill-rule="evenodd" clip-rule="evenodd" d="M12.9681 10.1046C12.9054 10.0658 12.8494 10.0173 12.802 9.96086C12.8002 9.94704 12.8036 9.9412 12.8167 9.94598C12.8716 9.99353 12.9264 10.0419 12.9816 10.0902C12.9771 10.0945 12.9726 10.0995 12.9681 10.1046" fill="#1A1300"/>
<path fill-rule="evenodd" clip-rule="evenodd" d="M9.59971 7.43604C9.66957 7.44427 9.73996 7.45171 9.81062 7.45914C9.78618 7.48491 9.75377 7.45914 9.72774 7.47535C9.67444 7.47733 9.62127 7.46875 9.57129 7.45011C9.58059 7.44533 9.58988 7.44029 9.59971 7.43604Z" fill="#2F2200"/>
<path fill-rule="evenodd" clip-rule="evenodd" d="M9.43497 9.65025C9.38025 9.61944 9.36803 9.55622 9.34625 9.50071C9.35156 9.49486 9.35528 9.48822 9.36006 9.48291C9.3853 9.53869 9.42116 9.5881 9.43497 9.65025" fill="#211800"/>
<path fill-rule="evenodd" clip-rule="evenodd" d="M12.2167 9.59974C12.1917 9.60239 12.1665 9.60399 12.1412 9.60585C12.1051 9.57158 12.0602 9.60213 12.0222 9.58619C12.0855 9.56905 12.1523 9.5696 12.2153 9.58778C12.2244 9.59071 12.2252 9.59522 12.2167 9.59974" fill="#5F4400"/>
<path fill-rule="evenodd" clip-rule="evenodd" d="M9.59438 9.87613C9.55073 9.83874 9.51389 9.79408 9.48547 9.74412C9.48632 9.74185 9.48775 9.73985 9.48962 9.73832C9.49148 9.73678 9.49372 9.73576 9.4961 9.73535C9.53568 9.7813 9.57526 9.82673 9.61536 9.87241C9.60846 9.87374 9.60102 9.87454 9.59438 9.87613Z" fill="#130D00"/>
<path fill-rule="evenodd" clip-rule="evenodd" d="M8.7348 9.11626C8.75499 9.08119 8.7441 9.0371 8.7603 9.00098C8.8121 9.05171 8.77172 9.08969 8.74543 9.13087C8.74197 9.12609 8.73799 9.1213 8.7348 9.11626Z" fill="#3A2900"/>
<path fill-rule="evenodd" clip-rule="evenodd" d="M8.29812 8.55323C8.30641 8.5353 8.31062 8.51575 8.31044 8.496C8.31025 8.47624 8.30568 8.45678 8.29706 8.43901C8.3021 8.43848 8.30715 8.43848 8.31167 8.43848C8.35496 8.4823 8.33159 8.52613 8.31273 8.57049C8.30423 8.56916 8.29918 8.56332 8.29812 8.55323" fill="#251A00"/>
<path fill-rule="evenodd" clip-rule="evenodd" d="M11.5387 8.08008C11.5632 8.09602 11.5887 8.11116 11.6073 8.15366C11.5739 8.14424 11.5448 8.12372 11.5247 8.09548C11.5292 8.09044 11.5337 8.08512 11.5387 8.08008Z" fill="#2C2000"/>
<path fill-rule="evenodd" clip-rule="evenodd" d="M10.0327 10.0076C10.0165 9.97573 10.022 9.9396 10.0196 9.90613C10.018 9.88913 10.0021 9.86815 10.0316 9.8623C10.0361 9.90029 10.0398 9.93748 10.0446 9.97573C10.0402 9.9862 10.0362 9.99683 10.0327 10.0076" fill="#020200"/>
<path fill-rule="evenodd" clip-rule="evenodd" d="M8.47877 9.18331L8.39935 9.15834C8.40387 9.15399 8.40813 9.14938 8.4121 9.14453C8.44436 9.14498 8.47591 9.15406 8.50348 9.17083C8.49516 9.17483 8.48693 9.17899 8.47877 9.18331" fill="#463200"/>
<path fill-rule="evenodd" clip-rule="evenodd" d="M10.0613 7.53409L10.022 7.43368C10.0284 7.43368 10.034 7.43262 10.0398 7.43262C10.051 7.45599 10.0613 7.4807 10.0722 7.5046C10.0791 7.51921 10.0834 7.53302 10.0613 7.53409Z" fill="#221800"/>
<path fill-rule="evenodd" clip-rule="evenodd" d="M8.50266 9.34187C8.47135 9.33333 8.44001 9.32492 8.40863 9.31663C8.41793 9.31132 8.42802 9.30654 8.43732 9.30176C8.46079 9.30342 8.48333 9.3116 8.5024 9.3254L8.50266 9.34187Z" fill="#1E1500"/>
<path fill-rule="evenodd" clip-rule="evenodd" d="M11.568 6.41462C11.5635 6.41515 11.5584 6.41515 11.5529 6.41621C11.564 6.39125 11.5744 6.36628 11.5842 6.34131C11.5943 6.37186 11.5815 6.39311 11.568 6.41462Z" fill="#64171D"/>
<path fill-rule="evenodd" clip-rule="evenodd" d="M11.3353 7.98994C11.3161 7.98355 11.2968 7.97708 11.2776 7.97055C11.3098 7.95568 11.33 7.96497 11.3496 7.97719C11.3446 7.98197 11.3395 7.98569 11.3353 7.98994" fill="#010100"/>
<path fill-rule="evenodd" clip-rule="evenodd" d="M8.40037 8.98508V9.01084C8.38709 9.00234 8.37487 8.99358 8.36212 8.98508V8.971C8.377 8.96914 8.38868 8.97631 8.40037 8.98508Z" fill="#020200"/>
<path fill-rule="evenodd" clip-rule="evenodd" d="M15.1646 5.96943C15.1693 5.93012 15.1693 5.88974 15.1786 5.85335C15.2341 5.64351 15.2546 5.42729 15.279 5.21213C15.3104 4.93269 15.4947 4.82326 15.7234 4.93694C15.7694 4.95979 15.8177 4.96723 15.8661 4.96457C15.9048 4.96218 15.9242 4.97387 15.9123 5.02062C15.9022 5.06258 15.9157 5.09924 15.9335 5.13537C15.9481 5.16458 15.9604 5.19566 15.9691 5.22727C16.009 5.35849 15.9718 5.46846 15.865 5.53885C15.8007 5.57879 15.73 5.60745 15.656 5.62358C15.4559 5.67193 15.2679 5.73966 15.1646 5.96943M15.1885 11.2817C15.2769 11.4564 15.4182 11.542 15.5882 11.5813C15.6631 11.5986 15.7372 11.6203 15.8076 11.6533C15.9782 11.7335 16.026 11.869 15.9463 12.0565C15.9245 12.1086 15.8963 12.1572 15.912 12.2183C15.9208 12.2515 15.903 12.2597 15.877 12.2578C15.8052 12.2541 15.7407 12.2783 15.6743 12.3102C15.5247 12.3811 15.3516 12.2876 15.2976 12.1149C15.279 12.0557 15.2682 11.9942 15.2658 11.9322C15.2597 11.7681 15.2356 11.6051 15.1938 11.4463C15.1842 11.407 15.1723 11.3683 15.1749 11.3268C15.1715 11.3088 15.1571 11.2862 15.1885 11.2817" fill="#FEB600"/>
<path fill-rule="evenodd" clip-rule="evenodd" d="M15.1884 11.2816C15.1839 11.2972 15.1789 11.3116 15.1752 11.3267C15.1644 11.3028 15.1607 11.2764 15.1645 11.2505C15.1845 11.2502 15.1845 11.267 15.1884 11.2816" fill="#D39700"/>
<path fill-rule="evenodd" clip-rule="evenodd" d="M7.1262 11.2974C7.12248 11.3258 7.12089 11.3548 7.11451 11.3824C7.06617 11.5837 7.03748 11.7869 7.02101 11.9952C7.00295 12.2223 6.8882 12.3352 6.702 12.3296C6.66755 12.33 6.63372 12.3205 6.60451 12.3022C6.55341 12.2694 6.493 12.254 6.43239 12.2584C6.39387 12.2611 6.37634 12.2483 6.38484 12.2021C6.39307 12.1575 6.37793 12.1192 6.35987 12.0796C6.26265 11.8687 6.31339 11.7216 6.51181 11.6427C6.58379 11.614 6.65764 11.5896 6.73175 11.5726C6.89989 11.5341 7.02872 11.4382 7.11186 11.2676C7.13656 11.2666 7.13178 11.282 7.1262 11.2974" fill="#FEB600"/>
<path fill-rule="evenodd" clip-rule="evenodd" d="M7.12616 11.2977C7.12176 11.2877 7.11697 11.2779 7.11182 11.2682C7.11341 11.255 7.12457 11.2406 7.12988 11.2465C7.14263 11.2616 7.13333 11.2813 7.12616 11.2977" fill="#9D7000"/>
<path fill-rule="evenodd" clip-rule="evenodd" d="M7.11186 5.95511C7.02872 5.78352 6.89989 5.68949 6.73281 5.64991C6.64303 5.62839 6.55431 5.60422 6.47038 5.56146C6.31791 5.4823 6.27355 5.35241 6.34314 5.18055C6.36652 5.12264 6.39786 5.06766 6.38458 4.99807C6.3782 4.96646 6.39945 4.96433 6.41964 4.96486C6.49163 4.96911 6.55617 4.94229 6.62178 4.91254C6.77292 4.84161 6.94505 4.93511 6.99817 5.1091C7.01544 5.16647 7.02606 5.22491 7.02766 5.28414C7.03138 5.4746 7.07388 5.65682 7.11478 5.84063C7.12036 5.86799 7.12222 5.89721 7.12594 5.92483C7.13178 5.94024 7.13656 5.95591 7.11186 5.95511" fill="#FEB600"/>
<path fill-rule="evenodd" clip-rule="evenodd" d="M7.11182 5.95531C7.11713 5.94522 7.12191 5.93512 7.12616 5.92529C7.13439 5.94176 7.14263 5.96142 7.13014 5.97629C7.12563 5.98161 7.11341 5.96886 7.11182 5.95531Z" fill="#9C7000"/>
<path fill-rule="evenodd" clip-rule="evenodd" d="M10.1336 8.38244L10.1357 8.38881C10.1498 8.41856 10.1415 8.47275 10.1676 8.47594C10.2026 8.48019 10.2377 8.44831 10.2635 8.41591C10.3065 8.36066 10.3235 8.29372 10.3336 8.20898C10.3729 8.27247 10.379 8.33383 10.395 8.39094C10.4053 8.43025 10.422 8.42334 10.4441 8.41113L10.4425 8.409C10.4419 8.4253 10.4352 8.44077 10.4236 8.4523C10.4112 8.46372 10.4005 8.4863 10.3827 8.48125C10.3578 8.47381 10.3665 8.44566 10.3647 8.4268C10.3625 8.39173 10.3657 8.35667 10.3386 8.31258C10.3137 8.43052 10.2329 8.47673 10.1593 8.52853C10.1307 8.54898 10.1219 8.54155 10.124 8.50516C10.1251 8.47408 10.1232 8.443 10.1227 8.41245C10.1163 8.39784 10.1118 8.38403 10.1336 8.38244" fill="#0E0A00"/>
<path fill-rule="evenodd" clip-rule="evenodd" d="M10.4848 7.2463C10.4933 7.22452 10.5007 7.203 10.5119 7.17245C10.5501 7.20752 10.5854 7.23992 10.6202 7.27286C10.6486 7.29995 10.659 7.28667 10.6646 7.25134C10.6726 7.19742 10.6492 7.14855 10.6473 7.08984C10.6819 7.11827 10.7012 7.15466 10.723 7.18786C10.7262 7.20327 10.7212 7.21017 10.7066 7.20539C10.6906 7.23912 10.6882 7.27737 10.6837 7.3143C10.68 7.34909 10.6691 7.356 10.6444 7.33369C10.6154 7.30686 10.583 7.28348 10.5559 7.25427C10.5318 7.2285 10.5134 7.23487 10.4919 7.2532C10.4853 7.25506 10.4832 7.25347 10.4848 7.2463Z" fill="#110C00"/>
<path fill-rule="evenodd" clip-rule="evenodd" d="M11.0049 9.71032C10.9998 9.70315 10.9958 9.69544 10.9908 9.6888C11.0465 9.52477 11.0789 9.35371 11.0869 9.18066C11.1175 9.36793 11.0625 9.53952 11.0049 9.71032" fill="#1D1500"/>
<path fill-rule="evenodd" clip-rule="evenodd" d="M10.7748 7.94448C10.7355 7.94183 10.7095 7.88206 10.6744 7.89933C10.6449 7.91553 10.6593 7.97397 10.6431 8.00876C10.633 8.02869 10.634 8.06428 10.6109 8.06587C10.5857 8.068 10.5873 8.0324 10.5791 8.01195L10.5557 7.95351C10.5477 7.93651 10.5573 7.93651 10.5679 7.93678C10.5822 7.95883 10.5958 7.98167 10.6125 8.00876C10.633 7.9652 10.6309 7.9227 10.6364 7.88233C10.6412 7.84859 10.6487 7.82628 10.6827 7.85497C10.714 7.88259 10.7565 7.89508 10.7767 7.93944L10.7748 7.94448Z" fill="#120D00"/>
<path fill-rule="evenodd" clip-rule="evenodd" d="M10.9437 7.83466C10.9127 7.86415 10.9337 7.90319 10.9273 7.93825C10.9233 7.96747 10.9305 7.99882 10.9174 8.02724C10.9071 8.02618 10.9066 8.01741 10.9039 8.00918C10.905 7.9611 10.9066 7.91435 10.905 7.8668C10.9034 7.8073 10.8635 7.77649 10.8274 7.74408C10.8003 7.71858 10.7929 7.75763 10.7761 7.76586C10.7626 7.77065 10.7594 7.76321 10.7615 7.7494L10.7751 7.71858C10.7817 7.70052 10.7817 7.67183 10.804 7.66865C10.8226 7.66599 10.8274 7.69202 10.8364 7.7069C10.8659 7.75843 10.9153 7.78419 10.9525 7.82536C10.9536 7.83254 10.9504 7.83626 10.9437 7.83466Z" fill="#1F1600"/>
<path fill-rule="evenodd" clip-rule="evenodd" d="M11.0115 7.50139C10.9642 7.47005 10.9403 7.49555 10.9228 7.54443C10.914 7.56993 10.8999 7.5933 10.8835 7.62757C10.8614 7.59436 10.8431 7.56568 10.8237 7.53699C10.8195 7.52132 10.8253 7.51839 10.8375 7.52078L10.88 7.56089C10.9207 7.50936 10.9223 7.45172 10.9135 7.37549C10.9485 7.42729 10.9945 7.44907 11.011 7.50246L11.0115 7.50139" fill="#161000"/>
<path fill-rule="evenodd" clip-rule="evenodd" d="M10.761 7.74829L10.7756 7.76475C10.7605 7.79185 10.7448 7.81204 10.7337 7.7621C10.7242 7.72863 10.7089 7.69713 10.6882 7.66913C10.6274 7.57775 10.6261 7.57775 10.5583 7.65107C10.5514 7.64549 10.5506 7.63885 10.556 7.63194C10.5671 7.59874 10.5607 7.54747 10.5913 7.53791C10.6218 7.52835 10.6423 7.5743 10.6646 7.59874C10.7031 7.6431 10.74 7.69038 10.761 7.74829" fill="#110C00"/>
<path fill-rule="evenodd" clip-rule="evenodd" d="M11.2971 8.42326C11.2647 8.41396 11.2291 8.40998 11.2004 8.39351C11.1302 8.35207 11.0689 8.34649 11.0179 8.42591C11.0041 8.43043 10.9998 8.42379 11.0022 8.40944C11.0798 8.31329 11.0806 8.31169 11.1874 8.35898C11.2245 8.37491 11.267 8.37385 11.2973 8.40812C11.3066 8.41396 11.3061 8.41848 11.2971 8.42326" fill="#181100"/>
<path fill-rule="evenodd" clip-rule="evenodd" d="M11.2971 8.42338C11.2971 8.4186 11.2971 8.41302 11.2976 8.40798C11.352 8.4186 11.3709 8.38779 11.3725 8.33095C11.3736 8.28605 11.3563 8.22337 11.3839 8.20159C11.4092 8.18087 11.4599 8.20318 11.5003 8.20637L11.5064 8.20929C11.5186 8.20743 11.5351 8.19255 11.5388 8.22204C11.5181 8.2231 11.4957 8.22921 11.4758 8.22523C11.4073 8.20929 11.3977 8.26241 11.3874 8.3158C11.3868 8.32218 11.3903 8.32988 11.3903 8.33626C11.3932 8.45048 11.3932 8.45048 11.2971 8.42338" fill="#0C0900"/>
<path fill-rule="evenodd" clip-rule="evenodd" d="M10.7838 7.14355V7.04102C10.8218 7.08591 10.8497 7.11911 10.8776 7.15338C10.8975 7.17994 10.9151 7.18233 10.9299 7.1478C10.9432 7.1462 10.9475 7.15284 10.9427 7.16692C10.9374 7.19561 10.923 7.21925 10.9084 7.24475C10.8816 7.22695 10.8731 7.19269 10.855 7.16719C10.8311 7.13425 10.8144 7.14222 10.7979 7.17463C10.7729 7.17489 10.7812 7.15683 10.7838 7.14355" fill="#0E0A00"/>
<path fill-rule="evenodd" clip-rule="evenodd" d="M12.6727 9.81809C12.6007 9.74902 12.5258 9.68209 12.4339 9.64649C12.419 9.64091 12.4145 9.63029 12.4127 9.61621C12.525 9.63959 12.6111 9.7129 12.6876 9.80268C12.6902 9.81649 12.687 9.8226 12.6727 9.81809Z" fill="#181100"/>
<path fill-rule="evenodd" clip-rule="evenodd" d="M10.1336 8.38239C10.1301 8.39196 10.1261 8.40232 10.1227 8.41294C10.1208 8.40896 10.1171 8.4055 10.1163 8.40046C10.0818 8.29394 10.0818 8.29394 9.98296 8.32183C9.97339 8.31652 9.97286 8.31014 9.98083 8.30403C9.98296 8.30244 9.98455 8.30005 9.98641 8.29952C10.027 8.2796 10.0759 8.23391 10.1038 8.24692C10.1373 8.26207 10.1211 8.33538 10.1336 8.38239Z" fill="#150F00"/>
<path fill-rule="evenodd" clip-rule="evenodd" d="M10.9437 7.83457C10.9471 7.83195 10.9501 7.82881 10.9525 7.82528C10.9804 7.84175 11.008 7.85795 11.0364 7.87548C11.0635 7.84812 11.0513 7.79632 11.0856 7.77295C11.089 7.778 11.0927 7.78012 11.0927 7.78384C11.0901 7.83192 11.0901 7.90071 11.055 7.91107C11.0157 7.92436 10.9772 7.8707 10.9437 7.83457" fill="#221900"/>
<path fill-rule="evenodd" clip-rule="evenodd" d="M11.1212 6.53192C11.0412 6.55158 10.9607 6.57416 10.8794 6.55822L10.8773 6.53086C10.9493 6.52634 11.0213 6.52262 11.0935 6.51758C11.1012 6.52581 11.1156 6.51758 11.1212 6.53192" fill="#241A00"/>
<path fill-rule="evenodd" clip-rule="evenodd" d="M11.2041 6.97791C11.1733 6.9888 11.1889 7.01723 11.1873 7.03795C11.1858 7.06398 11.1948 7.09001 11.1765 7.12693C11.1645 7.0422 11.1544 6.96755 11.1425 6.88574C11.1804 6.90965 11.2025 6.9386 11.2174 6.97605C11.2142 6.98535 11.2094 6.98641 11.2041 6.97791Z" fill="#1C1400"/>
<path fill-rule="evenodd" clip-rule="evenodd" d="M10.5309 6.77013C10.5607 6.7372 10.6069 6.78899 10.6345 6.7441C10.6354 6.74098 10.637 6.73808 10.639 6.73557C10.6411 6.73306 10.6436 6.73099 10.6465 6.72949C10.6632 6.7457 10.681 6.76163 10.7065 6.78501C10.638 6.80759 10.5841 6.80174 10.5317 6.76748L10.5309 6.77013" fill="#2F2200"/>
<path fill-rule="evenodd" clip-rule="evenodd" d="M10.6463 6.7295C10.6428 6.73482 10.6383 6.7396 10.6343 6.74411L10.5676 6.62883L10.5761 6.61768C10.6162 6.64132 10.6561 6.66575 10.6965 6.68966C10.697 6.70268 10.6951 6.71144 10.6805 6.70374C10.6678 6.70879 10.6378 6.6878 10.6463 6.7295Z" fill="#140E00"/>
<path fill-rule="evenodd" clip-rule="evenodd" d="M11.0115 7.50124L11.0109 7.5023C11.0888 7.54029 11.0829 7.44679 11.1164 7.4165C11.1212 7.42686 11.1259 7.43722 11.1313 7.44732C11.1081 7.45821 11.1119 7.48689 11.0996 7.50575C11.0882 7.52568 11.0901 7.56632 11.0611 7.561C11.0393 7.55702 11.0109 7.53949 11.0115 7.50124" fill="#201700"/>
<path fill-rule="evenodd" clip-rule="evenodd" d="M10.9517 8.48177C10.8879 8.53675 10.8879 8.53675 10.8728 8.45281C10.8691 8.43441 10.865 8.41608 10.8606 8.39783C10.8547 8.38269 10.8489 8.36914 10.8728 8.36914C10.8978 8.39836 10.8808 8.4637 10.9382 8.46848C10.9517 8.46264 10.9544 8.46875 10.9517 8.48177" fill="#1C1400"/>
<path fill-rule="evenodd" clip-rule="evenodd" d="M10.1389 6.8145C10.2253 6.79085 10.2332 6.76509 10.1769 6.67557C10.2215 6.66973 10.2343 6.69789 10.2375 6.73693C10.2409 6.78209 10.2287 6.81821 10.1862 6.8315C10.1656 6.83744 10.1437 6.8367 10.1235 6.82937C10.1222 6.81556 10.1251 6.80706 10.1389 6.8145" fill="#140F00"/>
<path fill-rule="evenodd" clip-rule="evenodd" d="M11.0808 7.13236C11.1132 7.14352 11.1368 7.20621 11.1807 7.15042C11.1862 7.19425 11.1719 7.22746 11.152 7.2681C11.1341 7.22113 11.1051 7.1792 11.0675 7.14591C11.0651 7.13316 11.0667 7.12572 11.0808 7.13236" fill="#0E0A00"/>
<path fill-rule="evenodd" clip-rule="evenodd" d="M10.5827 8.2793C10.6146 8.30028 10.6151 8.36987 10.672 8.35261C10.6773 8.34809 10.681 8.34809 10.6863 8.35261C10.677 8.38226 10.6616 8.40966 10.6412 8.43309C10.6167 8.38475 10.5928 8.34013 10.5695 8.2947C10.5695 8.29099 10.5709 8.28742 10.5733 8.28461C10.5757 8.28179 10.5791 8.27992 10.5827 8.2793Z" fill="#150F00"/>
<path fill-rule="evenodd" clip-rule="evenodd" d="M11.2651 7.9533C11.2329 7.9454 11.2027 7.93095 11.1763 7.91084C11.15 7.89073 11.128 7.8654 11.1119 7.83643C11.1698 7.86193 11.2118 7.91771 11.2651 7.9533Z" fill="#251B00"/>
<path fill-rule="evenodd" clip-rule="evenodd" d="M12.6727 9.81814L12.6876 9.80273C12.7304 9.85055 12.7739 9.89783 12.8167 9.94591L12.8021 9.96078C12.754 9.918 12.7106 9.87018 12.6727 9.81814" fill="#261B00"/>
<path fill-rule="evenodd" clip-rule="evenodd" d="M10.0316 9.86256C10.0274 9.87712 10.0234 9.89173 10.0196 9.90639C10.0023 9.81918 10.0019 9.72944 10.0186 9.64209C10.0382 9.66361 10.0186 9.69389 10.0327 9.71647C10.0316 9.76481 10.0316 9.81315 10.0316 9.86256Z" fill="#5B4200"/>
<path fill-rule="evenodd" clip-rule="evenodd" d="M10.1442 7.82351C10.1594 7.86787 10.1719 7.91276 10.1899 7.95606C10.1971 7.97253 10.1966 7.98129 10.1846 7.99032C10.165 8.00334 10.1562 7.98767 10.1533 7.97093C10.1453 7.92737 10.1395 7.88248 10.1325 7.83812C10.1262 7.82298 10.1336 7.82139 10.1442 7.82351" fill="#1A1200"/>
<path fill-rule="evenodd" clip-rule="evenodd" d="M10.7339 8.14905C10.7403 8.13391 10.7456 8.11798 10.7541 8.10496C10.7607 8.09407 10.7706 8.08158 10.7841 8.08743C10.7953 8.09221 10.7963 8.10443 10.7982 8.11691C10.8024 8.1464 10.8083 8.17641 10.8147 8.20616C10.821 8.2229 10.8131 8.22476 10.8009 8.22316C10.7918 8.19979 10.7857 8.17455 10.7732 8.1541C10.7578 8.1286 10.7536 8.15569 10.7461 8.16526C10.7345 8.16685 10.727 8.16393 10.7339 8.14905Z" fill="#181100"/>
<path fill-rule="evenodd" clip-rule="evenodd" d="M10.3041 7.87939C10.2643 7.83743 10.2717 7.90649 10.251 7.90808C10.2382 7.911 10.2311 7.90808 10.2361 7.89161L10.2834 7.77979C10.2955 7.7931 10.3045 7.80889 10.3098 7.82605C10.3151 7.84321 10.3166 7.86133 10.3142 7.87913C10.311 7.8863 10.3078 7.88683 10.3041 7.87939Z" fill="#1B1400"/>
<path fill-rule="evenodd" clip-rule="evenodd" d="M9.98033 8.30366C9.98139 8.30951 9.98192 8.31562 9.98245 8.32146C9.95137 8.33288 9.92056 8.34962 9.88098 8.3366C9.90967 8.29516 9.93942 8.25612 9.95854 8.21016C9.97076 8.20751 9.97767 8.21229 9.97236 8.22849L9.95509 8.27949C9.93676 8.32624 9.96651 8.30419 9.98033 8.30366" fill="#0D0900"/>
<path fill-rule="evenodd" clip-rule="evenodd" d="M9.72772 7.4747C9.75375 7.45557 9.78244 7.46567 9.8106 7.4585C9.83317 7.46036 9.83211 7.47311 9.82361 7.49276C9.81432 7.51428 9.7928 7.53048 9.79333 7.56129C9.82042 7.56501 9.84725 7.569 9.87355 7.57404C9.83477 7.58068 9.79174 7.61389 9.7665 7.54854C9.8013 7.48161 9.8013 7.48161 9.72772 7.4747Z" fill="#2D2000"/>
<path fill-rule="evenodd" clip-rule="evenodd" d="M10.5828 8.27977C10.5785 8.28561 10.5738 8.29013 10.5695 8.29517C10.5522 8.28269 10.535 8.2455 10.5172 8.29517C10.5047 8.2957 10.4973 8.29305 10.5042 8.27684C10.5087 8.24364 10.5172 8.21309 10.5467 8.18945C10.5602 8.22186 10.5711 8.25055 10.5828 8.27977Z" fill="#140E00"/>
<path fill-rule="evenodd" clip-rule="evenodd" d="M11.2067 6.48775C11.258 6.45986 11.3095 6.43196 11.3603 6.40381C11.3265 6.46278 11.2771 6.48775 11.2227 6.50289C11.2083 6.51086 11.2059 6.50236 11.2067 6.48775" fill="#221800"/>
<path fill-rule="evenodd" clip-rule="evenodd" d="M10.0326 9.71603C10.0151 9.69398 10.0257 9.66609 10.0186 9.64166C10.0196 9.58986 10.0273 9.54045 10.056 9.49609C10.0632 9.57153 10.0326 9.64166 10.0326 9.71603Z" fill="#1F1700"/>
<path fill-rule="evenodd" clip-rule="evenodd" d="M10.3041 7.87939H10.3142C10.3247 7.89786 10.3294 7.91905 10.3277 7.94022C10.3261 7.979 10.3461 7.97289 10.3676 7.96546L10.3655 7.9628C10.362 7.99627 10.3389 8.01858 10.3166 8.01327C10.286 8.00769 10.3044 7.97183 10.3022 7.94952C10.3012 7.92614 10.303 7.90277 10.3041 7.87939" fill="#1C1400"/>
<path fill-rule="evenodd" clip-rule="evenodd" d="M9.76623 7.54932C9.79598 7.59022 9.83609 7.57721 9.87328 7.57482C9.90754 7.57482 9.94181 7.57083 9.97342 7.58943C9.96784 7.60457 9.9535 7.59633 9.94553 7.6035C9.89161 7.5966 9.83768 7.58943 9.7827 7.59341C9.74259 7.59633 9.74471 7.57668 9.76623 7.54932" fill="#281C00"/>
<path fill-rule="evenodd" clip-rule="evenodd" d="M10.5557 7.63281L10.5581 7.65194C10.532 7.738 10.5219 7.738 10.4534 7.65194C10.447 7.63759 10.4545 7.63547 10.4648 7.63547C10.4962 7.67717 10.5265 7.67638 10.5557 7.63281" fill="#2A1E00"/>
<path fill-rule="evenodd" clip-rule="evenodd" d="M10.9039 8.0085C10.9087 8.01461 10.9124 8.02125 10.9175 8.02656C10.9183 8.05153 10.9153 8.07942 10.8938 8.08739C10.8662 8.09722 10.8771 8.05844 10.8641 8.04569C10.8534 8.03533 10.8468 8.02045 10.8386 8.00691C10.8343 7.99416 10.838 7.99017 10.8492 7.99416C10.8683 7.99256 10.88 8.03559 10.9039 8.0085" fill="#140E00"/>
<path fill-rule="evenodd" clip-rule="evenodd" d="M10.2667 6.62817C10.3121 6.6465 10.3594 6.66084 10.3904 6.70759L10.391 6.706C10.3365 6.70759 10.2975 6.66244 10.251 6.64304C10.2505 6.62976 10.2523 6.62073 10.2667 6.62817Z" fill="#1F1600"/>
<path fill-rule="evenodd" clip-rule="evenodd" d="M10.455 7.32059C10.4531 7.35539 10.4407 7.37159 10.412 7.34822C10.3902 7.33069 10.3713 7.3105 10.348 7.28872C10.3891 7.26349 10.4037 7.34344 10.4399 7.30466C10.4531 7.30094 10.4593 7.30466 10.455 7.32059" fill="#231900"/>
<path fill-rule="evenodd" clip-rule="evenodd" d="M10.9438 7.16723L10.931 7.14811C10.9369 7.10136 10.9443 7.05407 10.9512 7.00732C10.9791 7.0647 10.9693 7.11729 10.9438 7.16723Z" fill="#2A1E00"/>
<path fill-rule="evenodd" clip-rule="evenodd" d="M11.0049 6.70432C11.0014 6.65783 10.9536 6.64747 10.9417 6.60205C10.986 6.60949 11.0136 6.64296 11.0346 6.67802C11.05 6.70325 11.0309 6.71786 11.0041 6.71255L11.0049 6.70432Z" fill="#140F00"/>
<path fill-rule="evenodd" clip-rule="evenodd" d="M11.4219 6.96713C11.383 6.93968 11.3529 6.90158 11.3353 6.85742C11.3825 6.87177 11.4001 6.91373 11.425 6.94348C11.4306 6.95278 11.429 6.96022 11.4219 6.96713Z" fill="#251B00"/>
<path fill-rule="evenodd" clip-rule="evenodd" d="M10.6861 8.35344H10.6718C10.685 8.30563 10.6978 8.25808 10.7105 8.20947C10.7355 8.21054 10.7283 8.22727 10.7243 8.24268C10.7213 8.28226 10.7081 8.32039 10.6861 8.35344" fill="#1D1400"/>
<path fill-rule="evenodd" clip-rule="evenodd" d="M11.0049 6.70459C11.0059 6.70751 11.0059 6.71017 11.0038 6.71282C10.9897 6.73221 10.9714 6.73115 10.9517 6.7277C10.9034 6.71681 10.8545 6.72611 10.8062 6.72212C10.7985 6.71867 10.7956 6.71336 10.7985 6.70459H11.0049Z" fill="#5E4400"/>
<path fill-rule="evenodd" clip-rule="evenodd" d="M10.4311 7.62006C10.3952 7.58898 10.3709 7.54667 10.3621 7.5C10.4022 7.53719 10.4224 7.57225 10.4423 7.60891C10.4433 7.61927 10.4423 7.62617 10.4311 7.62006Z" fill="#332500"/>
<path fill-rule="evenodd" clip-rule="evenodd" d="M10.1947 6.61952C10.153 6.61447 10.1169 6.6312 10.0845 6.65856C10.1078 6.58339 10.1583 6.59056 10.2114 6.60491C10.2128 6.61952 10.208 6.62483 10.1947 6.61952" fill="#100B00"/>
<path fill-rule="evenodd" clip-rule="evenodd" d="M10.3674 7.96496C10.3713 7.91715 10.4037 7.8967 10.4359 7.87598C10.4186 7.91077 10.413 7.95699 10.3652 7.9623L10.3674 7.96496" fill="#271C00"/>
<path fill-rule="evenodd" clip-rule="evenodd" d="M10.5679 7.93706C10.5639 7.94264 10.5602 7.94822 10.5557 7.95379C10.5294 7.91501 10.5031 7.87623 10.4776 7.83772C10.4826 7.82895 10.4888 7.82868 10.4949 7.83453C10.5281 7.86109 10.5517 7.89615 10.5679 7.93706" fill="#231A00"/>
<path fill-rule="evenodd" clip-rule="evenodd" d="M10.8375 7.52076C10.8324 7.5258 10.8285 7.53112 10.8237 7.53696L10.752 7.44824C10.7876 7.46243 10.8177 7.4879 10.8375 7.52076" fill="#322400"/>
<path fill-rule="evenodd" clip-rule="evenodd" d="M9.49688 9.73584C9.49316 9.73877 9.48971 9.74222 9.48625 9.74461C9.45969 9.72177 9.43499 9.69547 9.43286 9.6543C9.47005 9.66678 9.48253 9.70131 9.49688 9.73584Z" fill="#312300"/>
<path fill-rule="evenodd" clip-rule="evenodd" d="M10.8003 6.71523C10.8503 6.72346 10.9023 6.70434 10.9509 6.72798C10.8924 6.73671 10.8328 6.73653 10.7743 6.72745C10.7754 6.70381 10.7873 6.70779 10.8003 6.71523Z" fill="#080600"/>
<path fill-rule="evenodd" clip-rule="evenodd" d="M10.7073 7.20658L10.7238 7.18905C10.7366 7.19861 10.7491 7.20871 10.761 7.21827C10.7674 7.21269 10.7746 7.21322 10.7812 7.21986C10.7413 7.31761 10.7294 7.22677 10.7073 7.20658ZM10.8003 6.71544L10.7743 6.72766C10.7418 6.72649 10.7099 6.71843 10.6808 6.70402C10.6864 6.6995 10.6914 6.69393 10.6967 6.68994C10.7307 6.69499 10.7642 6.6995 10.7977 6.70508C10.7982 6.70854 10.7998 6.71199 10.8003 6.71544" fill="#150F00"/>
<path fill-rule="evenodd" clip-rule="evenodd" d="M12.2166 9.59984C12.2166 9.59585 12.2166 9.59214 12.215 9.58789C12.2581 9.58789 12.3014 9.58151 12.3428 9.60143C12.3518 9.60674 12.3518 9.6102 12.3428 9.61551L12.2166 9.59984Z" fill="#0E0A00"/>
<path fill-rule="evenodd" clip-rule="evenodd" d="M10.8741 8.36917C10.8699 8.3782 10.8664 8.38777 10.8619 8.39786C10.8476 8.36014 10.8269 8.32455 10.8285 8.28125C10.8311 8.28125 10.833 8.28178 10.8348 8.28205C10.8609 8.30409 10.863 8.33862 10.8741 8.36917" fill="#3B2A00"/>
<path fill-rule="evenodd" clip-rule="evenodd" d="M9.97237 8.22898C9.96759 8.22287 9.9636 8.2165 9.95856 8.21065C9.96759 8.17984 9.97688 8.15009 9.98671 8.12061L10.0013 8.12618C9.99574 8.16125 9.99415 8.19684 9.97237 8.22898" fill="#312300"/>
<path fill-rule="evenodd" clip-rule="evenodd" d="M11.5388 8.22182C11.5276 8.21704 11.5164 8.21332 11.5063 8.20907C11.5409 8.19287 11.5781 8.195 11.6147 8.19287C11.6176 8.19606 11.619 8.19871 11.6182 8.20296C11.6166 8.20615 11.6161 8.20748 11.6147 8.20748C11.5898 8.21518 11.5653 8.22501 11.5388 8.22182Z" fill="#0D0A00"/>
<path fill-rule="evenodd" clip-rule="evenodd" d="M10.3913 6.70703L10.3907 6.70863C10.4271 6.70358 10.4537 6.72881 10.4845 6.74316C10.4829 6.75405 10.4728 6.75378 10.4675 6.75883C10.4404 6.74502 10.4059 6.74502 10.3913 6.70703Z" fill="#352600"/>
<path fill-rule="evenodd" clip-rule="evenodd" d="M10.0074 7.59471C10.0284 7.59126 10.051 7.61091 10.0704 7.58887C10.0792 7.59046 10.0808 7.59923 10.0834 7.60693C10.0494 7.63562 10.0149 7.62207 9.98035 7.60852C9.98592 7.59471 9.99974 7.60215 10.0074 7.59471" fill="#322400"/>
<path fill-rule="evenodd" clip-rule="evenodd" d="M10.8487 7.99541L10.838 8.00816C10.8112 7.99396 10.7893 7.97203 10.7751 7.94521L10.7767 7.94043C10.8104 7.94282 10.829 7.96938 10.8487 7.99541Z" fill="#2D2000"/>
<path fill-rule="evenodd" clip-rule="evenodd" d="M10.9517 8.48169C10.9467 8.47718 10.9427 8.47213 10.9382 8.46815C10.9589 8.44796 10.9804 8.42857 11.0011 8.40918L11.0168 8.42565C10.9997 8.44907 10.9774 8.46825 10.9517 8.48169" fill="#291D00"/>
<path fill-rule="evenodd" clip-rule="evenodd" d="M11.2067 6.48779C11.2123 6.49337 11.2174 6.49789 11.2229 6.50293C11.202 6.51993 11.1778 6.52232 11.1544 6.52631C11.1472 6.5202 11.1329 6.52737 11.1273 6.51329C11.1539 6.50479 11.181 6.49682 11.2067 6.48779Z" fill="#352600"/>
<path fill-rule="evenodd" clip-rule="evenodd" d="M11.6152 8.20739V8.19278C11.6152 8.17578 11.6166 8.15771 11.6362 8.15984C11.6434 8.15984 11.6575 8.17312 11.6564 8.1787C11.6527 8.20526 11.6325 8.2042 11.6152 8.20739" fill="#312300"/>
<path fill-rule="evenodd" clip-rule="evenodd" d="M10.0834 7.60688C10.0791 7.60024 10.0744 7.59466 10.0704 7.58882C10.0672 7.57102 10.0648 7.55296 10.0613 7.53437L10.0722 7.50488C10.0871 7.53729 10.1046 7.56916 10.0834 7.60688Z" fill="#302200"/>
<path fill-rule="evenodd" clip-rule="evenodd" d="M10.4444 8.41115C10.4423 8.37795 10.4638 8.35856 10.4789 8.33545C10.4879 8.33704 10.4895 8.34607 10.493 8.35298C10.4805 8.37689 10.4733 8.40531 10.4431 8.40903L10.4444 8.41115" fill="#332500"/>
<path fill-rule="evenodd" clip-rule="evenodd" d="M10.0576 6.76152C10.0412 6.73628 10.0393 6.71291 10.0608 6.68555C10.0778 6.706 10.0699 6.72619 10.0704 6.74558C10.0683 6.75275 10.0661 6.75992 10.0576 6.76152" fill="#412F00"/>
<path fill-rule="evenodd" clip-rule="evenodd" d="M10.7233 8.2422C10.7182 8.23158 10.7145 8.22069 10.7095 8.209C10.711 8.18701 10.7189 8.16594 10.7323 8.14844L10.7448 8.16491C10.7379 8.19094 10.7302 8.21617 10.7233 8.2422" fill="#342500"/>
<path fill-rule="evenodd" clip-rule="evenodd" d="M10.4922 8.35282C10.4871 8.34725 10.4831 8.34087 10.4781 8.33529L10.5041 8.27686C10.5081 8.2827 10.5132 8.28881 10.5171 8.29518C10.5139 8.31622 10.5053 8.33607 10.4922 8.35282Z" fill="#201700"/>
<path fill-rule="evenodd" clip-rule="evenodd" d="M10.8349 8.28225C10.8327 8.28198 10.8309 8.28145 10.8285 8.28145C10.8075 8.26923 10.807 8.244 10.8006 8.22354C10.8059 8.21823 10.8096 8.21239 10.8144 8.20654C10.8299 8.22859 10.8371 8.25539 10.8349 8.28225" fill="#3B2B00"/>
<path fill-rule="evenodd" clip-rule="evenodd" d="M10.4683 6.75786C10.4738 6.75281 10.4805 6.74777 10.4853 6.74219C10.5041 6.74352 10.5232 6.74617 10.5323 6.76981L10.5333 6.76716C10.51 6.77698 10.4895 6.76902 10.4683 6.75786" fill="#342500"/>
<path fill-rule="evenodd" clip-rule="evenodd" d="M10.455 7.32012L10.4396 7.30418C10.4542 7.28479 10.4696 7.26593 10.4842 7.24707C10.4885 7.24707 10.4911 7.24946 10.4911 7.25398C10.4879 7.28293 10.4677 7.29887 10.455 7.32012Z" fill="#352600"/>
<path fill-rule="evenodd" clip-rule="evenodd" d="M12.3436 9.61563V9.60155C12.3684 9.59934 12.3934 9.60481 12.415 9.61723C12.3906 9.63901 12.3669 9.62413 12.3436 9.61563Z" fill="#060400"/>
<path fill-rule="evenodd" clip-rule="evenodd" d="M11.0808 7.13252C11.0758 7.13704 11.0718 7.14155 11.0673 7.14634C11.0471 7.13693 11.03 7.12202 11.0179 7.1033C11.0197 7.09795 11.0235 7.09348 11.0285 7.09082C11.0494 7.09972 11.0675 7.11414 11.0808 7.13252" fill="#352600"/>
<path fill-rule="evenodd" clip-rule="evenodd" d="M11.2572 7.08986C11.253 7.10128 11.2492 7.11271 11.2442 7.12413C11.2317 7.10235 11.2333 7.07685 11.2301 7.05161C11.2256 7.03727 11.2312 7.03222 11.2442 7.03275C11.2482 7.05161 11.2524 7.07021 11.2572 7.08986Z" fill="#1E1600"/>
<path fill-rule="evenodd" clip-rule="evenodd" d="M10.2361 7.8916L10.251 7.90807L10.2109 7.96704C10.2074 7.92427 10.2234 7.9078 10.2361 7.8916" fill="#2E2100"/>
<path fill-rule="evenodd" clip-rule="evenodd" d="M10.2813 7.13916C10.2903 7.16599 10.3007 7.1806 10.2919 7.21114C10.2717 7.18936 10.2739 7.17077 10.2813 7.13916Z" fill="#553D00"/>
<path fill-rule="evenodd" clip-rule="evenodd" d="M10.0576 6.76181C10.0616 6.75623 10.0661 6.75145 10.0704 6.74561C10.0791 6.76075 10.0879 6.77615 10.0969 6.79103C10.098 6.80271 10.098 6.81148 10.0844 6.80325C10.0704 6.79349 10.0608 6.77861 10.0576 6.76181" fill="#030200"/>
<path fill-rule="evenodd" clip-rule="evenodd" d="M10.4951 7.8345C10.4895 7.83556 10.4831 7.83609 10.4778 7.83768C10.4672 7.84167 10.4598 7.86106 10.4467 7.8499C10.4385 7.843 10.4459 7.83264 10.451 7.82653C10.469 7.80289 10.4826 7.8167 10.4951 7.8345Z" fill="#4D3700"/>
<path fill-rule="evenodd" clip-rule="evenodd" d="M11.2439 7.03305C11.2389 7.03969 11.2349 7.0458 11.2298 7.05191C11.2219 7.0272 11.2131 7.0017 11.2043 6.97673L11.2179 6.97461C11.2349 6.98948 11.2391 7.01127 11.2439 7.03305" fill="#332400"/>
<path fill-rule="evenodd" clip-rule="evenodd" d="M10.1947 6.61959C10.2003 6.61454 10.2059 6.6095 10.2114 6.60498C10.2314 6.6079 10.251 6.61295 10.267 6.62862C10.2616 6.6334 10.2563 6.63925 10.251 6.6435L10.1947 6.61959Z" fill="#2F2200"/>
<path fill-rule="evenodd" clip-rule="evenodd" d="M10.7801 7.21952C10.773 7.21952 10.7663 7.21846 10.7599 7.21793C10.7679 7.1927 10.7756 7.16826 10.7839 7.14355C10.7892 7.15338 10.7929 7.16401 10.7979 7.1749C10.7913 7.18898 10.7857 7.20465 10.7801 7.21952" fill="#392900"/>
<path fill-rule="evenodd" clip-rule="evenodd" d="M11.4219 6.96749C11.4235 6.96005 11.424 6.95129 11.4251 6.94385C11.4402 6.95872 11.4612 6.96908 11.4612 6.9983C11.4405 6.99697 11.433 6.97997 11.4219 6.96749Z" fill="#2B1F00"/>
<path fill-rule="evenodd" clip-rule="evenodd" d="M10.0845 6.80323C10.0882 6.7987 10.0923 6.7946 10.097 6.79102C10.1116 6.79845 10.1246 6.80669 10.1395 6.81466C10.1339 6.81997 10.1294 6.82475 10.1235 6.8298C10.1068 6.82741 10.0924 6.82103 10.0845 6.80323" fill="#251A00"/>
<path fill-rule="evenodd" clip-rule="evenodd" d="M11.0288 7.0906L11.0181 7.10308C11.0054 7.09856 10.9855 7.09166 10.9964 7.07466C11.0054 7.06138 11.0197 7.07838 11.0288 7.0906Z" fill="#4F3800"/>
<path fill-rule="evenodd" clip-rule="evenodd" d="M10.1442 7.82392C10.1399 7.82896 10.1373 7.83321 10.1325 7.83853C10.1251 7.82551 10.1198 7.81143 10.1261 7.79443C10.1392 7.79868 10.1418 7.81143 10.1442 7.82392Z" fill="#533C00"/>
<path fill-rule="evenodd" clip-rule="evenodd" d="M11.1283 6.51318C11.1374 6.5185 11.1464 6.52221 11.1554 6.5262C11.144 6.52886 11.1323 6.52992 11.1214 6.53178C11.1121 6.52721 11.1029 6.52242 11.0938 6.51743C11.105 6.51664 11.1167 6.51451 11.1283 6.51318" fill="#050400"/>
<path fill-rule="evenodd" clip-rule="evenodd" d="M10.4311 7.62004C10.4343 7.61686 10.4377 7.61261 10.4422 7.60889C10.4547 7.61207 10.4622 7.62164 10.4662 7.63545L10.4547 7.65192C10.4433 7.64448 10.4335 7.63598 10.4311 7.62004" fill="#332500"/>
<path fill-rule="evenodd" clip-rule="evenodd" d="M10.0074 7.59493L9.98031 7.60875C9.96863 7.60715 9.95694 7.60556 9.94525 7.60343C9.95481 7.59918 9.96385 7.5944 9.97314 7.58936C9.98456 7.59148 9.99625 7.59281 10.0074 7.59493Z" fill="#060400"/>
<path fill-rule="evenodd" clip-rule="evenodd" d="M8.63018 8.63742C8.52366 8.68178 8.41715 8.68948 8.31036 8.64008C8.31355 8.63423 8.31727 8.62972 8.32391 8.62759C8.42007 8.64911 8.51702 8.64114 8.61265 8.62308C8.62566 8.6167 8.63071 8.62308 8.63018 8.63742Z" fill="#171000"/>
<path fill-rule="evenodd" clip-rule="evenodd" d="M8.32466 8.62755C8.31988 8.63234 8.31589 8.63579 8.31111 8.64004C8.27817 8.61693 8.22956 8.59621 8.29916 8.55371C8.30374 8.5597 8.30862 8.56547 8.31377 8.57098C8.31483 8.59063 8.30474 8.61348 8.32466 8.62755" fill="#130E00"/>
<path fill-rule="evenodd" clip-rule="evenodd" d="M8.63016 8.45459C8.63016 8.49284 8.63016 8.53189 8.63069 8.56961C8.59908 8.53189 8.58261 8.4939 8.63016 8.45459Z" fill="#1A1200"/>
<path fill-rule="evenodd" clip-rule="evenodd" d="M8.63014 8.63762C8.62422 8.63295 8.61837 8.62816 8.61261 8.62328C8.62669 8.60867 8.65777 8.59991 8.62934 8.56777C8.64555 8.56458 8.66494 8.55741 8.66813 8.58423C8.67317 8.61637 8.65192 8.62859 8.63014 8.63762" fill="#1C1400"/>
<path fill-rule="evenodd" clip-rule="evenodd" d="M8.75872 8.95757C8.75447 8.95226 8.75128 8.94748 8.74756 8.94216C8.721 8.9257 8.69523 8.96607 8.66867 8.9427C8.66313 8.93716 8.65773 8.93149 8.65247 8.9257C8.67 8.91241 8.68593 8.89568 8.70453 8.88851C8.72764 8.87974 8.74995 8.83804 8.77518 8.87071C8.7967 8.89913 8.78023 8.9318 8.75872 8.95757Z" fill="#1F1600"/>
<path fill-rule="evenodd" clip-rule="evenodd" d="M8.66865 8.94262C8.68644 8.92987 8.70318 8.91499 8.72257 8.90623C8.76613 8.88471 8.75604 8.91499 8.74754 8.94209C8.72257 8.97051 8.69866 9.00026 8.67343 9.02815C8.66333 9.03904 8.64872 9.05365 8.63571 9.0401C8.62322 9.02868 8.63013 9.00956 8.63783 8.99468C8.64687 8.97688 8.65829 8.95909 8.66865 8.94262Z" fill="#F6B100"/>
<path fill-rule="evenodd" clip-rule="evenodd" d="M3.1875 4.78125H5.3125V12.4844H3.1875V4.78125Z" fill="#FE5B00"/>
<path fill-rule="evenodd" clip-rule="evenodd" d="M1.0625 4.78125H3.1875V12.4844H1.0625V4.78125Z" fill="#005641"/>
</svg>
