<svg width="15" height="11" viewBox="0 0 15 11" fill="none" xmlns="http://www.w3.org/2000/svg">
<g clip-path="url(#clip0_864_41747)">
<path d="M0 2.75V8.25C0 9.76875 0.790547 11 2.34375 11H10.0676L0.714141 0.6635C0.240469 1.168 0 1.91475 0 2.75ZM15 8.25V2.75C15 1.23125 14.2095 0 12.6562 0H4.85813L14.2491 10.3772C14.7478 9.87275 15 9.1075 15 8.25Z" fill="#EC1C24"/>
<path d="M13.8195 10.706C13.9755 10.6168 14.1199 10.5063 14.2491 10.3772L4.85766 0H4.13016L13.8192 10.706M1.15313 0.30925C0.992357 0.40546 0.844664 0.524645 0.714142 0.6635L10.0676 11.001H10.8274L1.15242 0.31025" fill="#E6E7E8"/>
<path d="M2.34376 0C1.87736 0 1.48126 0.11275 1.15314 0.30925L10.8274 11H12.6563C13.11 11 13.4965 10.8925 13.8195 10.706L4.13064 0H2.34376Z" fill="#25333A"/>
</g>
<defs>
<clipPath id="clip0_864_41747">
<rect width="15" height="11" fill="white"/>
</clipPath>
</defs>
</svg>
