<svg width="17" height="11" viewBox="0 0 17 11" fill="none" xmlns="http://www.w3.org/2000/svg">
<g clip-path="url(#clip0_864_43674)">
<path d="M0 3.91113H17V7.33336H0V3.91113Z" fill="#EC1C24"/>
<path d="M0 3.17773H17V3.91107H0V3.17773ZM0 7.33329H17V8.06662H0V7.33329Z" fill="#E6E7E8"/>
<path d="M14.3438 0.244629H2.65625C0.895953 0.244629 0 1.44852 0 2.93352V3.17796H17V2.93352C17 1.44852 16.104 0.244629 14.3438 0.244629Z" fill="#25333A"/>
<path d="M0 8.31134C0 9.79634 0.895953 11.0002 2.65625 11.0002H14.3438C16.104 11.0002 17 9.79634 17 8.31134V8.06689H0V8.31134Z" fill="#137A08"/>
<path d="M6.0658 9.48108L10.2388 3.03801C10.2687 2.74184 10.3767 2.45688 10.5535 2.20788C10.7713 1.90061 11.0797 1.67181 11.4405 1.5249C11.4383 1.88839 11.3329 2.23917 11.1143 2.54668C10.9519 2.77435 10.7362 2.96564 10.4829 3.10646L6.27909 9.59768L6.0658 9.48108" fill="white"/>
<path d="M11.4405 9.48108L7.26775 3.03801C7.23784 2.74184 7.12979 2.45688 6.95298 2.20788C6.73464 1.90061 6.42678 1.67181 6.0658 1.5249C6.06819 1.88839 6.17205 2.23917 6.39172 2.54668C6.55439 2.7742 6.77018 2.96544 7.02337 3.10646L11.2264 9.59793L11.4405 9.48108Z" fill="white"/>
<path d="M8.75315 2.1958C7.68002 2.76585 6.93256 4.05773 6.93256 5.56107C6.93256 7.0644 7.68135 8.35556 8.75315 8.92731C9.82362 8.35531 10.5737 7.0644 10.5737 5.56107C10.5737 4.05798 9.82495 2.76585 8.75315 2.1958Z" fill="#D9271E"/>
<path d="M7.26833 7.23903C7.48402 6.73597 7.60487 6.16519 7.60487 5.56092C7.60487 4.95617 7.48402 4.38612 7.26833 3.8833C7.0545 4.38637 6.93231 4.95641 6.93231 5.56092C6.93258 6.16543 7.05477 6.73621 7.26833 7.23903ZM10.238 7.23903C10.4518 6.73597 10.5738 6.16519 10.5738 5.56092C10.5738 4.95617 10.4518 4.38612 10.238 3.8833C10.0223 4.38637 9.90147 4.95641 9.90147 5.56092C9.90147 6.16543 10.0223 6.73621 10.238 7.23903Z" fill="#25333A"/>
<path d="M8.75315 6.11808C9.0351 6.11808 9.26368 5.86878 9.26368 5.56124C9.26368 5.2537 9.0351 5.00439 8.75315 5.00439C8.47119 5.00439 8.24261 5.2537 8.24261 5.56124C8.24261 5.86878 8.47119 6.11808 8.75315 6.11808Z" fill="white"/>
<path d="M8.62988 6.31647C8.40038 6.62716 8.25482 7.06838 8.25482 7.55898C8.25482 8.05031 8.40038 8.4908 8.62988 8.80125V6.31647ZM8.85859 8.80222C9.08809 8.49153 9.23285 8.05031 9.23285 7.55996C9.23285 7.06862 9.08809 6.62789 8.85859 6.31745V8.80222M8.63865 2.33789C8.40809 2.64834 8.26438 3.0898 8.26438 3.57893C8.26438 4.07027 8.40809 4.51198 8.63865 4.82267V2.33789M8.86762 4.82267C9.09818 4.51125 9.24188 4.06953 9.24188 3.57893C9.24188 3.09005 9.09818 2.64809 8.86762 2.33789V4.82267Z" fill="white"/>
</g>
<defs>
<clipPath id="clip0_864_43674">
<rect width="17" height="11" fill="white"/>
</clipPath>
</defs>
</svg>
