<svg width="15" height="10" viewBox="0 0 15 10" fill="none" xmlns="http://www.w3.org/2000/svg">
<g clip-path="url(#clip0_864_42766)">
<path d="M2.34375 0C0.790547 0 0 1.11932 0 2.5V7.5C0 8.88068 0.790547 10 2.34375 10H4.6875V0H2.34375Z" fill="#E6E7E8"/>
<path d="M12.6562 0H4.6875V10H12.6562C14.2095 10 15 8.88068 15 7.5V2.5C15 1.11932 14.2095 0 12.6562 0Z" fill="#006838"/>
<path d="M10.4318 2.61963L10.9624 3.09713L11.6679 2.94463L11.3637 3.58236L11.7316 4.1869L11.0114 4.1019L10.5323 4.62895L10.3933 3.94031L9.72772 3.66054L10.3605 3.31827L10.4318 2.61963Z" fill="#E6E7E8"/>
<path d="M12.2742 5.75664C11.2662 6.73436 9.63235 6.73436 8.62407 5.75664C7.61579 4.77914 7.61579 3.19459 8.62407 2.21709C8.69368 2.14982 8.76634 2.08823 8.84134 2.03027C8.32437 2.15734 7.85237 2.4174 7.47516 2.783C6.31126 3.91186 6.31126 5.74209 7.47516 6.87096C8.63977 7.99959 10.5267 7.99959 11.6909 6.87096C12.0679 6.50518 12.3361 6.04749 12.4671 5.54618C12.4068 5.61965 12.3424 5.6899 12.2742 5.75664" fill="#E6E7E8"/>
</g>
<defs>
<clipPath id="clip0_864_42766">
<rect width="15" height="10" fill="white"/>
</clipPath>
</defs>
</svg>
