<svg width="15" height="10" viewBox="0 0 15 10" fill="none" xmlns="http://www.w3.org/2000/svg">
<g clip-path="url(#clip0_864_42756)">
<path d="M15 7.5C15 8.88068 14.2095 10 12.6562 10H2.34375C0.790547 10 0 8.88068 0 7.5V2.5C0 1.11932 0.790547 0 2.34375 0H12.6562C14.2095 0 15 1.11932 15 2.5V7.5Z" fill="#EC1C24"/>
<path fill-rule="evenodd" clip-rule="evenodd" d="M9.32298 6.43636C8.78345 7.2525 7.66009 7.76727 6.4847 7.43432C5.3754 7.11932 4.61345 6.07705 4.67649 4.95295C4.7379 3.82386 5.61259 2.86364 6.74931 2.66886C7.95376 2.46136 8.92126 3.0875 9.33446 3.74296C8.84485 3.27614 8.27555 3.06591 7.60899 3.13977C7.0868 3.19796 6.6504 3.42682 6.30868 3.81318C5.63977 4.56818 5.66438 5.70045 6.36282 6.41295C6.76337 6.82159 7.25602 7.03546 7.83751 7.04068C8.41852 7.04477 8.91141 6.83159 9.32438 6.4375" fill="white"/>
<path d="M10.3664 4.18066L10.8422 4.60885L11.4769 4.47248L11.2033 5.04521L11.5336 5.58635L10.889 5.51112L10.458 5.98385L10.3336 5.36521L9.73639 5.1143L10.304 4.80885L10.3664 4.18066Z" fill="white"/>
</g>
<defs>
<clipPath id="clip0_864_42756">
<rect width="15" height="10" fill="white"/>
</clipPath>
</defs>
</svg>
