<svg width="15" height="11" viewBox="0 0 15 11" fill="none" xmlns="http://www.w3.org/2000/svg">
<g clip-path="url(#clip0_864_42740)">
<path d="M7.50005 0.893057V0.886963L5.35083 1.98431L7.50005 0.893057Z" fill="#4189DD"/>
<path d="M0 3.625V4.195L1.09828 3.625H0ZM12.6562 0.34375H7.5V1.44859L6.41859 1.98438H7.5V3.625H6.41859L7.5 4.18633V5.26562H7.455L4.45312 3.77758V5.26562H3.04688V3.77758L0.0548437 5.26562H0V8.07812C0 9.50195 0.790547 10.6562 2.34375 10.6562H12.6562C14.2095 10.6562 15 9.50195 15 8.07812V2.92188C15 1.49805 14.2095 0.34375 12.6562 0.34375ZM0.284063 1.58125C0.221721 1.71118 0.170142 1.84601 0.129844 1.98438H1.09828L0.284063 1.58125" fill="#2B3990"/>
<path d="M7.49995 0.346094V0.34375H4.45307V1.91383L7.49995 0.346094ZM3.04682 1.91383V0.34375H2.3437C1.72963 0.34375 1.23674 0.526094 0.862915 0.832422L3.04682 1.91383V1.91383Z" fill="#2B3990"/>
<path d="M7.5 2.21875V1.98438H6.41859L7.5 1.44859V0.893125L5.35078 1.98438H4.63875L7.5 0.523516V0.346094L4.45312 1.91383V0.34375H4.21875V2.21875H7.5ZM4.21875 5.26562H4.45312V3.77758L7.455 5.26562H7.5V4.73125L5.35078 3.625H6.06305L7.5 4.36797V4.18633L6.41859 3.625H7.5V3.39062H4.21875V5.26562ZM3.04688 3.77758V5.26562H3.28125V3.39062H0V3.625H1.09828L0 4.195V4.73359L2.16609 3.625H2.87859L0 5.09688V5.26562H0.0548437L3.04688 3.77758ZM0.862969 0.833594C0.739687 0.934609 0.629766 1.04922 0.532734 1.17555L2.16609 1.98555H1.45383L0.353438 1.44602C0.32896 1.49078 0.305825 1.53627 0.284063 1.58242L1.09828 1.98555H0.129844C0.107344 2.06195 0.0878906 2.14 0.0714844 2.21992H3.28125V0.344922H3.04688V1.915L0.862969 0.833594Z" fill="white"/>
<path d="M3.28125 5.26562H4.21875V3.39062H7.5V2.2968L4.21875 2.45312V0.34375H3.28125V2.45312L0.0534375 2.31461C0.018032 2.5151 0.000151924 2.71829 0 2.92188L0 3.39062H3.28125V5.26562Z" fill="#FF0000"/>
<path d="M4.21878 2.45305L7.50003 2.29672V2.21867H4.21878V2.45305ZM0.0534668 2.31453L3.28128 2.45305V2.21867H0.0715137C0.0647168 2.25031 0.0590918 2.28219 0.0534668 2.31453M2.16612 1.9843L0.531123 1.17617C0.465589 1.26141 0.406144 1.35117 0.353232 1.44477L1.45386 1.9843H2.16612ZM0.532529 1.1743L0.531357 1.17617L2.16612 1.9843L0.532529 1.1743ZM5.35081 1.9843L7.50003 0.886953V0.523438L4.63878 1.9843H5.35081ZM5.35081 3.62492L7.50003 4.72227V4.36789L6.06308 3.62492H5.35081Z" fill="#FF0000"/>
<path d="M7.5 4.73125V4.72234L5.35078 3.625L7.5 4.73125ZM2.16609 3.625L0 4.73898V5.09688L2.87859 3.625H2.16609Z" fill="#FF0000"/>
<path d="M0 4.73354V4.73894L2.16609 3.62495L0 4.73354ZM11.5945 3.03433L11.2477 3.03479L11.1431 2.69214L11.0391 3.03479L10.6915 3.03433L10.9732 3.24784L10.8656 3.59073L11.1436 3.37769L11.4209 3.59073L11.3133 3.24784L11.5945 3.03433Z" fill="#FF0000"/>
<path d="M11.7774 2.97353L11.2934 2.97424L11.1429 2.48486L10.9939 2.97424L10.5094 2.97353L10.902 3.27213L10.7501 3.75846L11.1441 3.45658L11.5383 3.75846L11.3862 3.27213L11.7774 2.97353M11.1439 3.37877L10.8661 3.59158L10.9735 3.24869L10.6917 3.03541L11.0389 3.03588L11.1431 2.69439L11.2477 3.03588L11.5946 3.03541L11.3142 3.24869L11.4209 3.59158L11.1439 3.37877" fill="white"/>
<path d="M11.658 7.8742H11.2617L11.1431 7.48584L11.0227 7.8742H10.6289L10.9493 8.11795L10.8281 8.50959L11.1436 8.26654L11.46 8.50959L11.3391 8.11795L11.658 7.8742Z" fill="#FF0000"/>
<path d="M11.8666 7.80392L11.3144 7.80509L11.1428 7.24634L10.9725 7.80509L10.4198 7.80392L10.8677 8.14446L10.6947 8.6997L11.1438 8.3547L11.5935 8.6997L11.4201 8.14446L11.8666 7.80392ZM11.1436 8.26657L10.8269 8.50962L10.949 8.11798L10.6279 7.87493L11.0235 7.8754L11.1428 7.48587L11.2621 7.8754L11.6578 7.87493L11.3381 8.11798L11.46 8.50962L11.1436 8.26657" fill="white"/>
<path d="M13.3899 4.67912L13.0433 4.67959L12.9399 4.3374L12.8347 4.67959L12.4875 4.67912L12.7688 4.89217L12.661 5.23529L12.9399 5.02248L13.2165 5.23529L13.1103 4.89217L13.3899 4.67912Z" fill="#FF0000"/>
<path d="M13.5729 4.61637L13.0889 4.61754L12.9384 4.12793L12.7894 4.61754L12.3047 4.61637L12.6973 4.9152L12.5456 5.40152L12.9394 5.09965L13.3336 5.40152L13.1817 4.9152L13.5729 4.61637M12.9391 5.02207L12.6616 5.23488L12.7687 4.89176L12.4873 4.67871L12.8344 4.67918L12.9387 4.3377L13.043 4.67918L13.3898 4.67871L13.1098 4.89176L13.2164 5.23488L12.9391 5.02207Z" fill="white"/>
<path d="M9.83714 4.70092L9.49003 4.70139L9.38667 4.36084L9.28144 4.70139L8.93433 4.70092L9.21558 4.91373L9.1087 5.25732L9.38667 5.04521L9.66323 5.25732L9.55683 4.91373L9.83714 4.70092Z" fill="#FF0000"/>
<path d="M10.0198 4.63858L9.53581 4.63976L9.3851 4.15015L9.23627 4.63976L8.75159 4.63858L9.14416 4.93741L8.99252 5.42374L9.38651 5.12187L9.78049 5.42374L9.62862 4.93741L10.0198 4.63858M9.38627 5.04452L9.10877 5.25733L9.21588 4.91374L8.93416 4.70093L9.28127 4.7014L9.38557 4.36015L9.48987 4.7014L9.83674 4.70093L9.55667 4.91374L9.66331 5.25733L9.38627 5.04452Z" fill="white"/>
</g>
<defs>
<clipPath id="clip0_864_42740">
<rect width="15" height="11" fill="white"/>
</clipPath>
</defs>
</svg>
