<svg width="15" height="12" viewBox="0 0 15 12" fill="none" xmlns="http://www.w3.org/2000/svg">
<g clip-path="url(#clip0_864_41737)">
<path d="M15 9.75016C15 10.1922 14.8244 10.6161 14.5118 10.9287C14.1993 11.2412 13.7754 11.4168 13.3333 11.4168H1.66667C1.22464 11.4168 0.800716 11.2412 0.488155 10.9287C0.175595 10.6161 0 10.1922 0 9.75016V2.25016C0 1.80814 0.175595 1.38421 0.488155 1.07165C0.800716 0.759091 1.22464 0.583496 1.66667 0.583496H13.3333C13.7754 0.583496 14.1993 0.759091 14.5118 1.07165C14.8244 1.38421 15 1.80814 15 2.25016V9.75016Z" fill="#006A4D"/>
<path d="M6.66667 8.70833C8.2775 8.70833 9.58333 7.4025 9.58333 5.79167C9.58333 4.18084 8.2775 2.875 6.66667 2.875C5.05584 2.875 3.75 4.18084 3.75 5.79167C3.75 7.4025 5.05584 8.70833 6.66667 8.70833Z" fill="#F42A41"/>
</g>
<defs>
<clipPath id="clip0_864_41737">
<rect width="15" height="12" fill="white"/>
</clipPath>
</defs>
</svg>
