<svg width="15" height="11" viewBox="0 0 15 11" fill="none" xmlns="http://www.w3.org/2000/svg">
<g clip-path="url(#clip0_864_42760)">
<path d="M15 9.24967C15 9.6917 14.8244 10.1156 14.5118 10.4282C14.1993 10.7407 13.7754 10.9163 13.3333 10.9163H1.66667C1.22464 10.9163 0.800716 10.7407 0.488155 10.4282C0.175595 10.1156 0 9.6917 0 9.24967V1.74967C0 1.30765 0.175595 0.883724 0.488155 0.571163C0.800716 0.258602 1.22464 0.0830078 1.66667 0.0830078H13.3333C13.7754 0.0830078 14.1993 0.258602 14.5118 0.571163C14.8244 0.883724 15 1.30765 15 1.74967V9.24967Z" fill="#EEEEEE"/>
<path fill-rule="evenodd" clip-rule="evenodd" d="M5.40586 7.22853C5.41127 7.25395 5.40252 7.25853 5.37544 7.25061C5.22752 7.20895 5.09627 7.14228 5.00419 7.01394C4.97439 6.97223 4.95341 6.92488 4.94252 6.87478C4.93711 6.85019 4.94169 6.83728 4.97086 6.84478C5.14211 6.88686 5.27877 6.97978 5.37502 7.12895C5.39377 7.15811 5.40502 7.19145 5.40586 7.22853ZM8.93461 7.25728C8.92692 7.21333 8.93647 7.16811 8.96127 7.13103C9.05711 6.97978 9.19544 6.8877 9.36836 6.84353C9.39877 6.83603 9.39961 6.85228 9.39461 6.87436C9.37265 6.96896 9.3188 7.05312 9.24211 7.1127C9.15241 7.18441 9.04705 7.23394 8.93461 7.25728V7.25728ZM9.33044 7.35311C9.327 7.36838 9.3183 7.38195 9.30586 7.39144C9.18336 7.50353 9.04252 7.56561 8.87336 7.54936C8.83128 7.5441 8.79134 7.52786 8.75752 7.50228C8.73877 7.48936 8.74002 7.48019 8.75711 7.46561C8.81877 7.41269 8.89002 7.37936 8.96752 7.35895C9.07377 7.33145 9.18169 7.32395 9.29086 7.34186C9.30461 7.34353 9.31794 7.34603 9.33044 7.35311V7.35311ZM5.18294 7.3327C5.29794 7.33436 5.42627 7.35811 5.54044 7.43436C5.56127 7.44811 5.59586 7.46353 5.59377 7.48394C5.59127 7.50769 5.55627 7.51895 5.53169 7.52936C5.46361 7.5575 5.38807 7.56204 5.31711 7.54228C5.20856 7.51988 5.10883 7.46647 5.03002 7.38853C5.02044 7.37894 5.00544 7.36728 5.01086 7.35353C5.01502 7.34311 5.03294 7.34395 5.04544 7.34145C5.08461 7.33353 5.12419 7.3327 5.18294 7.3327V7.3327ZM5.63752 7.17269C5.63819 7.21113 5.63198 7.24937 5.61919 7.28561C5.61127 7.30686 5.60169 7.31019 5.58294 7.29603C5.52688 7.25216 5.48546 7.1923 5.46419 7.12436C5.42419 7.01311 5.40544 6.89895 5.43419 6.78186C5.44419 6.74103 5.44877 6.74019 5.47752 6.77061C5.58419 6.88353 5.62752 7.02103 5.63752 7.17269ZM8.70002 7.16019C8.71169 7.01936 8.75419 6.8827 8.85961 6.77186C8.89002 6.73936 8.89586 6.7402 8.90377 6.78311C8.93669 6.95478 8.90544 7.11353 8.79961 7.25436C8.78336 7.27644 8.75836 7.30895 8.73544 7.30228C8.70794 7.29478 8.70961 7.25436 8.70461 7.22561C8.70044 7.2077 8.70169 7.18811 8.70002 7.16019ZM7.77169 7.41853C7.78502 7.64811 7.67627 7.81311 7.52002 7.96144C7.47044 7.78144 7.55877 7.50436 7.77169 7.41853ZM6.82086 7.96603C6.67002 7.81936 6.55919 7.66478 6.56502 7.45103C6.56586 7.41936 6.57586 7.41853 6.60044 7.43311C6.74627 7.52019 6.81211 7.65353 6.82794 7.81645C6.83294 7.8627 6.83252 7.90978 6.82086 7.96603ZM8.33211 7.17103C8.36002 7.25145 8.35669 7.33228 8.34044 7.41353C8.32426 7.51305 8.27683 7.60484 8.20502 7.67561C8.16752 7.71061 8.16169 7.70978 8.14211 7.66103C8.11994 7.60156 8.1176 7.53652 8.13544 7.47561C8.1639 7.35901 8.22815 7.25425 8.31919 7.17603L8.33211 7.17103ZM6.00294 7.1677C6.14169 7.26061 6.23919 7.48603 6.20627 7.62603C6.20002 7.65353 6.19461 7.69103 6.17086 7.69853C6.14877 7.70519 6.12711 7.6727 6.11044 7.65228C5.99377 7.5102 5.96419 7.3502 6.00294 7.1677ZM8.34544 7.76353C8.48127 7.77186 8.59836 7.82061 8.68878 7.92645C8.71794 7.96061 8.71586 7.96394 8.67169 7.97603C8.55877 8.00686 8.45419 7.97853 8.35252 7.93144C8.2966 7.90555 8.24512 7.87095 8.20002 7.82895C8.18127 7.81186 8.18169 7.80145 8.20669 7.79145C8.25063 7.77302 8.2978 7.76353 8.34544 7.76353V7.76353ZM5.99377 7.76436C6.03744 7.76364 6.0808 7.77172 6.12127 7.78811C6.16002 7.80353 6.16169 7.80853 6.13086 7.83436C6.04651 7.90989 5.94301 7.96077 5.83169 7.98144C5.77626 7.99259 5.71897 7.9903 5.66461 7.97478C5.62169 7.96269 5.62002 7.96019 5.64961 7.92519C5.69235 7.87559 5.74513 7.83561 5.80445 7.80788C5.86377 7.78016 5.9283 7.76533 5.99377 7.76436V7.76436ZM8.40461 8.10853C8.24461 8.18561 8.01127 8.18103 7.89669 8.0027C7.88086 7.97686 7.88502 7.96853 7.91252 7.96186C8.10252 7.91811 8.26252 7.97436 8.40461 8.10853ZM5.93461 8.1102C5.99534 8.04505 6.07205 7.99693 6.15714 7.97062C6.24222 7.94431 6.33271 7.94071 6.41961 7.96019C6.45961 7.96978 6.46044 7.97228 6.43752 8.00561C6.35877 8.12103 6.24586 8.1627 6.11169 8.15436C6.05014 8.15277 5.98969 8.13769 5.93461 8.1102V8.1102ZM6.51752 7.72603C6.51645 7.7585 6.51011 7.79058 6.49877 7.82103C6.49002 7.84478 6.48002 7.84686 6.46086 7.83103C6.39374 7.77314 6.34242 7.69916 6.31169 7.61603C6.27752 7.53144 6.25044 7.4452 6.26586 7.35145C6.26794 7.3402 6.26794 7.32394 6.27752 7.32061C6.29086 7.31478 6.29877 7.33103 6.30711 7.33936C6.39877 7.42978 6.47627 7.52811 6.50836 7.65603C6.51211 7.67061 6.51377 7.68519 6.51586 7.70103L6.51752 7.72603V7.72603ZM7.82086 7.7277C7.8219 7.66733 7.83763 7.60812 7.86669 7.55519C7.90919 7.47144 7.96877 7.39978 8.03627 7.33394C8.05627 7.31519 8.06502 7.31353 8.07127 7.34353C8.08188 7.40703 8.07658 7.47216 8.05586 7.53311C8.02419 7.64394 7.97461 7.74478 7.88627 7.82353C7.85377 7.85186 7.85086 7.8502 7.83544 7.81061C7.82566 7.78407 7.82072 7.75598 7.82086 7.7277V7.7277ZM8.09669 8.31019C8.01377 8.31603 7.92961 8.31894 7.84669 8.29561C7.73336 8.26311 7.66252 8.18353 7.61169 8.08144C7.60419 8.06686 7.60336 8.0577 7.62461 8.0577C7.82086 8.05853 7.97669 8.13895 8.09419 8.29353C8.09669 8.29603 8.09752 8.3002 8.09919 8.30395C8.09919 8.3052 8.09794 8.30686 8.09669 8.31019V8.31019ZM6.23377 8.31353C6.25627 8.26905 6.28862 8.23028 6.32836 8.20019C6.43627 8.11144 6.55752 8.05686 6.70044 8.0577C6.72461 8.0577 6.73669 8.05936 6.72169 8.08769C6.64919 8.23103 6.53627 8.30978 6.37419 8.31228C6.32961 8.31436 6.28502 8.31353 6.23377 8.31353V8.31353ZM8.48169 7.50853C8.42669 7.42728 8.42252 7.34103 8.44377 7.25228C8.46586 7.15728 8.51419 7.07478 8.57836 7.00145C8.59586 6.98103 8.60461 6.98436 8.61628 7.00561C8.64395 7.05951 8.65275 7.12112 8.64127 7.18061C8.62206 7.30341 8.56647 7.41763 8.48169 7.50853V7.50853ZM5.73877 6.98561C5.86836 7.0977 5.96919 7.3552 5.85794 7.50395C5.71294 7.39311 5.64502 7.09686 5.73877 6.98561ZM5.52961 7.76186C5.46383 7.76374 5.39881 7.74745 5.34169 7.71478C5.30336 7.6902 5.30419 7.68686 5.33711 7.65853C5.41211 7.5927 5.50086 7.58436 5.59377 7.59811C5.66461 7.60853 5.73336 7.62895 5.80252 7.64686C5.82627 7.65353 5.82586 7.66144 5.81211 7.67769C5.78017 7.70943 5.73984 7.73141 5.69586 7.74103C5.64544 7.75603 5.59336 7.76186 5.52961 7.76186V7.76186ZM8.79669 7.76186C8.72497 7.76356 8.65374 7.74963 8.58794 7.72103L8.56711 7.71061C8.54628 7.69853 8.51711 7.68478 8.51836 7.66103C8.51961 7.63978 8.55294 7.64311 8.57252 7.63811C8.66294 7.61436 8.75252 7.58686 8.84752 7.59436C8.90586 7.59936 8.95627 7.62103 9.00044 7.65853C9.03377 7.68686 9.03419 7.6902 8.99586 7.71478C8.93419 7.75436 8.86419 7.76019 8.79669 7.76186V7.76186Z" fill="#5C913B"/>
<path fill-rule="evenodd" clip-rule="evenodd" d="M7.5113 8.23122C7.40713 8.2058 7.30213 8.1808 7.19796 8.15455C7.17828 8.14954 7.15765 8.14954 7.13796 8.15455C7.0338 8.18122 6.9288 8.2058 6.82338 8.22955C6.89204 8.17777 6.96997 8.13958 7.05296 8.11705L6.71338 7.99913C6.75505 7.99247 6.78213 8.0058 6.80963 8.01288C6.9188 8.04122 7.0288 8.06497 7.13963 8.08622C7.18713 8.09497 7.2313 8.07955 7.2763 8.0708C7.40921 8.04497 7.54088 8.01038 7.67296 7.97705C7.54838 8.02913 7.41963 8.06997 7.28296 8.11622C7.36963 8.14413 7.44505 8.1758 7.5113 8.23122V8.23122Z" fill="#5C913B"/>
<path fill-rule="evenodd" clip-rule="evenodd" d="M10.7392 2.63062L10.6771 2.66104C10.5654 2.71354 10.46 2.78562 10.3279 2.77687C10.3154 2.77604 10.3008 2.7827 10.2983 2.79687C10.2896 2.83854 10.2579 2.84354 10.225 2.84395C10.1955 2.84377 10.1664 2.85104 10.1405 2.8651C10.1146 2.87916 10.0926 2.89955 10.0767 2.92437C10.0386 2.98333 9.97916 3.02528 9.91085 3.04145C9.88751 3.04645 9.86585 3.05979 9.84543 3.07229C9.78762 3.10919 9.7191 3.12562 9.65085 3.11895C9.62793 3.11645 9.61293 3.12354 9.59918 3.14229C9.5671 3.1852 9.53168 3.22645 9.49751 3.2677C9.47876 3.28979 9.45835 3.31187 9.43043 3.31729C9.3371 3.33562 9.26293 3.3927 9.1821 3.43645C9.03126 3.51812 8.8796 3.59895 8.71043 3.63854C8.64043 3.65479 8.56626 3.67479 8.49793 3.65645C8.44168 3.64145 8.4071 3.6602 8.36918 3.6877C8.3458 3.70348 8.32378 3.72118 8.30335 3.74062C8.26771 3.77794 8.22366 3.80619 8.17488 3.823C8.12609 3.83982 8.07399 3.84472 8.02293 3.83729C8.00274 3.83319 7.98176 3.83597 7.96335 3.8452C7.87168 3.8952 7.76835 3.89645 7.66918 3.91562C7.62418 3.92479 7.57793 3.90854 7.53501 3.91895C7.43251 3.9427 7.3321 3.91479 7.23251 3.90562C7.15876 3.89854 7.08626 3.88145 7.01168 3.89354C6.99082 3.89765 6.96928 3.89674 6.94885 3.89087C6.92841 3.885 6.90967 3.87435 6.89418 3.85979C6.86168 3.83062 6.82876 3.82854 6.7921 3.84979C6.77785 3.85881 6.76144 3.86384 6.74458 3.86435C6.72772 3.86487 6.71103 3.86084 6.69626 3.8527C6.67927 3.84383 6.66067 3.83845 6.64156 3.83688C6.62246 3.83531 6.60323 3.83757 6.58501 3.84354C6.53876 3.85982 6.48868 3.86185 6.44126 3.84937C6.32835 3.81312 6.21168 3.78645 6.10335 3.73645C6.05126 3.71229 6.05126 3.71395 6.05626 3.77312C6.0621 3.84187 6.08585 3.9077 6.08335 3.97812C6.08001 4.07437 6.07585 4.1702 6.06835 4.26645C6.05751 4.40937 5.98335 4.50562 5.86085 4.5727C5.84071 4.58492 5.8177 4.59163 5.79415 4.59214C5.7706 4.59265 5.74733 4.58695 5.72668 4.57562C5.64168 4.53395 5.55793 4.48979 5.46876 4.45645C5.35501 4.41395 5.24335 4.40354 5.12876 4.45312C5.0896 4.4702 5.05585 4.50687 5.00626 4.49437C5.00335 4.49354 4.99793 4.49979 4.9946 4.50312C4.9546 4.54479 4.91293 4.5852 4.89751 4.64354C4.87501 4.72729 4.83835 4.79895 4.75418 4.84145C4.70793 4.86479 4.67001 4.90395 4.6221 4.92645C4.55626 4.95729 4.47585 4.96229 4.42835 4.91895C4.3721 4.86729 4.2896 4.83645 4.26335 4.75354C4.25835 4.73812 4.24043 4.72645 4.23001 4.74979C4.20751 4.80145 4.18585 4.85479 4.21251 4.91229C4.2321 4.95437 4.25293 4.99562 4.28543 5.02895C4.29524 5.03922 4.30189 5.05209 4.3046 5.06604C4.3157 5.1137 4.31599 5.16325 4.30543 5.21104C4.30191 5.22397 4.30121 5.2375 4.30336 5.25072C4.30552 5.26395 4.31049 5.27656 4.31793 5.2877C4.32876 5.3052 4.34876 5.3302 4.33918 5.3427C4.30085 5.39187 4.33668 5.4227 4.35918 5.45812C4.36085 5.46145 4.36335 5.4652 4.36335 5.46895C4.36168 5.52645 4.40293 5.54687 4.44626 5.56604C4.4721 5.5777 4.49835 5.59062 4.50751 5.62062C4.5321 5.70062 4.54293 5.78437 4.57126 5.86437C4.58085 5.89145 4.5871 5.9102 4.61293 5.92479C4.67168 5.95729 4.73418 5.98437 4.77043 6.04854C4.78751 6.07854 4.82668 6.0877 4.86335 6.08354C4.87751 6.08187 4.89501 6.07604 4.90251 6.08937C4.92001 6.1177 4.94793 6.1177 4.97335 6.1152C5.03293 6.10854 5.07501 6.13395 5.10876 6.17937C5.12557 6.20215 5.14945 6.2187 5.17668 6.22645C5.23751 6.24687 5.29835 6.26729 5.35626 6.29395C5.39085 6.3102 5.4246 6.31604 5.45751 6.28979C5.46626 6.28312 5.47626 6.28229 5.48668 6.28395C5.51261 6.28903 5.5394 6.28775 5.56472 6.2802C5.59005 6.27265 5.61317 6.25907 5.6321 6.24062C5.64918 6.2252 5.67001 6.21479 5.6921 6.2252C5.72918 6.24229 5.76418 6.23395 5.80085 6.2252C5.84126 6.21479 5.88376 6.21145 5.92085 6.2327C5.99001 6.27187 6.03335 6.33604 6.07585 6.40104C6.10335 6.4427 6.10293 6.48812 6.09501 6.53437C6.0921 6.55062 6.09793 6.55312 6.11251 6.55395C6.1921 6.55979 6.2721 6.56687 6.35376 6.57437C6.34668 6.54729 6.3271 6.52979 6.31293 6.50937C6.28168 6.46229 6.26168 6.41104 6.28001 6.35645C6.29549 6.31139 6.32009 6.27001 6.35228 6.23488C6.38447 6.19975 6.42356 6.17163 6.4671 6.15229C6.50376 6.13437 6.54335 6.11895 6.58043 6.10104C6.6846 6.04979 6.79168 6.05604 6.8996 6.08729C6.9281 6.09494 6.95819 6.09435 6.98637 6.08557C7.01454 6.07679 7.03965 6.06019 7.05876 6.0377C7.06203 6.03377 7.0661 6.03059 7.0707 6.02836C7.0753 6.02613 7.08032 6.02491 7.08543 6.02479C7.11459 6.02062 7.14501 6.01604 7.17335 6.02479C7.20376 6.0352 7.22835 6.0352 7.25085 6.00687C7.26085 5.99479 7.27959 5.99145 7.29668 5.99229C7.30793 5.99229 7.31793 5.99229 7.32751 5.98187C7.35376 5.95104 7.39043 5.93937 7.42876 5.93062C7.43751 5.92895 7.44668 5.92979 7.45335 5.92187C7.5096 5.85145 7.59126 5.83229 7.67376 5.81562C7.68734 5.81347 7.70033 5.8085 7.71188 5.80104C7.72343 5.79357 7.7333 5.78378 7.74085 5.77229C7.80126 5.68479 7.86126 5.6627 7.96418 5.68979C7.99001 5.69687 7.99668 5.6877 8.00293 5.66604C8.01376 5.62687 8.03126 5.5902 8.06751 5.56937C8.08793 5.5577 8.09293 5.54354 8.09293 5.52312C8.09335 5.46395 8.09418 5.40479 8.09543 5.34604C8.09835 5.20937 8.19876 5.13812 8.30293 5.12145C8.36668 5.11145 8.43126 5.11854 8.49501 5.11979C8.53918 5.12104 8.57835 5.1327 8.6146 5.15645C8.64751 5.17854 8.67751 5.20437 8.71085 5.22645C8.74335 5.24895 8.77668 5.24687 8.81168 5.2277C8.84168 5.21104 8.85543 5.18937 8.84626 5.1552C8.84085 5.13395 8.85168 5.1277 8.87126 5.12895C8.90085 5.13104 8.93501 5.13854 8.95835 5.12229C9.01251 5.08562 9.06751 5.10395 9.1221 5.1077C9.14293 5.10895 9.1646 5.10854 9.1821 5.11937C9.2271 5.14854 9.28585 5.14562 9.32835 5.18145C9.33126 5.18395 9.3371 5.18187 9.35168 5.18187C9.3296 5.1702 9.33168 5.1577 9.33501 5.14312C9.33867 5.12671 9.33878 5.1097 9.33533 5.09325C9.33188 5.07679 9.32496 5.06126 9.31501 5.0477C9.2821 5.00062 9.22293 4.97312 9.21376 4.9077C9.21168 4.8952 9.19043 4.88437 9.17751 4.87437C9.15209 4.85479 9.12585 4.83645 9.10001 4.81729C9.0846 4.80562 9.06876 4.79229 9.0646 4.77312C9.04918 4.6977 8.9971 4.64895 8.94543 4.59895C8.89642 4.55495 8.85961 4.49903 8.83859 4.43661C8.81756 4.37419 8.81303 4.30739 8.82543 4.2427C8.83293 4.19687 8.83751 4.14937 8.86876 4.11354C8.89626 4.08187 8.92918 4.05645 8.92626 4.00937C8.92585 4.00395 8.93085 3.99645 8.93501 3.99312C8.9896 3.94812 9.04293 3.90187 9.12251 3.91812C9.15658 3.92498 9.19162 3.92541 9.22585 3.91937C9.27126 3.91229 9.30668 3.88895 9.3196 3.83979C9.32626 3.81395 9.33126 3.78604 9.34543 3.76354C9.41918 3.64312 9.52668 3.55479 9.64251 3.47895C9.69001 3.4477 9.74793 3.42687 9.80085 3.40145C9.8346 3.38562 9.86751 3.36687 9.9046 3.36187C9.91511 3.36051 9.92522 3.35695 9.93427 3.35142C9.94331 3.3459 9.95109 3.33852 9.9571 3.32979C10.0229 3.24354 10.0938 3.1627 10.2058 3.13354C10.2367 3.12562 10.2513 3.09854 10.2625 3.06979C10.2763 3.03229 10.2896 2.99145 10.3242 2.96979C10.4321 2.90187 10.525 2.80395 10.6638 2.79645C10.6938 2.7952 10.71 2.77812 10.7175 2.74979L10.7467 2.63437C10.7479 2.6327 10.7513 2.6302 10.7508 2.62937C10.7463 2.62645 10.7425 2.62854 10.7392 2.63062V2.63062Z" fill="#F4900C"/>
</g>
<defs>
<clipPath id="clip0_864_42760">
<rect width="15" height="11" fill="white"/>
</clipPath>
</defs>
</svg>
